<svg xmlns="http://www.w3.org/2000/svg" xmlns:xlink="http://www.w3.org/1999/xlink" width="550.222" height="275.422" viewBox="0 0 550.222 275.422">
  <defs>
    <linearGradient id="linear-gradient" x1="0.105" y1="0.474" x2="1.103" y2="0.474" gradientUnits="objectBoundingBox">
      <stop offset="0" stop-color="#34254c"/>
      <stop offset="1" stop-color="#51397f"/>
    </linearGradient>
    <linearGradient id="linear-gradient-2" x1="0.182" y1="0.496" x2="0.772" y2="0.496" gradientUnits="objectBoundingBox">
      <stop offset="0" stop-color="#e1dae5"/>
      <stop offset="1" stop-color="#f7f4f9"/>
    </linearGradient>
    <linearGradient id="linear-gradient-3" x1="0.022" y1="0.205" x2="1.149" y2="0.205" gradientUnits="objectBoundingBox">
      <stop offset="0" stop-color="#c8b8d3"/>
      <stop offset="1" stop-color="#c8b8d3" stop-opacity="0.302"/>
    </linearGradient>
    <linearGradient id="linear-gradient-4" x1="-0.195" y1="0.445" x2="0.973" y2="0.445" xlink:href="#linear-gradient-3"/>
    <linearGradient id="linear-gradient-5" x1="-0.144" y1="0.463" x2="1.092" y2="0.463" gradientUnits="objectBoundingBox">
      <stop offset="0" stop-color="#c8b8d3" stop-opacity="0.902"/>
      <stop offset="1" stop-color="#c8b8d3" stop-opacity="0.302"/>
    </linearGradient>
    <linearGradient id="linear-gradient-6" x1="0.006" y1="0.466" x2="1.124" y2="0.466" xlink:href="#linear-gradient-5"/>
    <linearGradient id="linear-gradient-7" x1="0.008" y1="0.536" x2="1.024" y2="0.536" xlink:href="#linear-gradient-5"/>
    <linearGradient id="linear-gradient-8" x1="1.167" y1="0.42" x2="0.189" y2="0.642" gradientUnits="objectBoundingBox">
      <stop offset="0" stop-color="#fff"/>
      <stop offset="1" stop-color="#fff" stop-opacity="0"/>
    </linearGradient>
    <linearGradient id="linear-gradient-9" x1="0.421" y1="-0.023" x2="0.994" y2="0.639" xlink:href="#linear-gradient-3"/>
    <linearGradient id="linear-gradient-10" x1="1.116" y1="-0.295" x2="0.583" y2="1.264" xlink:href="#linear-gradient-8"/>
    <linearGradient id="linear-gradient-11" x1="-0.155" y1="0.536" x2="0.85" y2="0.536" xlink:href="#linear-gradient"/>
    <linearGradient id="linear-gradient-12" x1="0.019" y1="0.629" x2="1.238" y2="0.482" gradientUnits="objectBoundingBox">
      <stop offset="0" stop-color="#2d2244"/>
      <stop offset="1" stop-color="#3e2c5e" stop-opacity="0"/>
    </linearGradient>
    <linearGradient id="linear-gradient-13" x1="0.558" y1="0.066" x2="1.214" y2="0.889" gradientUnits="objectBoundingBox">
      <stop offset="0" stop-color="#ce1d3b"/>
      <stop offset="1" stop-color="#ed202e"/>
    </linearGradient>
    <linearGradient id="linear-gradient-14" x1="0.472" y1="-0.033" x2="0.859" y2="0.619" xlink:href="#linear-gradient-13"/>
    <linearGradient id="linear-gradient-15" x1="0.114" y1="0.523" x2="0.884" y2="0.467" gradientUnits="objectBoundingBox">
      <stop offset="0" stop-color="#a193ad"/>
      <stop offset="0.996" stop-color="#cec4d6"/>
    </linearGradient>
    <linearGradient id="linear-gradient-16" x1="0.678" y1="0.9" x2="0.573" y2="-0.03" xlink:href="#linear-gradient-2"/>
    <linearGradient id="linear-gradient-17" x1="0.18" y1="0.995" x2="0.713" y2="0.294" gradientUnits="objectBoundingBox">
      <stop offset="0" stop-color="#cec4d6"/>
      <stop offset="0.996" stop-color="#cec4d6" stop-opacity="0"/>
    </linearGradient>
    <linearGradient id="linear-gradient-18" x1="1.499" y1="0.902" x2="1.146" y2="0.154" gradientUnits="objectBoundingBox">
      <stop offset="0" stop-color="#34254c"/>
      <stop offset="1" stop-color="#432a68"/>
    </linearGradient>
    <linearGradient id="linear-gradient-19" x1="1.477" y1="0.914" x2="1.125" y2="0.175" xlink:href="#linear-gradient-18"/>
    <linearGradient id="linear-gradient-20" x1="2.004" y1="1.388" x2="1.703" y2="-0.039" xlink:href="#linear-gradient-15"/>
    <linearGradient id="linear-gradient-21" x1="1.034" y1="1.218" x2="1.923" y2="0.266" gradientUnits="objectBoundingBox">
      <stop offset="0" stop-color="#3492b7"/>
      <stop offset="1" stop-color="#4cc8e5"/>
    </linearGradient>
    <linearGradient id="linear-gradient-22" x1="0.992" y1="0.591" x2="1.992" y2="0.591" gradientUnits="objectBoundingBox">
      <stop offset="0" stop-color="#d733db"/>
      <stop offset="1" stop-color="#f43ef9"/>
    </linearGradient>
    <linearGradient id="linear-gradient-23" x1="0.587" y1="0.723" x2="1.491" y2="0.489" gradientUnits="objectBoundingBox">
      <stop offset="0" stop-color="#1e45a5"/>
      <stop offset="1" stop-color="#2265c6"/>
    </linearGradient>
    <linearGradient id="linear-gradient-24" x1="0.172" y1="0.623" x2="1.137" y2="0.192" xlink:href="#linear-gradient"/>
    <linearGradient id="linear-gradient-25" x1="0.173" y1="0.497" x2="1.178" y2="0.497" xlink:href="#linear-gradient"/>
    <linearGradient id="linear-gradient-26" x1="1.415" y1="0.347" x2="1.002" y2="0.409" xlink:href="#linear-gradient-2"/>
    <linearGradient id="linear-gradient-27" x1="1.196" y1="0.544" x2="1.568" y2="0.498" xlink:href="#linear-gradient-2"/>
    <linearGradient id="linear-gradient-28" x1="0.757" y1="0.276" x2="1.763" y2="0.276" xlink:href="#linear-gradient-2"/>
    <linearGradient id="linear-gradient-29" x1="0.258" y1="0.579" x2="1.142" y2="0.238" xlink:href="#linear-gradient-2"/>
    <linearGradient id="linear-gradient-30" x1="0.618" y1="0.882" x2="0.896" y2="-0.032" gradientUnits="objectBoundingBox">
      <stop offset="0" stop-color="#c8b8d3"/>
      <stop offset="1" stop-color="#c8b8d3" stop-opacity="0"/>
    </linearGradient>
    <linearGradient id="linear-gradient-31" x1="0.377" y1="0.823" x2="0.924" y2="0.502" xlink:href="#linear-gradient-2"/>
    <linearGradient id="linear-gradient-32" x1="0.123" y1="0.588" x2="1.293" y2="0.33" gradientUnits="objectBoundingBox">
      <stop offset="0" stop-color="#201d21"/>
      <stop offset="1" stop-color="#524b56"/>
    </linearGradient>
    <linearGradient id="linear-gradient-33" x1="-0.041" y1="0.504" x2="0.642" y2="0.462" gradientUnits="objectBoundingBox">
      <stop offset="0" stop-color="#111011"/>
      <stop offset="1" stop-color="#111011" stop-opacity="0"/>
    </linearGradient>
    <linearGradient id="linear-gradient-34" x1="0.786" y1="-0.24" x2="1.124" y2="1.313" gradientUnits="objectBoundingBox">
      <stop offset="0" stop-color="#ede7f2"/>
      <stop offset="1" stop-color="#ede7f2" stop-opacity="0"/>
    </linearGradient>
    <linearGradient id="linear-gradient-35" x1="1.98" y1="-0.595" x2="4.063" y2="2.279" xlink:href="#linear-gradient-34"/>
    <linearGradient id="linear-gradient-36" x1="0.042" y1="0.649" x2="1.07" y2="0.649" xlink:href="#linear-gradient"/>
    <linearGradient id="linear-gradient-37" x1="0.895" y1="0.808" x2="0.002" y2="-0.378" xlink:href="#linear-gradient"/>
    <linearGradient id="linear-gradient-38" x1="1.467" y1="1.184" x2="1.033" y2="0.128" xlink:href="#linear-gradient"/>
    <linearGradient id="linear-gradient-39" x1="0.937" y1="0.342" x2="2.08" y2="0.342" xlink:href="#linear-gradient"/>
    <linearGradient id="linear-gradient-40" x1="0.18" y1="0.66" x2="1.164" y2="0.23" xlink:href="#linear-gradient-15"/>
    <linearGradient id="linear-gradient-41" x1="1.081" y1="0.736" x2="0.409" y2="0.178" xlink:href="#linear-gradient-2"/>
    <linearGradient id="linear-gradient-42" x1="0.942" y1="-0.107" x2="1.914" y2="-0.107" xlink:href="#linear-gradient-2"/>
    <linearGradient id="linear-gradient-43" x1="0.802" y1="-0.182" x2="1.796" y2="-0.182" xlink:href="#linear-gradient-2"/>
    <linearGradient id="linear-gradient-44" x1="0.477" y1="-0.088" x2="1.448" y2="-0.088" xlink:href="#linear-gradient-2"/>
    <linearGradient id="linear-gradient-45" x1="0.335" y1="-0.24" x2="1.316" y2="-0.24" xlink:href="#linear-gradient-2"/>
    <linearGradient id="linear-gradient-46" x1="2.211" y1="-0.743" x2="1.066" y2="0.682" xlink:href="#linear-gradient-3"/>
    <linearGradient id="linear-gradient-47" x1="1.724" y1="0.654" x2="0.607" y2="0.381" xlink:href="#linear-gradient-3"/>
    <linearGradient id="linear-gradient-48" x1="1.339" y1="0.661" x2="1.528" y2="-0.369" xlink:href="#linear-gradient"/>
    <linearGradient id="linear-gradient-49" x1="1.265" y1="-0.431" x2="2.288" y2="-0.431" xlink:href="#linear-gradient"/>
    <linearGradient id="linear-gradient-50" x1="0.925" y1="-0.372" x2="1.928" y2="-0.372" xlink:href="#linear-gradient"/>
    <linearGradient id="linear-gradient-51" x1="0.96" y1="-0.352" x2="1.963" y2="-0.352" xlink:href="#linear-gradient"/>
    <linearGradient id="linear-gradient-52" x1="0.676" y1="-0.413" x2="1.672" y2="-0.413" xlink:href="#linear-gradient"/>
    <linearGradient id="linear-gradient-53" x1="-25.507" y1="1.555" x2="-26.145" y2="0.974" xlink:href="#linear-gradient-2"/>
    <linearGradient id="linear-gradient-54" x1="-157.548" y1="4.179" x2="-156.495" y2="4.179" xlink:href="#linear-gradient-2"/>
    <linearGradient id="linear-gradient-55" x1="-143.059" y1="4.653" x2="-142.046" y2="4.653" xlink:href="#linear-gradient-2"/>
    <linearGradient id="linear-gradient-56" x1="-102.724" y1="3.607" x2="-101.67" y2="3.607" xlink:href="#linear-gradient-2"/>
    <linearGradient id="linear-gradient-57" x1="-82.603" y1="4.201" x2="-81.56" y2="4.201" xlink:href="#linear-gradient-2"/>
    <linearGradient id="linear-gradient-58" x1="-156.904" y1="1.669" x2="-157.783" y2="3.153" xlink:href="#linear-gradient-3"/>
    <linearGradient id="linear-gradient-59" x1="-49.681" y1="1.477" x2="-50.53" y2="1.189" xlink:href="#linear-gradient-3"/>
    <linearGradient id="linear-gradient-60" x1="-132.106" y1="5.027" x2="-131.92" y2="4.003" xlink:href="#linear-gradient"/>
    <linearGradient id="linear-gradient-61" x1="-193.221" y1="6.763" x2="-192.255" y2="6.763" xlink:href="#linear-gradient"/>
    <linearGradient id="linear-gradient-62" x1="-162.079" y1="5.758" x2="-161.087" y2="5.758" xlink:href="#linear-gradient"/>
    <linearGradient id="linear-gradient-63" x1="-198.5" y1="5.486" x2="-197.517" y2="5.486" xlink:href="#linear-gradient"/>
    <linearGradient id="linear-gradient-64" x1="-166.107" y1="5.945" x2="-165.099" y2="5.945" xlink:href="#linear-gradient"/>
    <linearGradient id="linear-gradient-65" x1="-0.062" y1="0.552" x2="1.015" y2="0.552" xlink:href="#linear-gradient-2"/>
    <linearGradient id="linear-gradient-66" x1="-0.148" y1="0.933" x2="1.06" y2="0.322" gradientUnits="objectBoundingBox">
      <stop offset="0" stop-color="#bbaec4"/>
      <stop offset="1" stop-color="#ded1e8"/>
    </linearGradient>
    <linearGradient id="linear-gradient-67" x1="-30.367" y1="20.453" x2="-29.719" y2="20.453" xlink:href="#linear-gradient-2"/>
    <linearGradient id="linear-gradient-68" x1="0.082" y1="0.482" x2="0.96" y2="0.307" xlink:href="#linear-gradient-66"/>
    <linearGradient id="linear-gradient-69" x1="0.921" y1="0.314" x2="0.142" y2="0.721" gradientUnits="objectBoundingBox">
      <stop offset="0" stop-color="#04074a"/>
      <stop offset="0.89" stop-opacity="0"/>
    </linearGradient>
    <linearGradient id="linear-gradient-70" x1="0.851" y1="0.293" x2="0.077" y2="0.843" gradientUnits="objectBoundingBox">
      <stop offset="0" stop-color="#04074a"/>
      <stop offset="1" stop-color="#04074a"/>
    </linearGradient>
  </defs>
  <g id="_404Error" data-name="404Error" transform="translate(-163.852 -148.625)">
    <g id="Group_9338" data-name="Group 9338" transform="translate(163.992 150.119)">
      <g id="Group_9334" data-name="Group 9334" transform="translate(2.36 6.29)">
        <g id="Group_9333" data-name="Group 9333">
          <path id="Path_23831" data-name="Path 23831" d="M269.887,380.829V335.282H166.992V303.415L266.528,155.43h40.966V303.415h25.6v31.867h-25.6v45.547Zm1.282-77.413,2.24-110.056L203,303.415Z" transform="translate(-166.992 -155.43)" fill="none" stroke="rgba(255,255,255,0.22)" stroke-width="5" stroke-dasharray="127 91"/>
        </g>
      </g>
      <g id="Group_9336" data-name="Group 9336" transform="translate(381.477 6.29)" opacity="0.94">
        <g id="Group_9335" data-name="Group 9335">
          <path id="Path_23832" data-name="Path 23832" d="M559.162,380.829V335.282h-102.9V303.415L555.8,155.43h40.966V303.415h25.6v31.867h-25.6v45.547Zm1.28-77.413,2.24-110.056-70.41,110.056Z" transform="translate(-456.266 -155.43)" fill="none" stroke="rgba(255,255,255,0.22)" stroke-width="5" stroke-dasharray="127 91"/>
        </g>
      </g>
      <g id="Group_9337" data-name="Group 9337" transform="translate(191.153 1.006)" opacity="0.94">
        <path id="Path_23833" data-name="Path 23833" d="M479.551,271.713q0,54.252-22.484,84.952t-61.849,30.7q-39.846,0-62.01-31.014t-22.163-87.127q0-55.648,22.4-86.739T395.7,151.4q40.328,0,62.09,31.167T479.551,271.713ZM394.579,355.5q23.36,0,35.125-21.685t11.762-64.9q0-41.971-11.6-63.968t-33.846-22q-23.2,0-35.045,21.918t-11.841,64.665q0,41.505,11.762,63.733T394.579,355.5Z" transform="translate(-311.045 -151.398)" fill="none" stroke="rgba(255,255,255,0.22)" stroke-width="5" stroke-dasharray="127 91"/>
      </g>
      <g id="Group_9354" data-name="Group 9354" transform="translate(0 0)">
        <path id="Path_23954" data-name="Path 23954" d="M306.854,382.549H266.887V337H252.482v-4.721h19.126v45.547h32.886V352.416h4.721v27.773h-2.36ZM180.886,337H163.992V302.056l30.271-45.005,3.917,2.635L168.713,303.5v28.787h12.173Zm153.932-30.579H330.1v-1.288h-25.6V232.108h4.721v68.308h25.6Zm-61.976-1.288H215.447v-4.721h52.769l.865-42.516,4.72.1Zm-36.966-50.372L231.9,252.22l38.881-60.773,3.976,2.544Zm2.262-54.487-3.917-2.635,30.41-45.213h44.583v8.082h-4.721v-3.362H267.145Z" transform="translate(-163.992 -148.5)" fill="#d80f29"/>
        <path id="Path_23952" data-name="Path 23952" d="M596.128,382.549H556.162V337H541.756v-4.721h19.127v45.547h32.885V352.416h4.721v27.773h-2.36ZM470.16,337H453.266V302.056l30.271-45.005,3.917,2.635L457.987,303.5v28.787H470.16Zm153.932-30.579h-4.721v-1.287h-25.6V232.108h4.721v68.308h25.6Zm-61.976-1.287H504.723v-4.721H557.49l.865-42.518,4.72.1Zm-36.965-50.371-3.977-2.544,38.88-60.773,3.976,2.544Zm2.261-54.488-3.917-2.635,30.41-45.213h44.583v8.082h-4.721v-3.362H556.419Z" transform="translate(-74.149 -148.5)" fill="#d80f29"/>
        <path id="Path_23953" data-name="Path 23953" d="M394.61,389.454c-27.246,0-48.755-10.767-63.93-32A104.757,104.757,0,0,1,317.7,332.425l4.434-1.619a100.049,100.049,0,0,0,12.387,23.9c14.238,19.924,34.455,30.026,60.09,30.026Zm39.219-9.515-2.3-4.121A72.508,72.508,0,0,0,454.555,355c11.538-15.755,18.621-36.642,21.052-62.081l4.7.449c-2.512,26.3-9.895,47.971-21.942,64.421A77.187,77.187,0,0,1,433.829,379.939Zm-39.858-22.353a38.263,38.263,0,0,1-15.151-2.964l1.858-4.339a33.576,33.576,0,0,0,13.293,2.583c14.776,0,25.587-6.689,33.05-20.45,5.226-9.634,8.708-22.821,10.349-39.194l4.7.471c-1.7,17-5.371,30.787-10.9,40.974C422.922,349.874,410.406,357.586,393.971,357.586Zm-46.863-66.244c-.626-6.817-.944-14.245-.944-22.079,0-28.763,4.079-50.9,12.125-65.787a52.574,52.574,0,0,1,6.936-10.027l3.522,3.143a47.857,47.857,0,0,0-6.3,9.128c-7.669,14.194-11.557,35.573-11.557,63.543,0,7.69.311,14.973.924,21.647Zm-34.194-30.225-4.718-.142c1.01-33.648,8.658-60.612,22.732-80.142a83.348,83.348,0,0,1,11.431-12.91l3.178,3.491a78.623,78.623,0,0,0-10.779,12.179C321.244,202.345,313.894,228.428,312.913,261.117Zm120.7-38.236a80.83,80.83,0,0,0-6.442-17.1c-7.362-13.953-17.75-20.736-31.758-20.736V180.32c15.7,0,27.792,7.824,35.933,23.254a85.529,85.529,0,0,1,6.833,18.109Zm38.013-.419c-3.536-15.258-9.047-28.319-16.378-38.819-11.1-15.9-26.162-25.61-44.765-28.876l.816-4.65c19.885,3.49,35.974,13.861,47.819,30.823,7.678,11,13.434,24.607,17.107,40.455Z" transform="translate(-119.284 -150.118)" fill="#d80f29"/>
      </g>
    </g>
    <g id="Group_9352" data-name="Group 9352" transform="translate(350.234 192.803)">
      <g id="Group_9351" data-name="Group 9351">
        <path id="Path_23834" data-name="Path 23834" d="M349.461,235.8s-3.511-10.685-2.372-12.212,16.65-8.271,36.447-12.475,20.735-2.612,22.263-1.473,3.388,13.234,3.351,15.723S349.461,235.8,349.461,235.8Z" transform="translate(-295.01 -175.38)" fill="url(#linear-gradient)"/>
        <path id="Path_23835" data-name="Path 23835" d="M449.405,315.2l-1.375,3.029-9.6,21.163-9.2,20.272c-4.569-3.21-5.989-14.921-5.769-23.845a71.572,71.572,0,0,0-1.013-14.846,19.52,19.52,0,0,1-6.738-5.951A34.885,34.885,0,0,1,413,310.807v0c-.585-1.067-.894-1.763-.894-1.763-10.736.526-18.047-6.434-19.781-7.558s-4.978-.075-8.211,7.188c-2.91,6.539-10.283,9.185-11.726,9.65-.16.051-.248.075-.248.075-.313,1.754-.642,3.335-.984,4.768-2.742,11.575-6.082,13.116-6.082,13.116-.366,3.754,1.87,9.194,2.554,16.191s-.028,17.817-.028,17.817l-9.659-6-18.895-11.735s-7.161-16.913-6.717-22.537a16.131,16.131,0,0,1,.957-4.269,19.981,19.981,0,0,1,1.827-3.709l.005-.007a15.743,15.743,0,0,1,1.307-1.824s-.026-.9.017-2.309c.02-.629.054-1.36.109-2.16a42.6,42.6,0,0,1,.82-5.954,13.524,13.524,0,0,1,.431-1.523,16.252,16.252,0,0,1,1.1-2.49,19.314,19.314,0,0,1,1.28-2.039h0l0,0,.047-.067.032-.045.014-.017.014-.02.046-.066c.035-.049.069-.1.106-.142s.068-.094.1-.138c.125-.164.246-.321.367-.469a16.5,16.5,0,0,1,1.459-1.605h0v0s.426-1.477,1-3.6c.443-1.64.978-3.663,1.472-5.685,1.134-4.634,1.022-6.284,3.974-8.557,2.9-2.235,3.626-4.119,5.334-5.478l.008-.005.08-.066c.995-.765,2.81-1.911,4.211-2.771l.017-.008c1.089-.671,1.925-1.162,1.925-1.162a18.736,18.736,0,0,1,1.035-6.078,8.051,8.051,0,0,1-.827-1.959c-.278-.885-.456-1.681-.456-1.681-.48.326-.949.617-1.4.877l-.01.007c-5.005,2.841-8.548,1.868-8.548,1.868a19.35,19.35,0,0,1-3.957,1.2,18.1,18.1,0,0,1-5.063.242c-8.346-.758-14.141-6.905-14.141-6.905l4.358-6.174,9.621-13.631a11.367,11.367,0,0,1,3.836,1.377l.008,0a7.2,7.2,0,0,1,.788.554l.007.007c.127.1.24.2.342.3a3.928,3.928,0,0,1,.81,1.025v0c.02.038.029.06.029.06a.04.04,0,0,1,0-.017v0a8.374,8.374,0,0,1,.126-.889,5.807,5.807,0,0,1,.561-1.643c.05-.093.1-.181.153-.266a3.646,3.646,0,0,1,.887-.995,2.607,2.607,0,0,1,1.081-.523q.043-.419.1-.816c1.372-10.046,7.844-10.291,7.844-10.291,1.349-7.549,9.006-7.658,9.006-7.658s1.621.381,4.176.739l.018,0a52.592,52.592,0,0,0,16.567-.085,22.933,22.933,0,0,0,12.722-7.071,14.213,14.213,0,0,0,1.384-1.764c6.322-1.467,11.215,6.486,11.215,6.486,3.624.012,6.523,2.418,8.187,4.223a15.7,15.7,0,0,1,1.556,1.949c.039-.052.083-.1.124-.156a9.88,9.88,0,0,1,1.355-1.389l.005-.007.016-.012c.016-.014.026-.022.026-.022h0c.084-.071.168-.14.253-.206h0a12.6,12.6,0,0,1,2.343-1.461,14.141,14.141,0,0,1,3.65-1.212l8.527,17.643,1.845,3.815a13.213,13.213,0,0,1-6.981,8.541,15.683,15.683,0,0,1-1.708.752,10.351,10.351,0,0,1-1.324.4c-4.79,1.107-10.055-1.027-13.048-2.586v0s-.041-.017-.115-.058c-.024-.013-.047-.026-.071-.037-.054-.03-.118-.064-.191-.107-1.291-.691-2.068-1.224-2.068-1.224a15.551,15.551,0,0,1,.71,2.562h0c.031.17.062.342.09.512a30.294,30.294,0,0,1,.149,7.839,25.324,25.324,0,0,1,1.473,5.988c.236,2.5-.333,3.539-.529,3.815-.03.043-.051.067-.059.079a4.192,4.192,0,0,1,.48-.256l.018-.009a9.026,9.026,0,0,1,1.68-.571c.11-.028.224-.051.341-.076l.046-.009a12.466,12.466,0,0,1,1.391-.2h0a17.87,17.87,0,0,1,7.383,1.085l.007,0c.076.027.155.054.233.083.147.052.295.106.446.165,7.869,2.984,11.215,15.6,11.215,15.6a13.746,13.746,0,0,1,3.491,3.681,23.429,23.429,0,0,1,4.134,10.921C448.472,307.6,449.405,315.2,449.405,315.2Z" transform="translate(-301.168 -173.799)" fill="url(#linear-gradient-2)"/>
        <path id="Path_23836" data-name="Path 23836" d="M341.175,258.408c-8.346-.758-14.141-6.905-14.141-6.905l4.358-6.174c1.487,1.9,4.71,5.331,9.335,6.482a13.594,13.594,0,0,0,4.346.384A21.321,21.321,0,0,1,341.175,258.408Z" transform="translate(-301.168 -163.903)" fill="url(#linear-gradient-3)"/>
        <path id="Path_23837" data-name="Path 23837" d="M409.25,259.1l-6.573,9.946s-5.785,9.334-16.619,8.415-20.625-10.815-28.4-6.348-12.268,14.508-12.268,14.508l4.466-1.339s-7.852,5.186-9.258,8.47a1.5,1.5,0,0,0,.228,1.882l-4.735,1.385a19.317,19.317,0,0,1,1.28-2.039h0l0,0,.047-.067.031-.045.014-.017.014-.02.046-.066c.035-.049.069-.1.106-.142s.068-.094.1-.138c.125-.164.246-.321.367-.469a16.5,16.5,0,0,1,1.459-1.605h0v0s.426-1.477,1-3.6c.443-1.64.978-3.663,1.472-5.685,1.134-4.634,1.022-6.284,3.974-8.557,2.9-2.235,3.626-4.119,5.334-5.478l.008-.005.08-.066c.995-.765,2.81-1.911,4.211-2.771l.017-.008c1.089-.671,1.925-1.162,1.925-1.162A18.736,18.736,0,0,1,358.628,258a8.051,8.051,0,0,1-.827-1.959c-.278-.885-.456-1.681-.456-1.681-.48.326-.949.617-1.4.877l-.011.007c-5.005,2.841-8.548,1.868-8.548,1.868a19.351,19.351,0,0,1-3.957,1.2,23.068,23.068,0,0,0,2.413-6.789,9.935,9.935,0,0,0,2.714-1.533s1.364,1.771,4.663,1.545,9.73-3.149,9.7-6.668a23.184,23.184,0,0,0,15.792,15.91C391.826,264.85,403.8,261.135,409.25,259.1Z" transform="translate(-298.355 -164.047)" fill="url(#linear-gradient-4)"/>
        <path id="Path_23838" data-name="Path 23838" d="M357.987,311.667c-.366,3.754,1.87,9.194,2.554,16.191s-.028,17.817-.028,17.817l-9.659-6c2.246-6.14-.67-15.415-.97-22.28-.371-8.469,4.785-8.82,4.785-8.82a14.282,14.282,0,0,1,4.409-15.862,29.881,29.881,0,0,1,4.991,5.835C361.328,310.126,357.987,311.667,357.987,311.667Z" transform="translate(-294.077 -149.185)" fill="url(#linear-gradient-5)"/>
        <path id="Path_23839" data-name="Path 23839" d="M407.024,282.288a34.092,34.092,0,0,0-4.058,9.489c-.585-1.067-.894-1.763-.894-1.763-10.736.526-18.047-6.434-19.781-7.558s-4.978-.075-8.211,7.188c-2.909,6.539-10.283,9.185-11.726,9.65-.613-.79-1.645-2.075-3-3.574,2.535-2.508,4.651-6.088,8.135-11.633,4.485-7.143,10.184-8.586,13.047-9.177,4.494-.928,6.546,1.832,16.8,6.312A15.969,15.969,0,0,0,407.024,282.288Z" transform="translate(-291.131 -154.771)" fill="url(#linear-gradient-6)"/>
        <path id="Path_23840" data-name="Path 23840" d="M417.415,318.694l-9.2,20.272c-4.569-3.21-5.989-14.921-5.769-23.845a71.573,71.573,0,0,0-1.013-14.846,19.52,19.52,0,0,1-6.738-5.951,80.475,80.475,0,0,1,8.768-14.217c-1.47,5.981,1.429,10.613,4.85,14.728,0,0-1.031,9.185.754,17.142C410.233,317.151,414.542,318.431,417.415,318.694Z" transform="translate(-280.153 -153.101)" fill="url(#linear-gradient-7)"/>
        <path id="Path_23841" data-name="Path 23841" d="M425.366,301.845l-1.375,3.029c-2.6-2.9-4.849-9.018-6.03-17.44-1.613-11.491-8.7-13.084-8.7-13.084,2.811-9.206-3.6-16.58-4.828-17.884.147.052.295.106.446.165,7.869,2.984,11.215,15.6,11.215,15.6a13.745,13.745,0,0,1,3.491,3.681,23.429,23.429,0,0,1,4.134,10.921C424.433,294.243,425.366,301.845,425.366,301.845Z" transform="translate(-277.129 -160.444)" fill="url(#linear-gradient-8)"/>
        <path id="Path_23842" data-name="Path 23842" d="M357.759,226.339c.693,4.1,7.54,4.25,7.54,4.25-4.259,1.326-7.807.948-12.208.211s-7.385,7.133-6.193,7.642,2.331,2.566,2.331,2.566c-3.426-1.632-3.932.06-2.854,3.715s.633,9.279.633,9.279c-.671-3.8-3.168-8.939-4.768-11.967a5.808,5.808,0,0,1,.561-1.643c.05-.093.1-.181.153-.266a3.647,3.647,0,0,1,.887-.995,2.607,2.607,0,0,1,1.081-.523q.043-.419.1-.816c1.372-10.046,7.844-10.291,7.844-10.291,1.349-7.549,9.006-7.658,9.006-7.658s1.621.381,4.175.739C362.909,220.178,357.065,222.252,357.759,226.339Z" transform="translate(-296.446 -171.818)" fill="url(#linear-gradient-9)"/>
        <path id="Path_23843" data-name="Path 23843" d="M405.234,226.148l-.159.78a13.891,13.891,0,0,0-10.97-4.017c-.792,3.575-6.964,4.2-6.964,4.2s4.794-2.605,4.172-5.671-8.478-5.844-8.478-5.844c-.025-.063-.046-.127-.067-.19a14.216,14.216,0,0,0,1.384-1.764c6.322-1.467,11.215,6.486,11.215,6.486,3.624.012,6.523,2.418,8.187,4.223a15.7,15.7,0,0,1,1.556,1.949C405.149,226.252,405.192,226.2,405.234,226.148Z" transform="translate(-283.858 -173.799)" fill="url(#linear-gradient-10)"/>
        <path id="Path_23844" data-name="Path 23844" d="M340.058,287.226c-.147.351-4.837,11.647-8.246,15.613l0,0a19.983,19.983,0,0,1,1.827-3.709l.005-.007a15.745,15.745,0,0,1,1.307-1.824s-.026-.9.017-2.309c.02-.629.054-1.36.109-2.16A16.029,16.029,0,0,0,340.058,287.226Z" transform="translate(-299.685 -150.89)" fill="#cec4d6"/>
        <path id="Path_23845" data-name="Path 23845" d="M408.139,242.794a34.809,34.809,0,0,0,3.5,5.862c-4.79,1.107-10.055-1.027-13.048-2.586v0s-.041-.017-.115-.058c-.024-.013-.047-.026-.071-.037-.054-.03-.118-.064-.191-.107-1.291-.691-2.068-1.224-2.068-1.224a15.545,15.545,0,0,1,.71,2.562h0c.031.17.062.342.09.512-6.154-8.554-8.89-19.77-9.017-20.31.19.541,4.128,11.6,13.627,14.587A16.762,16.762,0,0,0,408.139,242.794Z" transform="translate(-282.255 -169.469)" fill="#e5dfe9"/>
        <path id="Path_23846" data-name="Path 23846" d="M416.1,237.131a13.213,13.213,0,0,1-6.981,8.541,32.861,32.861,0,0,1-3.295-5.393,16.715,16.715,0,0,0,8.431-6.963Z" transform="translate(-276.699 -167.634)" fill="#e5dfe9"/>
        <g id="Group_9340" data-name="Group 9340" transform="translate(65.693 92.076)">
          <path id="Path_23847" data-name="Path 23847" d="M409.634,256.513v.009s-8.8,4.938-10.216,6.52-2.664,4-9.4,6.063a45.862,45.862,0,0,1-5.71,1.35c-5.883,1-13.212,1.045-19.217-2.343a17.081,17.081,0,0,0-7.673-6.363,61.649,61.649,0,0,0,7.946,1.232c.257.016.507.027.747.031.4.011.776.005,1.118-.018a3.907,3.907,0,0,1,1.373-1.13,20.892,20.892,0,0,1,4.98-.292l.958-.01c1.4-.021,2.962-.072,4.591-.208,1.438-.121,2.841-.286,4.113-.46.33-.043.653-.088.962-.134,2.267-.329,3.954-.642,4.369-.671a3.48,3.48,0,0,1,2.377.9c.117.1.181.168.181.168s.228-.08.633-.225c.758-.275,2.139-.781,3.811-1.44.232-.09.472-.186.716-.283.484-.193.986-.394,1.5-.608l.528-.219h0c1.274-.532,2.608-1.111,3.9-1.713.136-.063.275-.128.409-.194a36.946,36.946,0,0,0,5.409-3.018q.043.46.052.855a4.954,4.954,0,0,1-.582,2.961c-.03.043-.051.067-.059.079a4.2,4.2,0,0,1,.48-.256l.018-.009A9.018,9.018,0,0,1,409.634,256.513Z" transform="translate(-357.423 -253.455)" fill="url(#linear-gradient-11)"/>
          <path id="Path_23848" data-name="Path 23848" d="M408.1,254.309c-2.159,1.321-9.981,5.946-16.263,7.524l-.106,2.763c.008-.292-.073-3.447-6.527-2.414a100.018,100.018,0,0,1-13.389,1.12s1.819,8.013,12.5,7.152c-5.883,1-13.212,1.045-19.217-2.343a17.081,17.081,0,0,0-7.673-6.363,61.649,61.649,0,0,0,7.946,1.232c.257.016.507.027.747.031.4.011.776.005,1.118-.018a3.907,3.907,0,0,1,1.373-1.13,20.892,20.892,0,0,1,4.98-.292l.958-.01c1.4-.021,2.962-.072,4.591-.208,1.438-.121,2.841-.286,4.113-.46.33-.043.653-.088.962-.134,2.267-.329,3.954-.642,4.369-.671a3.48,3.48,0,0,1,2.377.9c.117.1.181.168.181.168s.228-.08.633-.225c.758-.275,2.139-.781,3.811-1.44.232-.09.472-.186.716-.283.484-.193.986-.394,1.5-.608l.528-.219h0c1.274-.532,2.608-1.111,3.9-1.713.136-.063.275-.128.409-.194a36.946,36.946,0,0,0,5.409-3.018Q408.087,253.915,408.1,254.309Z" transform="translate(-357.423 -253.455)" fill="url(#linear-gradient-12)"/>
          <g id="Group_9339" data-name="Group 9339" transform="translate(7.946 3.018)">
            <path id="Path_23849" data-name="Path 23849" d="M370.715,259.64l.013,8.6-.971-8.587Z" transform="translate(-361.538 -254.552)" fill="#5c479e"/>
            <path id="Path_23850" data-name="Path 23850" d="M378.091,259.028l-.374,8.768-.588-8.634C377.459,259.118,377.782,259.074,378.091,259.028Z" transform="translate(-359.249 -254.742)" fill="#5c479e"/>
            <path id="Path_23851" data-name="Path 23851" d="M364.233,260.754l-.5,3.613-.248-3.645C363.743,260.739,363.993,260.751,364.233,260.754Z" transform="translate(-363.486 -254.216)" fill="#5c479e"/>
            <path id="Path_23852" data-name="Path 23852" d="M383.408,265.585c-.024-2.493-.262-5.072-.4-6.368.117.1.181.168.181.168s.228-.08.633-.225A25.8,25.8,0,0,1,383.408,265.585Z" transform="translate(-357.422 -254.702)" fill="#5c479e"/>
            <path id="Path_23853" data-name="Path 23853" d="M387.256,257.844l-.371,5.351-.345-5.068C386.772,258.037,387.012,257.941,387.256,257.844Z" transform="translate(-356.326 -255.11)" fill="#5c479e"/>
            <path id="Path_23854" data-name="Path 23854" d="M388.76,257.213l-.273,3.962-.256-3.743Z" transform="translate(-355.8 -255.306)" fill="#5c479e"/>
            <path id="Path_23855" data-name="Path 23855" d="M392.018,255.758l-.212,3.085-.2-2.891C391.745,255.889,391.884,255.824,392.018,255.758Z" transform="translate(-354.752 -255.758)" fill="#5c479e"/>
          </g>
        </g>
        <g id="Group_9341" data-name="Group 9341" transform="translate(33.956 50.557)">
          <path id="Path_23856" data-name="Path 23856" d="M374.529,269.263c-4.466,1.341-9.734-9.073-18.381-8.276a28.724,28.724,0,0,0-8.407,2.5l.08-.065c.995-.765,2.81-1.911,4.211-2.771l.017-.008c.224-.1,2.675-1.181,7.536-.924C365.819,260.045,370.143,268.733,374.529,269.263Z" transform="translate(-328.693 -210.003)" fill="#aca5b5"/>
          <path id="Path_23857" data-name="Path 23857" d="M409.862,256.67c-12.161-1.528-23.674,10.612-23.674,10.612,5.013-6.478,9.427-9.368,12.393-10.658.145-.064.284-.122.421-.177l.018-.009a13.967,13.967,0,0,1,2.021-.647l.046-.009a6.547,6.547,0,0,1,1.391-.2h0A17.87,17.87,0,0,1,409.862,256.67Z" transform="translate(-316.752 -211.29)" fill="#aca5b5"/>
          <path id="Path_23858" data-name="Path 23858" d="M337.068,282.343l0,0,0,0Z" transform="translate(-332.008 -202.964)" fill="#aca5b5"/>
          <path id="Path_23859" data-name="Path 23859" d="M349.534,274.946a32.266,32.266,0,0,0-12.427,9.625,17.956,17.956,0,0,1,2.147-2.5s.426-1.477,1-3.6A48.145,48.145,0,0,1,349.534,274.946Z" transform="translate(-331.996 -205.261)" fill="#aca5b5"/>
          <path id="Path_23860" data-name="Path 23860" d="M337.076,291.147a23.665,23.665,0,0,1-3.869,6.763,15.743,15.743,0,0,1,1.307-1.824s-.026-.9.017-2.309A8.631,8.631,0,0,0,337.076,291.147Z" transform="translate(-333.207 -200.229)" fill="#aca5b5"/>
          <path id="Path_23861" data-name="Path 23861" d="M401.949,222.179c-.471.43-4.369,4.363-3.176,16.162,0,0-2.493-8.836.14-16.566a15.7,15.7,0,0,1,1.556,1.949A9.9,9.9,0,0,1,401.949,222.179Z" transform="translate(-313.175 -221.775)" fill="#c0b8cc"/>
          <path id="Path_23862" data-name="Path 23862" d="M400.964,222.069l-.016.012.008-.007Z" transform="translate(-312.168 -221.684)" fill="#aca5b5"/>
          <path id="Path_23863" data-name="Path 23863" d="M342.391,237.735a9,9,0,0,0-1.152-1.326A4.371,4.371,0,0,1,342.391,237.735Z" transform="translate(-330.712 -217.23)" fill="#aca5b5"/>
          <path id="Path_23864" data-name="Path 23864" d="M347.038,249.133c-1.887-6.077-3.632-9.339-4.894-11.076v0a6.557,6.557,0,0,1,.687-2.532C346.013,241.4,347.038,249.133,347.038,249.133Z" transform="translate(-330.431 -217.505)" fill="#aca5b5"/>
          <path id="Path_23865" data-name="Path 23865" d="M348.808,236.137a5.464,5.464,0,0,0-5.346-1.258,2.607,2.607,0,0,1,1.081-.523q.043-.419.1-.816A6.605,6.605,0,0,1,348.808,236.137Z" transform="translate(-330.022 -218.121)" fill="#aca5b5"/>
          <path id="Path_23866" data-name="Path 23866" d="M358.036,248.969a51.868,51.868,0,0,1-5.266,5.8c-.278-.885-.456-1.681-.456-1.681C351.835,253.411,358.036,248.969,358.036,248.969Z" transform="translate(-327.281 -213.329)" fill="#aca5b5"/>
          <path id="Path_23867" data-name="Path 23867" d="M394.915,241.564a15.551,15.551,0,0,1,.71,2.562,19.5,19.5,0,0,1-3.736-6.806,13.46,13.46,0,0,0,5.094,5.468C395.692,242.1,394.915,241.564,394.915,241.564Z" transform="translate(-314.982 -216.947)" fill="#aca5b5"/>
        </g>
        <path id="Path_23868" data-name="Path 23868" d="M364.858,252.546l1.961,2.921c-3.145,2.494-8.722,5.774-11.8,6.191s-4.976-.075-5.309-1.916c-.253-1.4,2.228-3.8,3.431-4.871.379-.336.633-.541.633-.541l.63,1.363s-3.634,3.748-1.193,4.194c.077.014.164.026.253.034,2.93.235,11.28-7.626,11.28-7.626" transform="translate(-294.131 -161.74)" fill="#34254c"/>
        <path id="Path_23869" data-name="Path 23869" d="M352.885,259.4h0s-2.236.182-2.142-1.482c.051-.911,1.117-2.384,2.072-3.535.379-.336.633-.541.633-.541l.63,1.363S350.444,258.958,352.885,259.4Z" transform="translate(-293.806 -161.257)" fill="#51347f"/>
        <path id="Path_23870" data-name="Path 23870" d="M403.736,251.563a9.1,9.1,0,0,1-3.158,2.583c-3.954,2.225-11.988.4-11.988.4l-.913-4.288s5.16,2.756,10.314,2.4a9.885,9.885,0,0,0,2.752-.528c1.771-.659,2.1-1.751,1.6-2.463-.689-.988-5.13-.21-5.13-.21l.106-3.591a19.8,19.8,0,0,1,3.881.633,4.423,4.423,0,0,1,2.473,1.419A3.018,3.018,0,0,1,403.736,251.563Z" transform="translate(-282.334 -163.733)" fill="#34254c"/>
        <path id="Path_23871" data-name="Path 23871" d="M400.639,251.413a4.379,4.379,0,0,1-2.993.575c3.372-1.01,1.341-4.394.459-5.63a4.423,4.423,0,0,1,2.473,1.419A3.018,3.018,0,0,1,400.639,251.413Z" transform="translate(-279.238 -163.583)" fill="#51347f"/>
        <g id="Group_9342" data-name="Group 9342" transform="translate(54.025 32.107)">
          <path id="Path_23872" data-name="Path 23872" d="M357.495,217.583s-6.111,2.736-5.389,16.36,11.979,20.728,11.979,20.728l.2,2.886s-8.679-2.722-13.576-13.782-1.069-24.786,6.612-27.589Z" transform="translate(-348.52 -205.06)" fill="url(#linear-gradient-13)"/>
          <path id="Path_23873" data-name="Path 23873" d="M383.6,210.9s7.85,2.985,11.276,13.731-2.695,18.208-8.791,22.973l1.972,4.63s10.742-6.533,11.824-18-6.895-22.109-14.861-26.538Z" transform="translate(-337.624 -207.697)" fill="url(#linear-gradient-14)"/>
          <path id="Path_23874" data-name="Path 23874" d="M397.98,260.868c-.042.619-5.448,1.56-7.545,1.945a233.085,233.085,0,0,1-25.945,3.24.691.691,0,0,1-.706-.481,120.906,120.906,0,0,1-4.6-21.137q-.407-3.195-.664-6.432a1.423,1.423,0,0,1,1.031-1.48,125.081,125.081,0,0,1,34.049-5.064,1.43,1.43,0,0,1,1.391,1.117C396.845,240.828,398.289,256.291,397.98,260.868Z" transform="translate(-345.416 -200.317)" fill="url(#linear-gradient-15)"/>
          <path id="Path_23875" data-name="Path 23875" d="M397.725,259.463c-.042.619-5.448,1.558-7.545,1.944a233.069,233.069,0,0,1-25.944,3.241.692.692,0,0,1-.708-.481,120.9,120.9,0,0,1-4.6-21.137q-.407-3.195-.663-6.432a1.422,1.422,0,0,1,1.03-1.48,125.082,125.082,0,0,1,34.049-5.064,1.43,1.43,0,0,1,1.391,1.117C396.59,239.423,398.035,254.884,397.725,259.463Z" transform="translate(-345.495 -200.753)" fill="url(#linear-gradient-16)"/>
          <path id="Path_23876" data-name="Path 23876" d="M390.022,258.332a232.922,232.922,0,0,1-25.589,3.216,1.14,1.14,0,0,1-1.169-.8,121.051,121.051,0,0,1-4.494-20.8C363.261,247.731,373.159,260.106,390.022,258.332Z" transform="translate(-345.337 -197.678)" fill="url(#linear-gradient-17)"/>
          <path id="Path_23877" data-name="Path 23877" d="M361.958,238.538s1.861,12.1,3.782,19.007l2.461-.375s-2.067-12.081-2.574-19.5Z" transform="translate(-344.347 -198.389)" fill="url(#linear-gradient-18)"/>
          <path id="Path_23878" data-name="Path 23878" d="M369.593,236.862s1.725,13.14,3.4,19.448l2.873-.4s-2.08-12.288-2.587-19.711Z" transform="translate(-341.975 -198.846)" fill="url(#linear-gradient-19)"/>
          <path id="Path_23879" data-name="Path 23879" d="M366.249,238.76s.516,4.522,1.139,7.587l2.461-.375-1.139-7.587A15.5,15.5,0,0,0,366.249,238.76Z" transform="translate(-343.014 -198.166)" fill="url(#linear-gradient-20)"/>
          <path id="Path_23880" data-name="Path 23880" d="M383.194,238.459a2.17,2.17,0,1,1-2.313-2.017A2.171,2.171,0,0,1,383.194,238.459Z" transform="translate(-339.098 -198.771)" fill="url(#linear-gradient-21)"/>
          <path id="Path_23881" data-name="Path 23881" d="M384.306,245.5a2.17,2.17,0,1,1-2.312-2.017A2.17,2.17,0,0,1,384.306,245.5Z" transform="translate(-338.752 -196.585)" fill="url(#linear-gradient-22)"/>
        </g>
        <path id="Path_23882" data-name="Path 23882" d="M388.73,225.538a4.444,4.444,0,1,1-4.736-4.131A4.444,4.444,0,0,1,388.73,225.538Z" transform="translate(-284.764 -171.336)" fill="url(#linear-gradient-23)"/>
        <path id="Path_23883" data-name="Path 23883" d="M358.245,235.017c2.029-.471,6.962-1.465,12.347-2.637a1.324,1.324,0,0,0,1.045-1.752l-1.026-3.389a1.051,1.051,0,0,0-1.2-.823c-2.431.4-8.738.816-12.627,2.117-.491.165-1.017.277-.727,1.869a29.052,29.052,0,0,0,.954,3.925A1.05,1.05,0,0,0,358.245,235.017Z" transform="translate(-292.18 -169.781)" fill="url(#linear-gradient-24)"/>
        <g id="Group_9343" data-name="Group 9343" transform="translate(49.966)">
          <path id="Path_23884" data-name="Path 23884" d="M355.368,219.907a20.806,20.806,0,0,0,2.114,4.869s21.172,9.743,37.669-9.612c0,0-1.135-4.481-2.512-6.459C392.638,208.705,382.733,225.041,355.368,219.907Z" transform="translate(-342.334 -175.277)" fill="url(#linear-gradient-25)"/>
          <path id="Path_23885" data-name="Path 23885" d="M350.415,202.369s-4.183,2.367-4.781,2.813c-1.3.971,3.739,15.09,5.591,15.156a25.377,25.377,0,0,0,4.878-1.316Z" transform="translate(-345.423 -177.245)" fill="url(#linear-gradient-26)"/>
          <path id="Path_23886" data-name="Path 23886" d="M348.579,205.784a.827.827,0,1,1-.882-.768A.826.826,0,0,1,348.579,205.784Z" transform="translate(-344.956 -176.424)" fill="#c8b8d3"/>
          <path id="Path_23887" data-name="Path 23887" d="M381.685,192.168s4.768-.6,5.514-.6c1.62,0,6.023,14.332,4.577,15.491a25.308,25.308,0,0,1-4.7,1.861Z" transform="translate(-334.161 -180.601)" fill="url(#linear-gradient-27)"/>
          <path id="Path_23888" data-name="Path 23888" d="M384.485,194.294a.827.827,0,1,0,.248-1.143A.828.828,0,0,0,384.485,194.294Z" transform="translate(-333.332 -180.149)" fill="#c8b8d3"/>
          <path id="Path_23889" data-name="Path 23889" d="M357.636,188.6l-.509-1.695c3.119-2.43,7.078-3.607,11.762-3.7l.979,2.212Z" transform="translate(-341.788 -183.199)" fill="url(#linear-gradient-28)"/>
          <path id="Path_23890" data-name="Path 23890" d="M397.816,213.789l-10.36,3.341-31.193,10.057c-12.077-13.055-9.192-34.37,6.743-40.855.738-.3,1.473-.565,2.208-.8l.009,0C382.764,180.017,399.237,193.813,397.816,213.789Z" transform="translate(-344.368 -182.854)" fill="url(#linear-gradient-29)"/>
          <path id="Path_23891" data-name="Path 23891" d="M387.456,216.839,356.263,226.9c-12.077-13.055-9.192-34.37,6.743-40.855.738-.3,1.473-.565,2.208-.8-10.673,4.432-11.621,11.588-2.086,8.659s16.385-1.08,16.385-1.08Z" transform="translate(-344.368 -182.563)" fill="url(#linear-gradient-30)"/>
          <path id="Path_23892" data-name="Path 23892" d="M396.052,206.8A25.549,25.549,0,0,1,377.3,223.412c-15.09,3.515-22.8-3.211-22.8-3.211Z" transform="translate(-342.604 -175.868)" fill="url(#linear-gradient-31)"/>
          <path id="Path_23893" data-name="Path 23893" d="M396.841,211.814a31.542,31.542,0,0,1-9,9.168c-6.688,4.58-17.308,8.359-32.548,4.231-6.629-12.456-2.793-25.057,6.573-31.053a21.646,21.646,0,0,1,2.2-1.24C375.63,187.272,392.989,191.775,396.841,211.814Z" transform="translate(-343.393 -180.879)" fill="url(#linear-gradient-32)"/>
          <path id="Path_23894" data-name="Path 23894" d="M387.836,220.154c-6.688,4.58-17.308,8.359-32.548,4.231-6.629-12.456-2.793-25.057,6.573-31.053-1.2,2.938-2.769,8.844-1.465,17.862,1.959,13.538,11.33,17.585,27.429,8.966Z" transform="translate(-343.393 -180.052)" fill="url(#linear-gradient-33)"/>
          <path id="Path_23895" data-name="Path 23895" d="M366.095,192.406s12.912-2.206,20.12,9.672a2.112,2.112,0,0,1-.577,2.823h0a2.107,2.107,0,0,1-3.051-.679A24.4,24.4,0,0,0,366.095,192.406Z" transform="translate(-339.003 -180.39)" fill="url(#linear-gradient-34)"/>
          <path id="Path_23896" data-name="Path 23896" d="M383.81,204.161a1.654,1.654,0,1,1-2.258-.609A1.655,1.655,0,0,1,383.81,204.161Z" transform="translate(-334.46 -176.946)" fill="url(#linear-gradient-35)"/>
        </g>
        <g id="Group_9344" data-name="Group 9344" transform="translate(36.64 49.252)">
          <path id="Path_23897" data-name="Path 23897" d="M406.8,277.626c-.712,1.36-1.73,1.983-2.692,3.25h0a80.475,80.475,0,0,0-8.768,14.217,34.888,34.888,0,0,1-2.712-4.215v0a34.089,34.089,0,0,1,4.058-9.489A37.335,37.335,0,0,0,406.8,277.626Z" transform="translate(-317.435 -203.123)" fill="#2d2244"/>
          <path id="Path_23898" data-name="Path 23898" d="M422.291,272.176a30.44,30.44,0,0,0-19.142,11.536c.771-1.047,1.6-1.449,2.307-2.81a39.305,39.305,0,0,1-9.728,3.322,38.866,38.866,0,0,1,3.9-5.307c7.11-8.149,19.176-10.423,19.176-10.423A13.746,13.746,0,0,1,422.291,272.176Z" transform="translate(-316.474 -205.959)" fill="url(#linear-gradient-36)"/>
          <path id="Path_23899" data-name="Path 23899" d="M363.119,294.32c-.16.051-.248.075-.248.075-.313,1.754-.642,3.335-.984,4.768a29.882,29.882,0,0,0-4.991-5.835c.295-.24.592-.459.886-.657a16,16,0,0,0,2.334-1.925C361.474,292.245,362.505,293.53,363.119,294.32Z" transform="translate(-328.534 -199.049)" fill="#2d2244"/>
          <path id="Path_23900" data-name="Path 23900" d="M366.837,293.664a16,16,0,0,1-2.334,1.925c-.294.2-.591.417-.886.657a43.279,43.279,0,0,0-8.169-5.84,28.049,28.049,0,0,0-20.193-3.224,16.248,16.248,0,0,1,1.1-2.49,19.317,19.317,0,0,1,1.28-2.039h0l0,0,.047-.067.031-.045.014-.017.014-.02.046-.066c.035-.049.069-.1.106-.142s.068-.094.1-.138c.125-.164.246-.321.367-.469.721-.1,1.56-.2,2.491-.262a27.585,27.585,0,0,1,13.3,2.233C359.269,286.018,363.841,290.36,366.837,293.664Z" transform="translate(-335.255 -201.966)" fill="url(#linear-gradient-37)"/>
          <path id="Path_23901" data-name="Path 23901" d="M409.882,244.022a15.682,15.682,0,0,1-1.708.752,10.358,10.358,0,0,1-1.324.4,34.81,34.81,0,0,1-3.5-5.862,13.764,13.764,0,0,0,3.237-.68A32.861,32.861,0,0,0,409.882,244.022Z" transform="translate(-314.106 -215.235)" fill="#2d2244"/>
          <path id="Path_23902" data-name="Path 23902" d="M407.4,244.173a13.766,13.766,0,0,1-3.237.68,38.5,38.5,0,0,1-2.853-22.613h0a12.6,12.6,0,0,1,2.343-1.461,41.1,41.1,0,0,0,2.183,19.811C406.345,241.912,406.873,243.1,407.4,244.173Z" transform="translate(-314.919 -220.779)" fill="url(#linear-gradient-38)"/>
          <path id="Path_23903" data-name="Path 23903" d="M345.3,249.943a23.066,23.066,0,0,1-2.413,6.789,18.1,18.1,0,0,1-5.063.242,21.321,21.321,0,0,0,3.9-6.213A12.352,12.352,0,0,0,345.3,249.943Z" transform="translate(-334.457 -211.721)" fill="#2d2244"/>
          <path id="Path_23904" data-name="Path 23904" d="M344.376,254.485a12.351,12.351,0,0,1-3.578.818c3.034-7.388,1.658-15.213.92-18.254a3.928,3.928,0,0,1,.81,1.025v0c.02.038.029.06.029.06a.04.04,0,0,1,0-.017v0a6.557,6.557,0,0,1,.687-2.532c.05-.093.1-.181.153-.266C345.439,243.727,345.27,250.009,344.376,254.485Z" transform="translate(-333.533 -216.263)" fill="url(#linear-gradient-39)"/>
        </g>
        <path id="Path_23905" data-name="Path 23905" d="M358.343,234.377c2.029-.471,7.187-1.645,12.347-2.637a1.05,1.05,0,0,0,.83-1.245l-.811-3.9a1.05,1.05,0,0,0-1.2-.823,99.051,99.051,0,0,0-12.658,2.811,1.048,1.048,0,0,0-.7,1.174,28.044,28.044,0,0,0,.954,3.925A1.051,1.051,0,0,0,358.343,234.377Z" transform="translate(-292.128 -169.98)" fill="url(#linear-gradient-40)"/>
        <g id="Group_9345" data-name="Group 9345" transform="translate(5.834 44.099)">
          <path id="Path_23906" data-name="Path 23906" d="M339.148,259.016a16.386,16.386,0,0,1-5.892,1.138,15.744,15.744,0,0,1-6.976-1.5,1.947,1.947,0,0,1-.806.726l-.012.008c-.817.457-2.388.894-5.312.514-5.225-.68-7.072-3.455-7.006-5.531a1.706,1.706,0,0,1,.89-1.376l.007,0c1.309-.843,3.705-1.007,4.736-1.077,1.443-.1,1.828-.539,1.139-1.527a.859.859,0,0,0-.122-.139c-.872-.852-3.76-.891-5.394-1.764-1.719-.919-2.7-3.131-2.647-5.413.026-1.124,1.039-1.763,2.393-1.97a8.551,8.551,0,0,1,4.561.667c2.78,1.261,3.782.777,3.89-.68.077-1.033-2.059-2.436-4.016-3.782a24.954,24.954,0,0,1-2.152-1.6c-1.982-1.729-.777-5.333,2.7-5.984a2.751,2.751,0,0,1,1.025,0h0c2.715.526,3.874,5.2,5.5,4.531,1.813-.744.463-2.311-1.988-4.836-.321-.333-.651-.693-.974-1.075-2.136-2.531-3.993-5.978-1.6-7.761a2.464,2.464,0,0,1,1.987-.384c3.042.549,7.368,5.128,9.907,10.76a25.721,25.721,0,0,0,2.189,4.1c.955,1.353,1.4,1.18,1.574.974a.516.516,0,0,0,.094-.159c.659-.978,1.062-7.22,1.413-11.181.058-.641.131-1.263.225-1.856.491-3.065,1.515-5.372,3.393-5.848a4.053,4.053,0,0,1,.927-.136c1.63-.028,2.5,1.284,2.887,4.434a12.335,12.335,0,0,1,.067,2.249c-.161,2.683-1.06,5.076-1.013,8.173.062,3.932,2.418,8.122,3.182,13.249S346.21,256.256,339.148,259.016Z" transform="translate(-311.75 -216.848)" fill="url(#linear-gradient-41)"/>
          <path id="Path_23907" data-name="Path 23907" d="M325.011,225.3c-.262,2.221-2.679,2.393-4.269,2.257-.235-.277-.464-.564-.684-.858-1.807-2.4-3.047-5.313-.912-6.9a2.464,2.464,0,0,1,1.987-.384c.655.8,1.991,1.815,2.913,3.035A3.97,3.97,0,0,1,325.011,225.3Z" transform="translate(-309.802 -216.068)" fill="url(#linear-gradient-42)"/>
          <path id="Path_23908" data-name="Path 23908" d="M321.882,231.406a3.663,3.663,0,0,1-4.185,2.858c-.674-.463-1.326-.92-1.86-1.351-.1-.083-.2-.165-.292-.246-1.982-1.729-.777-5.333,2.7-5.984a2.751,2.751,0,0,1,1.025,0h0a16.534,16.534,0,0,1,2.016,2.587l0,0A2.984,2.984,0,0,1,321.882,231.406Z" transform="translate(-310.867 -213.809)" fill="url(#linear-gradient-43)"/>
          <path id="Path_23909" data-name="Path 23909" d="M320.946,244.567a3.653,3.653,0,0,1-1.153-.068c-.7-.17-1.333-.32-1.924-.476a15.382,15.382,0,0,1-3.47-1.288c-1.719-.919-2.7-3.131-2.647-5.413.026-1.124,1.039-1.763,2.393-1.97a15.174,15.174,0,0,0,3.864,2.579c.377.138.776.3,1.169.48,1.6.726,3.166,1.75,3.4,2.73C322.868,242.364,322.788,244.234,320.946,244.567Z" transform="translate(-311.75 -211.101)" fill="url(#linear-gradient-44)"/>
          <path id="Path_23910" data-name="Path 23910" d="M325.143,250.855l-.012.008a7.9,7.9,0,0,1-4.573.595c-.236-.021-.482-.047-.739-.081-5.225-.68-7.072-3.455-7.006-5.531a1.706,1.706,0,0,1,.89-1.376l.007,0c.125-.05,2.216-.826,7.174,1.242l.436.186C326.073,247.931,327.228,249.355,325.143,250.855Z" transform="translate(-311.42 -208.326)" fill="url(#linear-gradient-45)"/>
          <path id="Path_23911" data-name="Path 23911" d="M328.628,245.246c-.134-.254-4.078-7.886,1.75-14.507.955,1.353,1.4,1.18,1.574.974l.123.253S326.6,239.79,328.628,245.246Z" transform="translate(-306.951 -212.533)" fill="url(#linear-gradient-46)"/>
          <path id="Path_23912" data-name="Path 23912" d="M334.051,259.016a16.386,16.386,0,0,1-5.892,1.138c12.7-2.9,11.1-14.786,9.578-18.479a22.944,22.944,0,0,1,.127-16.374c1.668-4.528.552-7.3-.159-8.452,1.63-.028,2.5,1.284,2.887,4.434a12.334,12.334,0,0,1,.067,2.249c-.161,2.683-1.06,5.076-1.013,8.173.062,3.932,2.418,8.122,3.182,13.249S341.114,256.256,334.051,259.016Z" transform="translate(-306.653 -216.848)" fill="url(#linear-gradient-47)"/>
          <path id="Path_23913" data-name="Path 23913" d="M339.421,223.531a7.336,7.336,0,0,1-7.274-.7c.491-3.065,1.515-5.372,3.393-5.848,2.24-.567,3.355.6,3.814,4.3A12.335,12.335,0,0,1,339.421,223.531Z" transform="translate(-305.414 -216.848)" fill="url(#linear-gradient-48)"/>
          <path id="Path_23914" data-name="Path 23914" d="M324.528,224.576c-.262,2.221-4.435,3.305-4.953,1.4.418-4.106,2.744-4.4,3.988-4.252A3.97,3.97,0,0,1,324.528,224.576Z" transform="translate(-309.319 -215.342)" fill="url(#linear-gradient-49)"/>
          <path id="Path_23915" data-name="Path 23915" d="M321.642,231.018c-.092,3.305-4.82,3.747-6.044,1.507a3.394,3.394,0,0,1,.528-3.409c2.056-2.574,4.809-.334,4.922-.239l0,0A3.967,3.967,0,0,1,321.642,231.018Z" transform="translate(-310.628 -213.42)" fill="url(#linear-gradient-50)"/>
          <path id="Path_23916" data-name="Path 23916" d="M319.558,243.842a3.653,3.653,0,0,1-1.153-.068c-.7-.17-1.333-.32-1.924-.476a5.577,5.577,0,0,1,1.308-5.612c1.6.726,3.166,1.75,3.4,2.73C321.48,241.639,321.4,243.509,319.558,243.842Z" transform="translate(-310.361 -210.376)" fill="url(#linear-gradient-51)"/>
          <path id="Path_23917" data-name="Path 23917" d="M323.47,250.473l-.012.008a7.9,7.9,0,0,1-4.573.6,4.362,4.362,0,0,1-.552-3.409,3.842,3.842,0,0,1,1.313-2.153C324.4,247.549,325.555,248.973,323.47,250.473Z" transform="translate(-309.746 -207.945)" fill="url(#linear-gradient-52)"/>
        </g>
        <g id="Group_9346" data-name="Group 9346" transform="translate(123.625 30.603)">
          <path id="Path_23918" data-name="Path 23918" d="M415.108,247.9a16.385,16.385,0,0,0,6,.021,15.745,15.745,0,0,0,6.575-2.773,1.942,1.942,0,0,0,.927.564l.013,0c.887.3,2.512.435,5.316-.482,5.008-1.64,6.305-4.709,5.856-6.736a1.7,1.7,0,0,0-1.131-1.186h-.007c-1.444-.586-3.828-.3-4.854-.178-1.436.172-1.9-.19-1.4-1.29a.905.905,0,0,1,.094-.159c.7-1,3.529-1.575,4.972-2.736,1.519-1.221,2.071-3.578,1.6-5.81-.236-1.1-1.35-1.54-2.717-1.49a8.538,8.538,0,0,0-4.359,1.5c-2.5,1.755-3.571,1.467-3.947.055-.267-1,1.57-2.777,3.242-4.463a25.169,25.169,0,0,0,1.816-1.97c1.626-2.068-.227-5.385-3.765-5.379a2.743,2.743,0,0,0-1.008.187h0c-2.571,1.021-2.84,5.826-4.558,5.473-1.92-.395-.886-2.183,1.054-5.12.253-.387.511-.8.758-1.238,1.628-2.883,2.811-6.616.125-7.922a2.471,2.471,0,0,0-2.024-.008c-2.887,1.1-6.287,6.409-7.734,12.415a25.852,25.852,0,0,1-1.387,4.436c-.688,1.506-1.157,1.418-1.366,1.25a.523.523,0,0,1-.123-.14c-.828-.837-2.385-6.9-3.466-10.722-.177-.62-.364-1.218-.567-1.782-1.052-2.919-2.487-5-4.421-5.114a4.071,4.071,0,0,0-.936.038c-1.608.275-2.215,1.726-2.013,4.894a12.24,12.24,0,0,0,.353,2.221c.658,2.607,1.986,4.79,2.515,7.842.671,3.875-.866,8.43-.663,13.609S407.656,246.5,415.108,247.9Z" transform="translate(-401.626 -206.55)" fill="url(#linear-gradient-53)"/>
          <path id="Path_23919" data-name="Path 23919" d="M416.412,213.269c.671,2.135,3.077,1.853,4.615,1.423.178-.315.35-.638.512-.97,1.328-2.7,2.005-5.788-.388-6.953a2.471,2.471,0,0,0-2.024-.008c-.5.911-1.618,2.155-2.3,3.524A3.961,3.961,0,0,0,416.412,213.269Z" transform="translate(-397.078 -206.55)" fill="url(#linear-gradient-54)"/>
          <path id="Path_23920" data-name="Path 23920" d="M420.745,218.613a3.666,3.666,0,0,0,4.643,2.031c.575-.582,1.132-1.152,1.575-1.675.085-.1.165-.2.241-.295,1.626-2.068-.227-5.385-3.765-5.379a2.743,2.743,0,0,0-1.008.187h0a16.568,16.568,0,0,0-1.5,2.916l0,.005A2.985,2.985,0,0,0,420.745,218.613Z" transform="translate(-395.734 -204.455)" fill="url(#linear-gradient-55)"/>
          <path id="Path_23921" data-name="Path 23921" d="M424.857,231.438a3.693,3.693,0,0,0,1.119-.282c.655-.3,1.25-.561,1.8-.826a15.325,15.325,0,0,0,3.17-1.911c1.519-1.221,2.071-3.578,1.6-5.81-.236-1.1-1.35-1.54-2.717-1.49a15.224,15.224,0,0,1-3.317,3.252c-.346.206-.708.439-1.06.689-1.436,1.009-2.786,2.308-2.832,3.314C422.56,229.631,422.985,231.454,424.857,231.438Z" transform="translate(-395.109 -202.026)" fill="url(#linear-gradient-56)"/>
          <path id="Path_23922" data-name="Path 23922" d="M422.515,238.427l.013,0a7.892,7.892,0,0,0,4.6-.265q.342-.1.712-.218c5.008-1.64,6.305-4.709,5.856-6.736a1.7,1.7,0,0,0-1.131-1.186h-.007c-.132-.026-2.331-.4-6.818,2.554-.135.089-.266.177-.394.263C421.057,235.727,420.187,237.339,422.515,238.427Z" transform="translate(-395.53 -199.268)" fill="url(#linear-gradient-57)"/>
          <path id="Path_23923" data-name="Path 23923" d="M416.249,233.5c.084-.274,2.541-8.506-4.415-13.928-.688,1.506-1.157,1.418-1.366,1.25l-.075.27S417.222,227.761,416.249,233.5Z" transform="translate(-398.904 -202.506)" fill="url(#linear-gradient-58)"/>
          <path id="Path_23924" data-name="Path 23924" d="M415.108,247.757a16.384,16.384,0,0,0,6,.021c-13.015-.484-13.651-12.464-12.848-16.376a22.94,22.94,0,0,0-3.168-16.065c-2.484-4.139-1.9-7.071-1.417-8.334-1.608.275-2.215,1.726-2.013,4.894a12.24,12.24,0,0,0,.353,2.221c.658,2.607,1.986,4.79,2.515,7.842.671,3.875-.866,8.43-.663,13.609S407.656,246.357,415.108,247.757Z" transform="translate(-401.626 -206.409)" fill="url(#linear-gradient-59)"/>
          <path id="Path_23925" data-name="Path 23925" d="M402.016,214.13a7.332,7.332,0,0,0,7.017-2.039c-1.052-2.919-2.487-5-4.421-5.114-2.307-.142-3.185,1.212-2.949,4.932A12.24,12.24,0,0,0,402.016,214.13Z" transform="translate(-401.626 -206.421)" fill="url(#linear-gradient-60)"/>
          <path id="Path_23926" data-name="Path 23926" d="M416.412,212.426c.671,2.135,4.972,2.423,5.127.453-1.174-3.957-3.516-3.812-4.709-3.436A3.961,3.961,0,0,0,416.412,212.426Z" transform="translate(-397.078 -205.707)" fill="url(#linear-gradient-61)"/>
          <path id="Path_23927" data-name="Path 23927" d="M420.729,218.234c.7,3.231,5.432,2.786,6.219.356a3.392,3.392,0,0,0-1.152-3.252c-2.5-2.147-4.788.566-4.882.681l0,.005A3.965,3.965,0,0,0,420.729,218.234Z" transform="translate(-395.719 -204.076)" fill="url(#linear-gradient-62)"/>
          <path id="Path_23928" data-name="Path 23928" d="M424.857,230.5a3.694,3.694,0,0,0,1.119-.282c.655-.3,1.25-.561,1.8-.826a5.573,5.573,0,0,0-2.329-5.27c-1.436,1.009-2.786,2.308-2.832,3.314C422.56,228.7,422.985,230.519,424.857,230.5Z" transform="translate(-395.109 -201.091)" fill="url(#linear-gradient-63)"/>
          <path id="Path_23929" data-name="Path 23929" d="M422.515,237.752l.013,0a7.892,7.892,0,0,0,4.6-.265,4.367,4.367,0,0,0-.092-3.452,3.834,3.834,0,0,0-1.691-1.872C421.057,235.053,420.187,236.665,422.515,237.752Z" transform="translate(-395.53 -198.594)" fill="url(#linear-gradient-64)"/>
        </g>
        <g id="Group_9348" data-name="Group 9348" transform="translate(124.846 130.717)">
          <path id="Path_23930" data-name="Path 23930" d="M404.01,338.8s-1.8-5.962-1.392-9.1,18.351-46.827,41.764-46.767Z" transform="translate(-402.558 -282.939)" fill="#aca5b5"/>
          <path id="Path_23931" data-name="Path 23931" d="M409.249,353.885s-5.234-4.177-5.717-17.934,27.53-61.656,44.579-51.633Z" transform="translate(-402.257 -282.935)" fill="url(#linear-gradient-65)"/>
          <path id="Path_23932" data-name="Path 23932" d="M451.848,301.408c0,.561-.02,1.132-.042,1.716a85.774,85.774,0,0,1-.861,9.246q-.118.816-.256,1.653c-.467,2.857-1.087,5.845-1.879,8.934-.138.53-.278,1.063-.425,1.6a110.292,110.292,0,0,1-3.493,10.6q-.3.769-.609,1.544c-1.233,3.06-2.642,6.166-4.241,9.292-.254.5-.512.993-.776,1.493q-2.135,4.022-4.706,8.067c-.14.223-.284.446-.429.67l0,0c-.353.212-.705.413-1.062.6-12.407,6.549-27.361-1.951-27.419-8.19,0-.062,0-.13.005-.2a13.882,13.882,0,0,1,.218-1.664c.356-1.982,1.115-5.093,2.183-8.84.147-.516.3-1.05.461-1.591.872-2.966,1.912-6.254,3.075-9.647.178-.518.36-1.039.543-1.564,1.224-3.487,2.57-7.047,3.989-10.451.214-.514.431-1.026.647-1.531,1.279-2.971,2.609-5.79,3.961-8.3.273-.5.548-1,.82-1.478.33-.575.661-1.132.991-1.664a70.285,70.285,0,0,1,4.318-6.22c.371-.474.743-.94,1.117-1.388a41.114,41.114,0,0,1,8.532-7.976q.963-.645,1.9-1.149c3.4-1.84,6.517-2.325,9-1.329,1.214.488,2.3,2.25,3.1,5.034.168.581.321,1.207.459,1.873A50.9,50.9,0,0,1,451.848,301.408Z" transform="translate(-401.599 -282.878)" fill="url(#linear-gradient-66)"/>
          <g id="Group_9347" data-name="Group 9347" transform="translate(4.053 2.093)">
            <path id="Path_23933" data-name="Path 23933" d="M443.655,290.114l-14.461-4.428q.963-.645,1.9-1.149l12.1,3.705C443.364,288.822,443.517,289.448,443.655,290.114Z" transform="translate(-398.339 -284.536)" fill="#988ca5"/>
            <path id="Path_23934" data-name="Path 23934" d="M446.821,298.811c0,.561-.02,1.132-.042,1.716l-24.947-7.639c.371-.474.743-.94,1.117-1.388Z" transform="translate(-400.626 -282.373)" fill="#988ca5"/>
            <path id="Path_23935" data-name="Path 23935" d="M447.37,307.575q-.118.816-.256,1.653l-29.96-9.175c.273-.5.548-1,.82-1.478Z" transform="translate(-402.078 -280.176)" fill="#988ca5"/>
            <path id="Path_23936" data-name="Path 23936" d="M446.327,315.845c-.138.529-.278,1.063-.425,1.6l-32.264-9.879c.214-.514.431-1.026.647-1.531Z" transform="translate(-403.17 -277.859)" fill="#988ca5"/>
            <path id="Path_23937" data-name="Path 23937" d="M443.484,325.207q-.3.769-.609,1.544L410.181,316.74c.178-.518.36-1.039.543-1.563Z" transform="translate(-404.244 -275.02)" fill="#988ca5"/>
            <path id="Path_23938" data-name="Path 23938" d="M439.472,333.386c-.254.5-.512.993-.776,1.493l-31.213-9.558c.147-.516.3-1.05.461-1.591Z" transform="translate(-405.082 -272.363)" fill="#988ca5"/>
            <path id="Path_23939" data-name="Path 23939" d="M434.558,340.474c-.14.223-.284.446-.429.67l0,0c-.353.212-.705.413-1.062.6l-27.413-8.394a13.882,13.882,0,0,1,.218-1.664Z" transform="translate(-405.651 -269.891)" fill="#988ca5"/>
          </g>
        </g>
        <g id="Group_9350" data-name="Group 9350" transform="translate(0 175.064)">
          <path id="Path_23940" data-name="Path 23940" d="M376.065,339.83s-2.346-5.769-4.633-7.953-43.693-24.906-61.872-10.152Z" transform="translate(-306.595 -316.776)" fill="#aca5b5"/>
          <path id="Path_23941" data-name="Path 23941" d="M381.769,354.826s1.448-6.538-6.818-17.546S314.8,306.6,307.83,325.111Z" transform="translate(-307.133 -316.553)" fill="url(#linear-gradient-67)"/>
          <path id="Path_23942" data-name="Path 23942" d="M315.348,340.723q.535.651,1.111,1.309a85.967,85.967,0,0,0,6.478,6.653c.4.373.815.75,1.237,1.124,2.157,1.93,4.518,3.866,7.073,5.772.44.325.885.653,1.337.978a110.258,110.258,0,0,0,9.377,6.055q.714.413,1.444.818c2.882,1.607,5.929,3.139,9.136,4.566.511.228,1.024.452,1.543.674q4.187,1.791,8.728,3.321c.249.085.5.168.754.25h.007q.609-.083,1.2-.2c13.769-2.7,20.064-18.707,16.19-23.6-.039-.048-.084-.1-.132-.157a14.077,14.077,0,0,0-1.215-1.157c-1.523-1.318-4.068-3.263-7.251-5.506-.44-.311-.9-.628-1.359-.949-2.541-1.76-5.417-3.664-8.453-5.575-.464-.291-.933-.582-1.4-.875-3.144-1.945-6.427-3.869-9.669-5.625-.489-.266-.979-.527-1.465-.785-2.861-1.508-5.667-2.866-8.295-3.967-.528-.223-1.052-.434-1.567-.636-.617-.241-1.225-.467-1.816-.674a70.23,70.23,0,0,0-7.266-2.126c-.588-.136-1.169-.263-1.742-.377a41.047,41.047,0,0,0-11.648-.848q-1.154.1-2.2.3c-3.8.7-6.533,2.284-7.839,4.62-.64,1.141-.379,3.2.751,5.864q.352.837.819,1.746A51.014,51.014,0,0,0,315.348,340.723Z" transform="translate(-307.298 -316.064)" fill="url(#linear-gradient-68)"/>
          <g id="Group_9349" data-name="Group 9349" transform="translate(1.093 3.128)">
            <path id="Path_23943" data-name="Path 23943" d="M308.951,331.693l8.47-12.53q-1.154.1-2.2.3l-7.088,10.483Q308.484,330.785,308.951,331.693Z" transform="translate(-308.132 -319.163)" fill="#988ca5"/>
            <path id="Path_23944" data-name="Path 23944" d="M313.44,340.494q.535.651,1.111,1.309l14.612-21.615c-.588-.136-1.169-.263-1.742-.377Z" transform="translate(-306.483 -318.962)" fill="#988ca5"/>
            <path id="Path_23945" data-name="Path 23945" d="M319.231,347.7c.4.374.815.75,1.237,1.124l17.546-25.957c-.528-.223-1.052-.434-1.567-.636Z" transform="translate(-304.685 -318.209)" fill="#988ca5"/>
            <path id="Path_23946" data-name="Path 23946" d="M325.572,353.508c.44.325.885.653,1.337.978l18.9-27.955c-.489-.266-.979-.527-1.465-.785Z" transform="translate(-302.715 -317.118)" fill="#988ca5"/>
            <path id="Path_23947" data-name="Path 23947" d="M333.747,359.022q.714.413,1.444.818l19.148-28.327c-.464-.291-.933-.582-1.4-.875Z" transform="translate(-300.176 -315.599)" fill="#988ca5"/>
            <path id="Path_23948" data-name="Path 23948" d="M341.82,362.877c.511.228,1.024.452,1.543.674l18.281-27.042c-.44-.311-.9-.628-1.359-.949Z" transform="translate(-297.669 -314.071)" fill="#988ca5"/>
            <path id="Path_23949" data-name="Path 23949" d="M349.657,365.342c.249.085.5.168.754.25h.007q.609-.083,1.2-.2l16.057-23.753a14.071,14.071,0,0,0-1.215-1.157Z" transform="translate(-295.235 -312.541)" fill="#988ca5"/>
          </g>
        </g>
      </g>
      <path id="Path_23950" data-name="Path 23950" d="M481.513,321.587c-.138-.666-.291-1.292-.459-1.873-.794-2.784-1.885-4.546-3.1-5.034a7.351,7.351,0,0,0-2.773-.5,9.728,9.728,0,0,0-1.259-.2l.045-.062c-.279,0-.556.007-.834.018a12.252,12.252,0,0,0-3.316.426c-5.207,1.119-10.089,4.271-14.5,8.443-.317-2.687-.928-8-1.43-13.215a23.429,23.429,0,0,0-4.134-10.921,13.746,13.746,0,0,0-3.491-3.681s-3.346-12.616-11.215-15.6c-.151-.059-.3-.113-.446-.165-.079-.029-.157-.055-.233-.083l-.007,0a17.869,17.869,0,0,0-7.383-1.085h0a6.542,6.542,0,0,0-1.391.2l-.046.009c-.117.025-.231.049-.341.075a9.106,9.106,0,0,0-1.68.573l-.018.009c-.136.055-.275.113-.421.177l.035-.054.034-.055.008-.014c.013-.02.025-.043.038-.067l.009-.018.041-.08.011-.024c.013-.03.028-.06.042-.094l.009-.024c.014-.035.03-.073.045-.113l.005-.017a4.52,4.52,0,0,0,.182-.668l.008-.039c.009-.055.02-.114.029-.173l.011-.071c.009-.058.017-.118.024-.18l.01-.088c.007-.063.012-.126.017-.193l.008-.1c0-.069.008-.139.012-.212l0-.094c0-.079.005-.157.005-.241v-.047c0-.215-.005-.443-.02-.689-.009-.148-.02-.3-.035-.464-.027-.283-.066-.587-.114-.91a7.7,7.7,0,0,0,2.043-.754,9.1,9.1,0,0,0,3.159-2.583,3.018,3.018,0,0,0-.062-3.636,4.423,4.423,0,0,0-2.473-1.419,19.657,19.657,0,0,0-3.843-.63,26.308,26.308,0,0,0-.333-3.9c-.029-.17-.059-.342-.09-.512h0a15.548,15.548,0,0,0-.71-2.562s.777.533,2.068,1.224c.073.043.138.077.191.107.024.01.047.024.071.037.076.041.115.058.115.058v0c2.993,1.558,8.258,3.693,13.048,2.586a10.358,10.358,0,0,0,1.324-.4,15.68,15.68,0,0,0,1.708-.752,13.644,13.644,0,0,0,5.987-5.9,16.356,16.356,0,0,0,4.7-.166,15.744,15.744,0,0,0,6.575-2.773,1.942,1.942,0,0,0,.927.564l.013,0c.054.018.11.035.169.052l.05.013c.043.012.088.024.135.034l.068.014c.043.009.088.018.134.026l.08.013c.046.008.092.014.14.021l.089.01c.048.007.1.012.151.016l.1.008.165.009.1,0h.183c.033,0,.066,0,.1,0,.068,0,.139,0,.21-.005l.094,0c.081-.005.167-.01.253-.018l.072-.005c.228-.021.472-.051.73-.093h.008c.125-.021.253-.045.384-.071l.09-.018c.107-.022.215-.046.325-.071l.126-.03c.1-.025.207-.05.314-.079l.147-.039.191-.052c.054-.014.109-.031.163-.047l.064-.02c.159-.047.319-.1.484-.151,5.009-1.64,6.306-4.709,5.857-6.736a1.7,1.7,0,0,0-1.131-1.186h-.007c-1.444-.586-3.828-.3-4.854-.178-1.436.172-1.9-.19-1.4-1.29a.909.909,0,0,1,.094-.159c.655-.3,1.25-.561,1.8-.826a15.325,15.325,0,0,0,3.17-1.911c1.519-1.221,2.071-3.578,1.595-5.81-.236-1.1-1.35-1.54-2.717-1.49a8.538,8.538,0,0,0-4.359,1.5c-2.5,1.755-3.571,1.467-3.947.055-.267-1,1.57-2.777,3.242-4.463l.113-.115a2.7,2.7,0,0,0,1.463-1.56l.021-.026c.077-.092.151-.181.22-.269,1.626-2.068-.227-5.385-3.765-5.379a2.743,2.743,0,0,0-1.008.187h0c-2.571,1.021-2.84,5.826-4.558,5.473-1.92-.395-.886-2.183,1.054-5.12.253-.387.511-.8.758-1.238l.068-.123a1.2,1.2,0,0,0,.444-.847l.011-.022c.034-.069.068-.14.1-.211l.027-.058c.031-.068.064-.136.094-.2l.028-.063c.03-.067.062-.135.09-.2l.022-.054c.09-.212.176-.426.254-.638l.039-.1.052-.151.043-.126c.016-.048.03-.1.046-.143s.027-.089.042-.132.028-.093.041-.14.026-.089.038-.135.025-.09.037-.136.022-.09.034-.135l.031-.135c.01-.046.02-.092.029-.136l.027-.131c.009-.048.017-.1.025-.143s.014-.081.021-.122q.018-.118.031-.236l.012-.125c.005-.048.009-.1.013-.145s0-.081.007-.121,0-.088.005-.131,0-.081,0-.122,0-.084,0-.125,0-.081-.005-.122-.005-.08-.008-.119l-.012-.119c0-.039-.009-.077-.016-.115s-.01-.079-.018-.117-.014-.076-.022-.113-.016-.076-.025-.113-.021-.075-.031-.113-.02-.071-.031-.1-.033-.092-.051-.138-.039-.1-.062-.148-.035-.077-.055-.115-.034-.062-.051-.092-.038-.068-.059-.1-.039-.06-.059-.089-.045-.063-.068-.094-.045-.056-.067-.085-.051-.059-.079-.089-.048-.052-.075-.079-.059-.058-.089-.085-.052-.048-.081-.072-.069-.056-.1-.084l-.084-.063c-.042-.029-.085-.056-.13-.085l-.077-.049c-.073-.043-.148-.084-.228-.123a2.471,2.471,0,0,0-2.024-.008c-2.887,1.1-6.287,6.409-7.734,12.415a25.851,25.851,0,0,1-1.387,4.436c-.688,1.506-1.157,1.418-1.367,1.25a.532.532,0,0,1-.122-.14c-.828-.837-2.385-6.9-3.466-10.722-.177-.62-.364-1.218-.567-1.782-1.052-2.919-2.488-5-4.421-5.114-.077-.005-.153-.008-.228-.009-.034,0-.065,0-.1,0h-.119l-.107.005c-.035,0-.071,0-.106.008l-.1.009-.1.014-.069.009-.02.005c-.083.014-.163.033-.24.054l-.06.017c-.077.024-.152.05-.223.079l-.043.02a2.053,2.053,0,0,0-.185.094l-.039.021a1.985,1.985,0,0,0-.183.127l-.048.038a1.953,1.953,0,0,0-.163.151l-.039.043c-.047.052-.093.107-.136.165l-.026.037a2.276,2.276,0,0,0-.125.2c-.01.021-.022.039-.033.06-.038.072-.075.148-.107.227l-.029.071c-.033.083-.064.169-.093.26l-.016.054c-.024.084-.047.17-.068.261-.005.025-.012.049-.017.073-.021.1-.041.206-.058.315l-.014.093c-.016.111-.03.227-.041.347l-.007.08c-.01.115-.018.235-.024.356l0,.063c-.005.136-.008.279-.009.425v.1c0,.147,0,.3.008.455l0,.093c.005.166.013.337.025.515a12.237,12.237,0,0,0,.353,2.221c.658,2.607,1.985,4.79,2.515,7.842a13.283,13.283,0,0,1,.167,2.533c-.413.153-.858.338-1.321.564a12.6,12.6,0,0,0-2.343,1.461h0c-.085.066-.169.135-.253.206h0a.168.168,0,0,0-.026.022l-.008.005-.008.007-.005.007c-.127.106-.252.218-.375.333-.041.038-.08.077-.119.117-.08.076-.159.152-.236.231-.062.064-.122.131-.183.2s-.1.11-.153.168c-.072.083-.143.169-.214.254-.025.03-.051.059-.075.089-.042.051-.085.1-.124.156a15.7,15.7,0,0,0-1.556-1.949,13.769,13.769,0,0,0-5.341-3.721q-.322-.773-.691-1.522c-.645-4.44-1.837-10.276-2.875-11.051-.995-.74-1.742-1.675-7.6-1.076-.166-.111-.334-.22-.5-.328a15.977,15.977,0,0,0,.73-1.925q.1-1.427.083-2.811a19.8,19.8,0,0,0,4.084-1.668c1.447-1.159-2.957-15.49-4.578-15.491-.573,0-3.522.356-4.856.522a24.094,24.094,0,0,0-20.427-10.012l-.653-1.474c-4.684.1-8.643,1.273-11.762,3.7l.366,1.219c-7.394,4.317-11.233,12.232-11.25,20.508-1.148.654-3.78,2.16-4.244,2.507-1.3.971,3.739,15.09,5.591,15.156a19.23,19.23,0,0,0,4.173-1.071c.434.582.893,1.153,1.377,1.709-5.35,2.075-8.731,3.8-9.24,4.482-.7.941.362,5.356,1.282,8.608-1.877,1.235-4.054,3.8-4.784,9.154q-.057.4-.1.816a2.607,2.607,0,0,0-1.081.523,3.646,3.646,0,0,0-.887.995c-.052.085-.1.173-.153.266s-.1.2-.149.308c-.013.029-.025.056-.037.085-.039.094-.079.193-.115.295l-.022.062c-.043.123-.083.254-.119.389l-.02.077c-.033.123-.062.252-.089.384l-.009.043-.005.031c-.02.1-.038.208-.055.317l-.016.1c-.02.142-.037.286-.05.436v0a.04.04,0,0,0,0,.017s-.009-.022-.029-.06v0c-.01-.021-.024-.045-.039-.073l-.025-.041-.037-.062-.031-.05-.054-.081-.037-.052c-.025-.034-.051-.069-.08-.106l-.037-.048c-.042-.052-.086-.106-.136-.164-.014-.017-.033-.035-.049-.052-.038-.043-.076-.087-.119-.13s-.079-.079-.118-.118l-.048-.047-.026-.024c-.033-.03-.064-.06-.1-.09-.068-.062-.139-.124-.218-.187l-.007-.007a7.191,7.191,0,0,0-.788-.554l-.008,0a10.329,10.329,0,0,0-2.609-1.093c-.971-3.341-2.2-6.3-2.244-9.123-.047-3.1.852-5.49,1.013-8.173a12.335,12.335,0,0,0-.067-2.249c-.021-.177-.046-.346-.071-.511l-.013-.092c-.025-.153-.05-.3-.077-.447l-.018-.1c-.029-.143-.058-.282-.088-.414l-.016-.062c-.027-.119-.058-.235-.089-.346l-.021-.077c-.034-.117-.069-.227-.106-.334l-.03-.088c-.038-.1-.076-.2-.117-.3l-.03-.069c-.037-.084-.076-.166-.115-.244l-.025-.048c-.045-.085-.092-.162-.139-.239l-.042-.064c-.047-.072-.1-.139-.148-.2l-.043-.052c-.051-.06-.1-.118-.159-.17l-.033-.03a2,2,0,0,0-.165-.138c-.016-.012-.03-.025-.047-.035a1.852,1.852,0,0,0-.186-.118l-.055-.029c-.067-.033-.134-.064-.2-.09l-.043-.013a1.943,1.943,0,0,0-.2-.058l-.047-.012a2.144,2.144,0,0,0-.232-.035l-.064-.007c-.08-.005-.161-.009-.245-.008h-.02l-.071,0-.1.005-.1.009-.1.013-.106.014-.118.021-.1.018c-.072.014-.147.031-.221.051-1.878.476-2.9,2.782-3.393,5.848-.094.592-.168,1.215-.225,1.856-.351,3.961-.754,10.2-1.413,11.181a.516.516,0,0,1-.094.159c-.174.206-.619.379-1.574-.974a25.72,25.72,0,0,1-2.189-4.1c-2.539-5.632-6.865-10.211-9.907-10.76a2.464,2.464,0,0,0-1.987.384c-.071.052-.138.107-.2.163-.024.021-.045.042-.067.063-.039.035-.077.071-.113.107s-.047.052-.071.079-.06.067-.088.1-.045.056-.065.085-.05.067-.072.1-.041.06-.059.092-.041.067-.06.1-.034.063-.05.1-.034.069-.05.1-.029.066-.042.1-.026.073-.039.11-.022.066-.033.1-.021.083-.031.123-.025.107-.035.161-.017.094-.024.142-.007.073-.01.11-.008.076-.011.115,0,.077,0,.115,0,.076,0,.114,0,.079,0,.119,0,.076.007.115.007.08.011.121.009.079.014.118.011.08.017.121.014.081.022.122.014.08.024.121.018.084.029.126.018.08.029.119l.039.139c.012.041.024.081.037.123.024.075.047.149.075.224.013.039.029.079.043.117s.033.09.05.135l.051.125c.018.042.035.085.054.127s.038.085.056.127l.058.126.063.13c.02.041.041.083.062.123l.067.131c.021.041.043.08.064.121s.048.089.073.132.043.077.065.117.052.092.08.138.038.064.056.1c.118.2.242.389.371.582l.03.046c.041.062.084.122.126.182l.039.058c.043.062.086.122.131.183l.037.051c.047.063.093.127.14.19l.014.018a1.2,1.2,0,0,0,.594.75l.09.109c.322.381.653.742.974,1.075,2.451,2.525,3.8,4.092,1.987,4.836-1.621.666-2.78-4.005-5.5-4.531h0a2.751,2.751,0,0,0-1.025,0c-3.477.651-4.681,4.255-2.7,5.984.085.073.174.148.266.224l.026.022a2.7,2.7,0,0,0,1.727,1.259l.132.092c1.957,1.346,4.093,2.75,4.016,3.782-.107,1.457-1.11,1.941-3.89.68a8.551,8.551,0,0,0-4.561-.667c-1.354.207-2.367.845-2.393,1.97-.051,2.282.928,4.494,2.647,5.413a15.382,15.382,0,0,0,3.47,1.288c.591.156,1.225.305,1.924.476a.859.859,0,0,1,.122.139c.689.988.3,1.429-1.139,1.527-1.031.071-3.427.235-4.736,1.077l-.007,0a1.706,1.706,0,0,0-.89,1.376c-.065,2.076,1.781,4.85,7.006,5.529.173.024.339.042.5.059l.067.007c.056.007.114.013.169.017s.13.01.2.016l.153.012c.109.008.216.013.321.018l.131.007q.169.006.33.008l.094,0c.134,0,.263,0,.389,0h.009c.262-.007.506-.022.735-.045l.071-.008c.087-.009.17-.018.252-.029l.094-.014c.071-.01.139-.021.206-.033.034-.005.067-.012.1-.018.062-.012.122-.024.18-.037l.1-.022c.055-.012.109-.026.161-.039l.092-.025.147-.043.084-.027c.046-.014.09-.03.135-.047l.075-.028c.044-.016.085-.034.127-.051l.064-.026c.043-.02.084-.038.123-.058l.05-.024c.055-.026.106-.054.156-.081l.012-.008a1.947,1.947,0,0,0,.806-.726,15.332,15.332,0,0,0,5.67,1.46l-.168.237s5.8,6.148,14.141,6.905a18.1,18.1,0,0,0,5.063-.242,19.351,19.351,0,0,0,3.957-1.2s3.542.974,8.548-1.868l.01-.007c.456-.259.925-.55,1.4-.877,0,0,.178.8.456,1.681.063.2.13.406.2.608l-.005-.012s-.037.029-.1.083c-.043.035-.1.083-.165.14-.1.085-.224.193-.367.318-1.2,1.071-3.684,3.47-3.431,4.871.266,1.476,1.54,2.083,3.62,2.051-.177.1-.934.554-1.886,1.14l-.017.008c-1.4.86-3.216,2.005-4.211,2.771l-.08.065-.008.005c-1.708,1.359-2.431,3.244-5.334,5.478-2.951,2.273-2.84,3.923-3.974,8.557-.494,2.022-1.029,4.046-1.472,5.685-.577,2.122-1,3.6-1,3.6a17.64,17.64,0,0,0-1.982,2.278l-.059.08-.021.03c-.029.038-.056.076-.085.117l-.047.067,0,0h0a19.317,19.317,0,0,0-1.28,2.039,16.251,16.251,0,0,0-1.1,2.49,13.52,13.52,0,0,0-.431,1.523,42.6,42.6,0,0,0-.82,5.954c-.055.8-.089,1.531-.109,2.16-.043,1.409-.017,2.309-.017,2.309a15.742,15.742,0,0,0-1.307,1.824l-.005.007a19.981,19.981,0,0,0-1.827,3.709,16.132,16.132,0,0,0-.957,4.269c-.391,4.933,5.071,18.55,6.419,21.822-10.778-3.155-22.592-4.592-31.114-.291a12.173,12.173,0,0,0-2.847,1.752c-.223.165-.444.334-.661.508l.072.02a9.909,9.909,0,0,0-.853.946,7.338,7.338,0,0,0-1.841,2.134c-.64,1.141-.379,3.2.751,5.864q.352.837.819,1.746a51.014,51.014,0,0,0,6.137,9q.535.651,1.111,1.309a85.961,85.961,0,0,0,6.478,6.652c.4.374.815.75,1.237,1.124,2.157,1.931,4.518,3.866,7.074,5.772.439.325.883.653,1.335.978a110.28,110.28,0,0,0,9.377,6.055q.714.413,1.444.818c2.882,1.607,5.929,3.139,9.136,4.566.511.228,1.024.452,1.543.674q4.187,1.791,8.728,3.321c.249.085.5.168.754.25h.007q.609-.083,1.2-.2c10.064-1.972,16.133-11.055,17.159-17.709a4.189,4.189,0,0,0,.059-.426,8.819,8.819,0,0,0-.4-4.377,31.971,31.971,0,0,0-4.82-10.415,42.735,42.735,0,0,0-2.836-5.617,113.853,113.853,0,0,0-.169-13.828c-.684-7-2.92-12.437-2.554-16.191,0,0,3.341-1.541,6.082-13.116.342-1.432.671-3.014.984-4.768,0,0,.088-.024.248-.075,1.443-.465,8.816-3.111,11.726-9.65,3.233-7.263,6.477-8.313,8.211-7.189s9.044,8.084,19.781,7.558c0,0,.309.7.894,1.763v0a34.887,34.887,0,0,0,2.712,4.215,19.519,19.519,0,0,0,6.738,5.951,71.572,71.572,0,0,1,1.013,14.846c-.165,6.711.6,15,2.929,20.062a46.185,46.185,0,0,0,1.071,4.5,31.969,31.969,0,0,0,2.792,11.132,8.837,8.837,0,0,0,2.435,3.66,4.251,4.251,0,0,0,.313.294c4.979,4.533,15.407,7.787,24.475,3,.357-.187.709-.388,1.062-.6l0,0c.144-.224.288-.447.429-.67q2.577-4.036,4.706-8.067c.263-.5.522-.995.776-1.493,1.6-3.126,3.008-6.232,4.241-9.292q.313-.775.609-1.544a110.3,110.3,0,0,0,3.493-10.6c.147-.536.287-1.069.425-1.6.793-3.089,1.413-6.077,1.879-8.934q.138-.837.256-1.653a85.774,85.774,0,0,0,.861-9.246c.022-.583.038-1.155.043-1.716A50.978,50.978,0,0,0,481.513,321.587Zm-135.088-8.6-.008.01.01-.014Zm20.205-31.6c-.089-.008-.176-.02-.253-.034a1.3,1.3,0,0,1-.535-.207.73.73,0,0,1-.2-.216.78.78,0,0,1-.06-.13.9.9,0,0,1-.047-.29,2.419,2.419,0,0,1,.316-1.048c.063-.123.134-.249.21-.372.151-.249.32-.493.49-.721l.127-.168c.085-.109.168-.212.248-.309.359-.436.646-.733.646-.733A18.592,18.592,0,0,0,366.631,281.38Zm55.549-12.457v.009s4.44-.779,5.13.21c.5.712.169,1.8-1.6,2.463a9.793,9.793,0,0,1-2.683.522c-.221-.848-.511-1.79-.885-2.839C422.139,269.287,422.156,269.157,422.179,268.923Z" transform="translate(-307.298 -183.199)" fill="url(#linear-gradient-69)" style="mix-blend-mode: overlay;isolation: isolate"/>
      <path id="Path_23951" data-name="Path 23951" d="M481.513,321.587c-.138-.666-.291-1.292-.459-1.873-.794-2.784-1.885-4.546-3.1-5.034a7.351,7.351,0,0,0-2.773-.5,9.728,9.728,0,0,0-1.259-.2l.045-.062c-.279,0-.556.007-.834.018a12.252,12.252,0,0,0-3.316.426c-5.207,1.119-10.089,4.271-14.5,8.443-.317-2.687-.928-8-1.43-13.215a23.429,23.429,0,0,0-4.134-10.921,13.746,13.746,0,0,0-3.491-3.681s-3.346-12.616-11.215-15.6c-.151-.059-.3-.113-.446-.165-.079-.029-.157-.055-.233-.083l-.007,0a17.869,17.869,0,0,0-7.383-1.085h0a6.542,6.542,0,0,0-1.391.2l-.046.009c-.117.025-.231.049-.341.075a9.106,9.106,0,0,0-1.68.573l-.018.009c-.136.055-.275.113-.421.177l.035-.054.034-.055.008-.014c.013-.02.025-.043.038-.067l.009-.018.041-.08.011-.024c.013-.03.028-.06.042-.094l.009-.024c.014-.035.03-.073.045-.113l.005-.017a4.52,4.52,0,0,0,.182-.668l.008-.039c.009-.055.02-.114.029-.173l.011-.071c.009-.058.017-.118.024-.18l.01-.088c.007-.063.012-.126.017-.193l.008-.1c0-.069.008-.139.012-.212l0-.094c0-.079.005-.157.005-.241v-.047c0-.215-.005-.443-.02-.689-.009-.148-.02-.3-.035-.464-.027-.283-.066-.587-.114-.91a7.7,7.7,0,0,0,2.043-.754,9.1,9.1,0,0,0,3.159-2.583,3.018,3.018,0,0,0-.062-3.636,4.423,4.423,0,0,0-2.473-1.419,19.657,19.657,0,0,0-3.843-.63,26.308,26.308,0,0,0-.333-3.9c-.029-.17-.059-.342-.09-.512h0a15.548,15.548,0,0,0-.71-2.562s.777.533,2.068,1.224c.073.043.138.077.191.107.024.01.047.024.071.037.076.041.115.058.115.058v0c2.993,1.558,8.258,3.693,13.048,2.586a10.358,10.358,0,0,0,1.324-.4,15.68,15.68,0,0,0,1.708-.752,13.644,13.644,0,0,0,5.987-5.9,16.356,16.356,0,0,0,4.7-.166,15.744,15.744,0,0,0,6.575-2.773,1.942,1.942,0,0,0,.927.564l.013,0c.054.018.11.035.169.052l.05.013c.043.012.088.024.135.034l.068.014c.043.009.088.018.134.026l.08.013c.046.008.092.014.14.021l.089.01c.048.007.1.012.151.016l.1.008.165.009.1,0h.183c.033,0,.066,0,.1,0,.068,0,.139,0,.21-.005l.094,0c.081-.005.167-.01.253-.018l.072-.005c.228-.021.472-.051.73-.093h.008c.125-.021.253-.045.384-.071l.09-.018c.107-.022.215-.046.325-.071l.126-.03c.1-.025.207-.05.314-.079l.147-.039.191-.052c.054-.014.109-.031.163-.047l.064-.02c.159-.047.319-.1.484-.151,5.009-1.64,6.306-4.709,5.857-6.736a1.7,1.7,0,0,0-1.131-1.186h-.007c-1.444-.586-3.828-.3-4.854-.178-1.436.172-1.9-.19-1.4-1.29a.909.909,0,0,1,.094-.159c.655-.3,1.25-.561,1.8-.826a15.325,15.325,0,0,0,3.17-1.911c1.519-1.221,2.071-3.578,1.595-5.81-.236-1.1-1.35-1.54-2.717-1.49a8.538,8.538,0,0,0-4.359,1.5c-2.5,1.755-3.571,1.467-3.947.055-.267-1,1.57-2.777,3.242-4.463l.113-.115a2.7,2.7,0,0,0,1.463-1.56l.021-.026c.077-.092.151-.181.22-.269,1.626-2.068-.227-5.385-3.765-5.379a2.743,2.743,0,0,0-1.008.187h0c-2.571,1.021-2.84,5.826-4.558,5.473-1.92-.395-.886-2.183,1.054-5.12.253-.387.511-.8.758-1.238l.068-.123a1.2,1.2,0,0,0,.444-.847l.011-.022c.034-.069.068-.14.1-.211l.027-.058c.031-.068.064-.136.094-.2l.028-.063c.03-.067.062-.135.09-.2l.022-.054c.09-.212.176-.426.254-.638l.039-.1.052-.151.043-.126c.016-.048.03-.1.046-.143s.027-.089.042-.132.028-.093.041-.14.026-.089.038-.135.025-.09.037-.136.022-.09.034-.135l.031-.135c.01-.046.02-.092.029-.136l.027-.131c.009-.048.017-.1.025-.143s.014-.081.021-.122q.018-.118.031-.236l.012-.125c.005-.048.009-.1.013-.145s0-.081.007-.121,0-.088.005-.131,0-.081,0-.122,0-.084,0-.125,0-.081-.005-.122-.005-.08-.008-.119l-.012-.119c0-.039-.009-.077-.016-.115s-.01-.079-.018-.117-.014-.076-.022-.113-.016-.076-.025-.113-.021-.075-.031-.113-.02-.071-.031-.1-.033-.092-.051-.138-.039-.1-.062-.148-.035-.077-.055-.115-.034-.062-.051-.092-.038-.068-.059-.1-.039-.06-.059-.089-.045-.063-.068-.094-.045-.056-.067-.085-.051-.059-.079-.089-.048-.052-.075-.079-.059-.058-.089-.085-.052-.048-.081-.072-.069-.056-.1-.084l-.084-.063c-.042-.029-.085-.056-.13-.085l-.077-.049c-.073-.043-.148-.084-.228-.123a2.471,2.471,0,0,0-2.024-.008c-2.887,1.1-6.287,6.409-7.734,12.415a25.851,25.851,0,0,1-1.387,4.436c-.688,1.506-1.157,1.418-1.367,1.25a.532.532,0,0,1-.122-.14c-.828-.837-2.385-6.9-3.466-10.722-.177-.62-.364-1.218-.567-1.782-1.052-2.919-2.488-5-4.421-5.114-.077-.005-.153-.008-.228-.009-.034,0-.065,0-.1,0h-.119l-.107.005c-.035,0-.071,0-.106.008l-.1.009-.1.014-.069.009-.02.005c-.083.014-.163.033-.24.054l-.06.017c-.077.024-.152.05-.223.079l-.043.02a2.053,2.053,0,0,0-.185.094l-.039.021a1.985,1.985,0,0,0-.183.127l-.048.038a1.953,1.953,0,0,0-.163.151l-.039.043c-.047.052-.093.107-.136.165l-.026.037a2.276,2.276,0,0,0-.125.2c-.01.021-.022.039-.033.06-.038.072-.075.148-.107.227l-.029.071c-.033.083-.064.169-.093.26l-.016.054c-.024.084-.047.17-.068.261-.005.025-.012.049-.017.073-.021.1-.041.206-.058.315l-.014.093c-.016.111-.03.227-.041.347l-.007.08c-.01.115-.018.235-.024.356l0,.063c-.005.136-.008.279-.009.425v.1c0,.147,0,.3.008.455l0,.093c.005.166.013.337.025.515a12.237,12.237,0,0,0,.353,2.221c.658,2.607,1.985,4.79,2.515,7.842a13.283,13.283,0,0,1,.167,2.533c-.413.153-.858.338-1.321.564a12.6,12.6,0,0,0-2.343,1.461h0c-.085.066-.169.135-.253.206h0a.168.168,0,0,0-.026.022l-.008.005-.008.007-.005.007c-.127.106-.252.218-.375.333-.041.038-.08.077-.119.117-.08.076-.159.152-.236.231-.062.064-.122.131-.183.2s-.1.11-.153.168c-.072.083-.143.169-.214.254-.025.03-.051.059-.075.089-.042.051-.085.1-.124.156a15.7,15.7,0,0,0-1.556-1.949,13.769,13.769,0,0,0-5.341-3.721q-.322-.773-.691-1.522c-.645-4.44-1.837-10.276-2.875-11.051-.995-.74-1.742-1.675-7.6-1.076-.166-.111-.334-.22-.5-.328a15.977,15.977,0,0,0,.73-1.925q.1-1.427.083-2.811a19.8,19.8,0,0,0,4.084-1.668c1.447-1.159-2.957-15.49-4.578-15.491-.573,0-3.522.356-4.856.522a24.094,24.094,0,0,0-20.427-10.012l-.653-1.474c-4.684.1-8.643,1.273-11.762,3.7l.366,1.219c-7.394,4.317-11.233,12.232-11.25,20.508-1.148.654-3.78,2.16-4.244,2.507-1.3.971,3.739,15.09,5.591,15.156a19.23,19.23,0,0,0,4.173-1.071c.434.582.893,1.153,1.377,1.709-5.35,2.075-8.731,3.8-9.24,4.482-.7.941.362,5.356,1.282,8.608-1.877,1.235-4.054,3.8-4.784,9.154q-.057.4-.1.816a2.607,2.607,0,0,0-1.081.523,3.646,3.646,0,0,0-.887.995c-.052.085-.1.173-.153.266s-.1.2-.149.308c-.013.029-.025.056-.037.085-.039.094-.079.193-.115.295l-.022.062c-.043.123-.083.254-.119.389l-.02.077c-.033.123-.062.252-.089.384l-.009.043-.005.031c-.02.1-.038.208-.055.317l-.016.1c-.02.142-.037.286-.05.436v0a.04.04,0,0,0,0,.017s-.009-.022-.029-.06v0c-.01-.021-.024-.045-.039-.073l-.025-.041-.037-.062-.031-.05-.054-.081-.037-.052c-.025-.034-.051-.069-.08-.106l-.037-.048c-.042-.052-.086-.106-.136-.164-.014-.017-.033-.035-.049-.052-.038-.043-.076-.087-.119-.13s-.079-.079-.118-.118l-.048-.047-.026-.024c-.033-.03-.064-.06-.1-.09-.068-.062-.139-.124-.218-.187l-.007-.007a7.191,7.191,0,0,0-.788-.554l-.008,0a10.329,10.329,0,0,0-2.609-1.093c-.971-3.341-2.2-6.3-2.244-9.123-.047-3.1.852-5.49,1.013-8.173a12.335,12.335,0,0,0-.067-2.249c-.021-.177-.046-.346-.071-.511l-.013-.092c-.025-.153-.05-.3-.077-.447l-.018-.1c-.029-.143-.058-.282-.088-.414l-.016-.062c-.027-.119-.058-.235-.089-.346l-.021-.077c-.034-.117-.069-.227-.106-.334l-.03-.088c-.038-.1-.076-.2-.117-.3l-.03-.069c-.037-.084-.076-.166-.115-.244l-.025-.048c-.045-.085-.092-.162-.139-.239l-.042-.064c-.047-.072-.1-.139-.148-.2l-.043-.052c-.051-.06-.1-.118-.159-.17l-.033-.03a2,2,0,0,0-.165-.138c-.016-.012-.03-.025-.047-.035a1.852,1.852,0,0,0-.186-.118l-.055-.029c-.067-.033-.134-.064-.2-.09l-.043-.013a1.943,1.943,0,0,0-.2-.058l-.047-.012a2.144,2.144,0,0,0-.232-.035l-.064-.007c-.08-.005-.161-.009-.245-.008h-.02l-.071,0-.1.005-.1.009-.1.013-.106.014-.118.021-.1.018c-.072.014-.147.031-.221.051-1.878.476-2.9,2.782-3.393,5.848-.094.592-.168,1.215-.225,1.856-.351,3.961-.754,10.2-1.413,11.181a.516.516,0,0,1-.094.159c-.174.206-.619.379-1.574-.974a25.72,25.72,0,0,1-2.189-4.1c-2.539-5.632-6.865-10.211-9.907-10.76a2.464,2.464,0,0,0-1.987.384c-.071.052-.138.107-.2.163-.024.021-.045.042-.067.063-.039.035-.077.071-.113.107s-.047.052-.071.079-.06.067-.088.1-.045.056-.065.085-.05.067-.072.1-.041.06-.059.092-.041.067-.06.1-.034.063-.05.1-.034.069-.05.1-.029.066-.042.1-.026.073-.039.11-.022.066-.033.1-.021.083-.031.123-.025.107-.035.161-.017.094-.024.142-.007.073-.01.11-.008.076-.011.115,0,.077,0,.115,0,.076,0,.114,0,.079,0,.119,0,.076.007.115.007.08.011.121.009.079.014.118.011.08.017.121.014.081.022.122.014.08.024.121.018.084.029.126.018.08.029.119l.039.139c.012.041.024.081.037.123.024.075.047.149.075.224.013.039.029.079.043.117s.033.09.05.135l.051.125c.018.042.035.085.054.127s.038.085.056.127l.058.126.063.13c.02.041.041.083.062.123l.067.131c.021.041.043.08.064.121s.048.089.073.132.043.077.065.117.052.092.08.138.038.064.056.1c.118.2.242.389.371.582l.03.046c.041.062.084.122.126.182l.039.058c.043.062.086.122.131.183l.037.051c.047.063.093.127.14.19l.014.018a1.2,1.2,0,0,0,.594.75l.09.109c.322.381.653.742.974,1.075,2.451,2.525,3.8,4.092,1.987,4.836-1.621.666-2.78-4.005-5.5-4.531h0a2.751,2.751,0,0,0-1.025,0c-3.477.651-4.681,4.255-2.7,5.984.085.073.174.148.266.224l.026.022a2.7,2.7,0,0,0,1.727,1.259l.132.092c1.957,1.346,4.093,2.75,4.016,3.782-.107,1.457-1.11,1.941-3.89.68a8.551,8.551,0,0,0-4.561-.667c-1.354.207-2.367.845-2.393,1.97-.051,2.282.928,4.494,2.647,5.413a15.382,15.382,0,0,0,3.47,1.288c.591.156,1.225.305,1.924.476a.859.859,0,0,1,.122.139c.689.988.3,1.429-1.139,1.527-1.031.071-3.427.235-4.736,1.077l-.007,0a1.706,1.706,0,0,0-.89,1.376c-.065,2.076,1.781,4.85,7.006,5.529.173.024.339.042.5.059l.067.007c.056.007.114.013.169.017s.13.01.2.016l.153.012c.109.008.216.013.321.018l.131.007q.169.006.33.008l.094,0c.134,0,.263,0,.389,0h.009c.262-.007.506-.022.735-.045l.071-.008c.087-.009.17-.018.252-.029l.094-.014c.071-.01.139-.021.206-.033.034-.005.067-.012.1-.018.062-.012.122-.024.18-.037l.1-.022c.055-.012.109-.026.161-.039l.092-.025.147-.043.084-.027c.046-.014.09-.03.135-.047l.075-.028c.044-.016.085-.034.127-.051l.064-.026c.043-.02.084-.038.123-.058l.05-.024c.055-.026.106-.054.156-.081l.012-.008a1.947,1.947,0,0,0,.806-.726,15.332,15.332,0,0,0,5.67,1.46l-.168.237s5.8,6.148,14.141,6.905a18.1,18.1,0,0,0,5.063-.242,19.351,19.351,0,0,0,3.957-1.2s3.542.974,8.548-1.868l.01-.007c.456-.259.925-.55,1.4-.877,0,0,.178.8.456,1.681.063.2.13.406.2.608l-.005-.012s-.037.029-.1.083c-.043.035-.1.083-.165.14-.1.085-.224.193-.367.318-1.2,1.071-3.684,3.47-3.431,4.871.266,1.476,1.54,2.083,3.62,2.051-.177.1-.934.554-1.886,1.14l-.017.008c-1.4.86-3.216,2.005-4.211,2.771l-.08.065-.008.005c-1.708,1.359-2.431,3.244-5.334,5.478-2.951,2.273-2.84,3.923-3.974,8.557-.494,2.022-1.029,4.046-1.472,5.685-.577,2.122-1,3.6-1,3.6a17.64,17.64,0,0,0-1.982,2.278l-.059.08-.021.03c-.029.038-.056.076-.085.117l-.047.067,0,0h0a19.317,19.317,0,0,0-1.28,2.039,16.251,16.251,0,0,0-1.1,2.49,13.52,13.52,0,0,0-.431,1.523,42.6,42.6,0,0,0-.82,5.954c-.055.8-.089,1.531-.109,2.16-.043,1.409-.017,2.309-.017,2.309a15.742,15.742,0,0,0-1.307,1.824l-.005.007a19.981,19.981,0,0,0-1.827,3.709,16.132,16.132,0,0,0-.957,4.269c-.391,4.933,5.071,18.55,6.419,21.822-10.778-3.155-22.592-4.592-31.114-.291a12.173,12.173,0,0,0-2.847,1.752c-.223.165-.444.334-.661.508l.072.02a9.909,9.909,0,0,0-.853.946,7.338,7.338,0,0,0-1.841,2.134c-.64,1.141-.379,3.2.751,5.864q.352.837.819,1.746a51.014,51.014,0,0,0,6.137,9q.535.651,1.111,1.309a85.961,85.961,0,0,0,6.478,6.652c.4.374.815.75,1.237,1.124,2.157,1.931,4.518,3.866,7.074,5.772.439.325.883.653,1.335.978a110.28,110.28,0,0,0,9.377,6.055q.714.413,1.444.818c2.882,1.607,5.929,3.139,9.136,4.566.511.228,1.024.452,1.543.674q4.187,1.791,8.728,3.321c.249.085.5.168.754.25h.007q.609-.083,1.2-.2c10.064-1.972,16.133-11.055,17.159-17.709a4.189,4.189,0,0,0,.059-.426,8.819,8.819,0,0,0-.4-4.377,31.971,31.971,0,0,0-4.82-10.415,42.735,42.735,0,0,0-2.836-5.617,113.853,113.853,0,0,0-.169-13.828c-.684-7-2.92-12.437-2.554-16.191,0,0,3.341-1.541,6.082-13.116.342-1.432.671-3.014.984-4.768,0,0,.088-.024.248-.075,1.443-.465,8.816-3.111,11.726-9.65,3.233-7.263,6.477-8.313,8.211-7.189s9.044,8.084,19.781,7.558c0,0,.309.7.894,1.763v0a34.887,34.887,0,0,0,2.712,4.215,19.519,19.519,0,0,0,6.738,5.951,71.572,71.572,0,0,1,1.013,14.846c-.165,6.711.6,15,2.929,20.062a46.185,46.185,0,0,0,1.071,4.5,31.969,31.969,0,0,0,2.792,11.132,8.837,8.837,0,0,0,2.435,3.66,4.251,4.251,0,0,0,.313.294c4.979,4.533,15.407,7.787,24.475,3,.357-.187.709-.388,1.062-.6l0,0c.144-.224.288-.447.429-.67q2.577-4.036,4.706-8.067c.263-.5.522-.995.776-1.493,1.6-3.126,3.008-6.232,4.241-9.292q.313-.775.609-1.544a110.3,110.3,0,0,0,3.493-10.6c.147-.536.287-1.069.425-1.6.793-3.089,1.413-6.077,1.879-8.934q.138-.837.256-1.653a85.774,85.774,0,0,0,.861-9.246c.022-.583.038-1.155.043-1.716A50.978,50.978,0,0,0,481.513,321.587Zm-135.088-8.6-.008.01.01-.014Zm20.205-31.6c-.089-.008-.176-.02-.253-.034a1.3,1.3,0,0,1-.535-.207.73.73,0,0,1-.2-.216.78.78,0,0,1-.06-.13.9.9,0,0,1-.047-.29,2.419,2.419,0,0,1,.316-1.048c.063-.123.134-.249.21-.372.151-.249.32-.493.49-.721l.127-.168c.085-.109.168-.212.248-.309.359-.436.646-.733.646-.733A18.592,18.592,0,0,0,366.631,281.38Zm55.549-12.457v.009s4.44-.779,5.13.21c.5.712.169,1.8-1.6,2.463a9.793,9.793,0,0,1-2.683.522c-.221-.848-.511-1.79-.885-2.839C422.139,269.287,422.156,269.157,422.179,268.923Z" transform="translate(-307.298 -183.199)" opacity="0.57" fill="url(#linear-gradient-70)" style="mix-blend-mode: overlay;isolation: isolate"/>
    </g>
  </g>
</svg>