<svg width="33" height="32" viewBox="0 0 33 32" fill="none" xmlns="http://www.w3.org/2000/svg">
<path d="M9.04597 15.8325C8.97557 17.0556 9.91712 18.1028 11.1403 18.1732C11.1843 18.1732 11.2283 18.1732 11.2723 18.1732C12.5042 18.1732 13.4986 17.1788 13.4898 15.9469C13.4898 14.7149 12.4954 13.7206 11.2635 13.7294C10.0843 13.7294 9.10756 14.6533 9.04597 15.8325Z" fill="white"/>
<path d="M0.756526 15.2605C0.360544 15.2341 0.0173607 15.5421 -0.000238479 15.9381C-0.0178376 16.334 0.281348 16.6772 0.677329 16.6948C1.07331 16.7212 1.40769 16.4132 1.43409 16.0173C1.46049 15.6213 1.15251 15.2869 0.756526 15.2605Z" fill="white"/>
<path d="M8.90537 2.93233C9.25735 2.75634 9.39815 2.31636 9.22216 1.96438C9.04616 1.6124 8.60619 1.4716 8.2542 1.64759C7.90222 1.82359 7.76142 2.25477 7.93742 2.60675C8.11341 2.96753 8.54459 3.11712 8.90537 2.93233Z" fill="white"/>
<path d="M11.1582 6.86578C11.7037 6.59299 11.9237 5.92422 11.6509 5.37865C11.3782 4.83307 10.7094 4.61308 10.1638 4.88587C9.61824 5.15866 9.39826 5.82743 9.67104 6.373C9.94383 6.91858 10.6126 7.13857 11.1582 6.86578Z" fill="white"/>
<path d="M3.57217 9.56708C3.99455 9.83986 4.55773 9.72547 4.83931 9.30309C5.1121 8.88071 4.9977 8.31754 4.57532 8.03595C4.15294 7.76316 3.58977 7.87756 3.30818 8.29994C3.0266 8.72232 3.14979 9.29429 3.57217 9.56708Z" fill="white"/>
<path d="M4.91901 14.8644C4.30304 14.8292 3.78387 15.2956 3.74867 15.9116C3.71347 16.5275 4.17985 17.0467 4.79582 17.0819C5.41179 17.1171 5.93096 16.6507 5.96616 16.0348C6.00136 15.4276 5.53498 14.8996 4.91901 14.8644Z" fill="white"/>
<path d="M3.695 22.3177C3.24622 22.5465 3.06143 23.0921 3.29022 23.5497C3.51901 23.9985 4.06458 24.1832 4.52216 23.9545C4.97094 23.7257 5.15573 23.1801 4.92694 22.7225C4.69815 22.2737 4.14378 22.0889 3.695 22.3177Z" fill="white"/>
<path d="M8.00729 12.5678C8.61446 12.9637 9.42402 12.7966 9.8112 12.1894C10.2072 11.5822 10.04 10.7726 9.43282 10.3855C8.82565 9.98949 8.01609 10.1567 7.62891 10.7638C7.23293 11.3622 7.40012 12.1718 8.00729 12.5678Z" fill="white"/>
<path d="M21.6907 6.7776C22.2011 7.11198 22.8962 6.97119 23.2306 6.46082C23.565 5.95044 23.4242 5.25527 22.9138 4.92089C22.4034 4.5865 21.7083 4.7273 21.3739 5.23767C21.0307 5.75685 21.1715 6.44322 21.6907 6.7776Z" fill="white"/>
<path d="M23.9604 2.86193C24.2948 3.08192 24.7348 2.98513 24.9548 2.65074C25.1748 2.31636 25.078 1.87638 24.7436 1.65639C24.4092 1.4364 23.9692 1.53319 23.7492 1.85878C23.5381 2.19316 23.6348 2.64194 23.9604 2.86193Z" fill="white"/>
<path d="M21.8581 13.7118C20.635 13.6414 19.579 14.5829 19.5174 15.8061C19.447 17.0292 20.3886 18.0852 21.6117 18.1468C21.6557 18.1468 21.6997 18.1468 21.7349 18.1468C22.9581 18.1468 23.9524 17.1524 23.9524 15.9205C23.9612 14.7501 23.0372 13.7734 21.8581 13.7118Z" fill="white"/>
<path d="M11.8876 12.4095C12.2659 13.1574 13.0315 13.6326 13.8763 13.6326C15.0994 13.6326 16.0938 12.6383 16.0938 11.4063C16.0938 11.0631 16.0146 10.72 15.8562 10.4032C15.3018 9.30323 13.9643 8.86325 12.8731 9.41763C11.7732 9.9808 11.3332 11.3183 11.8876 12.4095Z" fill="white"/>
<path d="M29.3019 9.56713C29.7507 9.33834 29.9266 8.78397 29.6979 8.33519C29.4691 7.88641 28.9147 7.71042 28.4659 7.93921C28.0171 8.168 27.8411 8.71357 28.0611 9.16235C28.2987 9.61113 28.8443 9.79592 29.3019 9.56713Z" fill="white"/>
<path d="M23.6707 10.2712C23.0283 10.5968 22.7643 11.3799 23.0899 12.0223C23.4155 12.6647 24.1986 12.9287 24.841 12.6031C25.4834 12.2775 25.7474 11.4943 25.4218 10.852C25.0962 10.2096 24.313 9.95441 23.6707 10.2712Z" fill="white"/>
<path d="M16.4111 2.52742C16.9126 2.55381 17.3438 2.16663 17.379 1.66506C17.4142 1.16348 17.0182 0.7323 16.5166 0.697102C16.0151 0.670703 15.5839 1.04909 15.5487 1.55066C15.5223 2.06104 15.9095 2.49222 16.4111 2.52742Z" fill="white"/>
<path d="M16.4021 8.27356C17.1237 8.31756 17.7396 7.76319 17.7748 7.04162C17.8188 6.32006 17.2645 5.70408 16.5429 5.66889C15.8213 5.62489 15.2054 6.17926 15.1702 6.90083C15.135 7.62239 15.6805 8.23836 16.4021 8.27356Z" fill="white"/>
<path d="M9.32719 21.6138C9.96956 21.2882 10.2335 20.5051 9.90796 19.8627C9.58238 19.2203 8.79921 18.9564 8.15685 19.2819C7.51448 19.6075 7.25049 20.3907 7.57607 21.0331C7.90166 21.6754 8.68482 21.9394 9.32719 21.6138Z" fill="white"/>
<path d="M17.2468 10.1831C16.578 11.2127 16.8596 12.5854 17.8891 13.2542C18.9187 13.923 20.2914 13.6414 20.9602 12.6118C21.629 11.5823 21.3474 10.2095 20.3178 9.54076C19.957 9.30317 19.5347 9.17998 19.1035 9.17998C18.3555 9.17998 17.6603 9.55836 17.2468 10.1831Z" fill="white"/>
<path d="M21.11 19.4755C20.5556 18.3756 19.2181 17.9356 18.1269 18.4899C17.027 19.0443 16.587 20.3819 17.1414 21.473C17.6957 22.573 19.0333 23.0129 20.1244 22.4586C21.2156 21.913 21.6643 20.593 21.1188 19.4931C21.1188 19.4843 21.1188 19.4843 21.11 19.4755Z" fill="white"/>
<path d="M24.9907 19.3171C24.3835 18.9211 23.5739 19.0883 23.1867 19.6955C22.7908 20.3026 22.9579 21.1122 23.5651 21.4994C24.1723 21.8954 24.9818 21.7282 25.369 21.121C25.765 20.5226 25.5978 19.7131 24.9907 19.3171Z" fill="white"/>
<path d="M29.2491 15.9819C29.2843 15.3659 28.8179 14.8468 28.2019 14.8116C27.5859 14.7764 27.0668 15.2427 27.0316 15.8587C26.9964 16.4747 27.4627 16.9939 28.0787 17.0291C28.6859 17.0643 29.2139 16.5891 29.2491 15.9819Z" fill="white"/>
<path d="M32.321 15.1901C31.925 15.1637 31.5818 15.4717 31.5642 15.8677C31.5466 16.2637 31.8458 16.6069 32.2418 16.6245C32.6378 16.6509 32.9722 16.3429 32.9986 15.9469C33.0162 15.5509 32.717 15.2165 32.321 15.1901Z" fill="white"/>
<path d="M29.4256 22.3177C29.0032 22.0449 28.4401 22.1593 28.1585 22.5817C27.8857 23.004 28.0001 23.5672 28.4225 23.8488C28.8448 24.1216 29.408 24.0072 29.6896 23.5848C29.9712 23.1624 29.848 22.5905 29.4256 22.3177Z" fill="white"/>
<path d="M9.02801 29.0231C8.69363 28.8031 8.25365 28.8999 8.03366 29.2255C7.81367 29.5599 7.91046 29.9998 8.23605 30.2198C8.57043 30.4398 9.01041 30.343 9.2304 30.0174C9.45919 29.6919 9.36239 29.2431 9.02801 29.0231Z" fill="white"/>
<path d="M24.0926 28.9527C23.7407 29.1287 23.5999 29.5687 23.7759 29.9207C23.9518 30.2726 24.3918 30.4134 24.7438 30.2374C25.0958 30.0615 25.2366 29.6303 25.0606 29.2783C24.8846 28.9175 24.4534 28.7679 24.0926 28.9527Z" fill="white"/>
<path d="M15.7505 21.7017C16.4193 20.6722 16.1377 19.2995 15.1081 18.6219C14.0786 17.9531 12.7059 18.2347 12.0283 19.2643C11.3507 20.2938 11.6411 21.6665 12.6707 22.3441C13.0314 22.5817 13.4538 22.7049 13.885 22.7049C14.6418 22.7137 15.3369 22.3353 15.7505 21.7017Z" fill="white"/>
<path d="M11.3075 25.1072C10.7971 24.7729 10.102 24.9136 9.76757 25.424C9.43318 25.9344 9.57398 26.6296 10.0844 26.964C10.5947 27.2983 11.2899 27.1575 11.6243 26.6472C11.9675 26.1368 11.8267 25.4416 11.3075 25.1072Z" fill="white"/>
<path d="M16.49 29.3574C15.9885 29.331 15.5573 29.7182 15.5221 30.2197C15.4869 30.7213 15.8829 31.1525 16.3844 31.1877C16.886 31.2141 17.3172 30.8357 17.3524 30.3341C17.3788 29.8238 16.9916 29.3926 16.49 29.3574Z" fill="white"/>
<path d="M16.4989 23.6113C15.7774 23.5673 15.1614 24.1217 15.1262 24.8433C15.0822 25.5648 15.6366 26.1808 16.3581 26.216C17.0797 26.2512 17.6957 25.7056 17.7309 24.9841C17.7749 24.2713 17.2205 23.6465 16.4989 23.6113Z" fill="white"/>
<path d="M21.8403 25.0193C21.2947 25.3009 21.0747 25.9696 21.3563 26.5152C21.6379 27.0608 22.3067 27.2808 22.8522 26.9992C23.3978 26.7264 23.6178 26.0576 23.345 25.5121C23.0634 24.9665 22.3947 24.7377 21.8403 25.0193Z" fill="white"/>
</svg>
