<svg width="60" height="55" viewBox="0 0 60 55" fill="none" xmlns="http://www.w3.org/2000/svg">
<g clip-path="url(#clip0_483_2485)">
<path d="M16.4455 27.3013C16.3869 28.3619 16.755 29.4023 17.4688 30.1939C18.1827 30.9856 19.1841 31.4639 20.2531 31.5238H20.4944C21.2837 31.521 22.055 31.289 22.7128 30.8563C23.3707 30.4236 23.8864 29.8093 24.1963 29.0891C24.5062 28.3689 24.5966 27.5745 24.4565 26.8039C24.3163 26.0333 23.9517 25.3203 23.4077 24.753C22.8637 24.1856 22.1641 23.7888 21.3952 23.6115C20.6264 23.4341 19.8221 23.4841 19.0816 23.7551C18.3411 24.0262 17.6968 24.5065 17.2283 25.1367C16.7598 25.7669 16.4877 26.5194 16.4455 27.3013Z" fill="white"/>
<path d="M1.37747 26.2744C1.11941 26.2601 0.862882 26.322 0.640326 26.4524C0.417769 26.5827 0.239185 26.7757 0.12716 27.0067C0.0151363 27.2378 -0.0252944 27.4966 0.0109825 27.7505C0.0472593 28.0043 0.158614 28.2418 0.330961 28.4329C0.503308 28.6239 0.728905 28.76 0.979216 28.8239C1.22953 28.8877 1.49331 28.8765 1.73719 28.7916C1.98107 28.7068 2.1941 28.552 2.34934 28.347C2.50457 28.142 2.59503 27.896 2.60927 27.64C2.62019 27.4697 2.59685 27.2991 2.54062 27.1379C2.48439 26.9767 2.39638 26.8283 2.28174 26.7012C2.16709 26.5741 2.0281 26.4709 1.87285 26.3976C1.7176 26.3243 1.5492 26.2824 1.37747 26.2744Z" fill="white"/>
<path d="M16.194 4.0334C16.5037 3.8777 16.7384 3.60632 16.8464 3.27896C16.9545 2.95159 16.927 2.59506 16.7701 2.28779C16.6131 1.98053 16.3396 1.74769 16.0096 1.64052C15.6796 1.53334 15.3202 1.5606 15.0104 1.7163C14.7007 1.87199 14.466 2.14337 14.358 2.47074C14.2499 2.7981 14.2774 3.15463 14.4343 3.4619C14.5913 3.76917 14.8649 4.002 15.1948 4.10918C15.5248 4.21635 15.8842 4.18909 16.194 4.0334Z" fill="white"/>
<path d="M20.2883 11.1283C20.6446 10.9513 20.9399 10.6734 21.137 10.3298C21.3341 9.9862 21.4241 9.59235 21.3955 9.19804C21.367 8.80373 21.2212 8.42668 20.9766 8.11457C20.732 7.80246 20.3996 7.5693 20.0215 7.44459C19.6433 7.31988 19.2364 7.30921 18.8521 7.41394C18.4679 7.51867 18.1236 7.73409 17.8627 8.03295C17.6019 8.33182 17.4362 8.7007 17.3867 9.09297C17.3372 9.48523 17.4061 9.88324 17.5846 10.2367C17.8244 10.7101 18.2438 11.0699 18.7506 11.237C19.2575 11.4042 19.8104 11.3651 20.2883 11.1283Z" fill="white"/>
<path d="M6.49772 16.0007C6.77318 16.1792 7.09581 16.2727 7.42483 16.2693C7.75384 16.266 8.07447 16.1659 8.34616 15.9818C8.61785 15.7977 8.82841 15.5378 8.95121 15.2349C9.07401 14.9321 9.10353 14.6 9.03606 14.2805C8.96858 13.961 8.80712 13.6686 8.57211 13.4401C8.3371 13.2117 8.03907 13.0575 7.71573 12.997C7.39238 12.9366 7.05824 12.9726 6.75554 13.1006C6.45283 13.2285 6.19518 13.4427 6.01514 13.7159C5.8943 13.8969 5.81089 14.1 5.76973 14.3132C5.72858 14.5265 5.7305 14.7457 5.77539 14.9583C5.82028 15.1708 5.90724 15.3724 6.03123 15.5513C6.15523 15.7302 6.31379 15.883 6.49772 16.0007Z" fill="white"/>
<path d="M8.94492 25.5564C8.546 25.5342 8.14943 25.63 7.80537 25.8315C7.46132 26.033 7.18524 26.3312 7.01207 26.6884C6.83889 27.0455 6.77641 27.4457 6.83251 27.8381C6.88862 28.2305 7.0608 28.5976 7.32726 28.893C7.59373 29.1883 7.94251 29.3986 8.32948 29.4972C8.71645 29.5959 9.12422 29.5784 9.5012 29.4471C9.87817 29.3158 10.2074 29.0766 10.4473 28.7596C10.6872 28.4426 10.8269 28.0622 10.8487 27.6664C10.878 27.1362 10.694 26.6162 10.337 26.2205C9.98002 25.8249 9.47933 25.586 8.94492 25.5564Z" fill="white"/>
<path d="M6.72075 38.9993C6.42694 39.1473 6.18396 39.3785 6.02248 39.6634C5.861 39.9484 5.78827 40.2745 5.81348 40.6004C5.83869 40.9264 5.9607 41.2377 6.16411 41.4949C6.36752 41.7521 6.64321 41.9437 6.95635 42.0456C7.26948 42.1475 7.60603 42.155 7.92349 42.0673C8.24094 41.9795 8.52506 41.8004 8.73996 41.5526C8.95487 41.3047 9.09092 40.9993 9.13093 40.6747C9.17095 40.3502 9.11313 40.0213 8.96478 39.7293C8.76411 39.3389 8.41595 39.043 7.99624 38.9063C7.57653 38.7695 7.11933 38.8029 6.72437 38.9993H6.72075Z" fill="white"/>
<path d="M14.5613 21.4128C14.9537 21.6671 15.4132 21.8004 15.8819 21.7956C16.3505 21.7908 16.8072 21.6483 17.1942 21.386C17.5812 21.1237 17.8811 20.7535 18.0559 20.3221C18.2308 19.8908 18.2728 19.4177 18.1766 18.9626C18.0804 18.5076 17.8503 18.0911 17.5155 17.7658C17.1807 17.4404 16.7561 17.2209 16.2955 17.135C15.8349 17.049 15.359 17.1005 14.9279 17.283C14.4968 17.4654 14.1299 17.7705 13.8737 18.1598C13.7016 18.4176 13.5829 18.7067 13.5244 19.0104C13.4658 19.314 13.4686 19.6262 13.5326 19.9288C13.5965 20.2314 13.7204 20.5184 13.897 20.7731C14.0736 21.0278 14.2994 21.2453 14.5613 21.4128Z" fill="white"/>
<path d="M39.4402 10.9703C39.7742 11.1886 40.1659 11.3037 40.5659 11.3011C40.9658 11.2985 41.356 11.1783 41.6871 10.9556C42.0181 10.733 42.2752 10.418 42.4258 10.0504C42.5764 9.68284 42.6137 9.27922 42.533 8.89061C42.4523 8.50199 42.2573 8.14584 41.9726 7.8672C41.6878 7.58856 41.3262 7.39994 40.9334 7.32521C40.5406 7.25048 40.1343 7.29298 39.7658 7.44735C39.3974 7.60172 39.0834 7.86102 38.8635 8.19245C38.7145 8.41147 38.6111 8.6578 38.5595 8.91699C38.5078 9.17618 38.5089 9.443 38.5626 9.70178C38.6163 9.96056 38.7216 10.2061 38.8723 10.4239C39.023 10.6418 39.2161 10.8275 39.4402 10.9703Z" fill="white"/>
<path d="M43.5678 3.90653C43.7846 4.04433 44.0376 4.11551 44.2951 4.1111C44.5526 4.1067 44.803 4.02693 45.0149 3.88179C45.2268 3.73666 45.3908 3.53265 45.4862 3.29537C45.5816 3.0581 45.6042 2.79815 45.5512 2.54817C45.4981 2.29818 45.3718 2.06932 45.1881 1.89033C45.0044 1.71133 44.7714 1.59018 44.5185 1.54209C44.2656 1.49401 44.004 1.52113 43.7666 1.62005C43.5292 1.71897 43.3265 1.88528 43.1841 2.09809C43.0004 2.39039 42.9378 2.74181 43.0093 3.07885C43.0808 3.4159 43.2809 3.71247 43.5678 3.90653Z" fill="white"/>
<path d="M39.7451 23.4762C39.2156 23.4469 38.6855 23.5214 38.185 23.6954C37.6845 23.8694 37.2235 24.1395 36.8283 24.4903C36.433 24.841 36.1113 25.2656 35.8815 25.7397C35.6516 26.2138 35.5181 26.7281 35.4887 27.2534C35.4592 27.7787 35.5343 28.3046 35.7097 28.801C35.8851 29.2975 36.1574 29.7549 36.5109 30.147C36.8645 30.539 37.2925 30.8582 37.7704 31.0862C38.2483 31.3143 38.7668 31.4467 39.2963 31.4759H39.5207C40.5687 31.4716 41.5739 31.0631 42.3237 30.3367C43.0734 29.6103 43.509 28.6231 43.5381 27.5838C43.5673 26.5446 43.1877 25.5349 42.4799 24.7682C41.772 24.0016 40.7912 23.5383 39.7451 23.4762Z" fill="white"/>
<path d="M21.6169 21.1279C21.978 21.835 22.5423 22.42 23.2383 22.8092C23.9344 23.1983 24.7311 23.3742 25.5279 23.3145C26.3246 23.2547 27.0856 22.9622 27.7149 22.4737C28.3441 21.9852 28.8133 21.3226 29.0632 20.5698C29.3132 19.8169 29.3326 19.0075 29.1192 18.2437C28.9057 17.4798 28.4688 16.7959 27.8638 16.2782C27.2588 15.7605 26.5127 15.4323 25.7197 15.3349C24.9267 15.2376 24.1225 15.3755 23.4085 15.7313C22.9334 15.9686 22.51 16.2966 22.1628 16.6963C21.8155 17.0961 21.5511 17.5599 21.3847 18.0611C21.2183 18.5623 21.1532 19.0912 21.193 19.6174C21.2328 20.1437 21.3769 20.657 21.6169 21.1279Z" fill="white"/>
<path d="M53.2797 16.0006C53.5707 15.8508 53.8106 15.6191 53.9692 15.3345C54.1279 15.0499 54.1982 14.7251 54.1715 14.401C54.1447 14.0769 54.0221 13.7678 53.8188 13.5126C53.6156 13.2574 53.3409 13.0675 53.0293 12.9666C52.7176 12.8658 52.3829 12.8585 52.067 12.9457C51.7512 13.033 51.4684 13.2108 51.2542 13.457C51.0399 13.7031 50.9037 14.0065 50.8627 14.3292C50.8217 14.6519 50.8777 14.9793 51.0236 15.2706C51.2274 15.6621 51.5784 15.9582 52.0006 16.0949C52.4229 16.2315 52.8824 16.1977 53.2797 16.0006Z" fill="white"/>
<path d="M43.0388 17.2705C42.6195 17.4791 42.272 17.8065 42.0402 18.2111C41.8084 18.6156 41.7028 19.0793 41.7367 19.5435C41.7705 20.0076 41.9424 20.4514 42.2304 20.8187C42.5185 21.1859 42.9099 21.4602 43.3551 21.6068C43.8004 21.7534 44.2794 21.7658 44.7317 21.6423C45.184 21.5189 45.5892 21.2651 45.8961 20.9132C46.2031 20.5613 46.3979 20.1269 46.456 19.6652C46.5141 19.2034 46.4329 18.7349 46.2227 18.3189C46.083 18.0426 45.8899 17.7964 45.6543 17.5942C45.4187 17.392 45.1453 17.2378 44.8496 17.1404C44.554 17.0431 44.2419 17.0045 43.9312 17.0268C43.6205 17.0491 43.3172 17.1319 43.0388 17.2705Z" fill="white"/>
<path d="M29.8365 3.30331C30.1647 3.3217 30.4911 3.24335 30.7745 3.07813C31.0579 2.91292 31.2858 2.66821 31.4293 2.37483C31.5729 2.08144 31.6257 1.75249 31.5812 1.42937C31.5367 1.10625 31.3969 0.803415 31.1792 0.558976C30.9616 0.314536 30.676 0.139421 30.3583 0.0556736C30.0406 -0.028074 29.705 -0.0167113 29.3938 0.0883315C29.0825 0.193374 28.8096 0.387402 28.6093 0.645992C28.409 0.904582 28.2903 1.21618 28.2681 1.54155C28.2442 1.98063 28.3953 2.41142 28.6887 2.741C28.9821 3.07058 29.3943 3.27254 29.8365 3.30331Z" fill="white"/>
<path d="M29.8249 13.668C30.2931 13.6929 30.7583 13.5795 31.1615 13.3422C31.5648 13.1048 31.888 12.7541 32.0904 12.3345C32.2927 11.9149 32.3651 11.4452 32.2984 10.9847C32.2316 10.5243 32.0287 10.0939 31.7153 9.74785C31.402 9.40182 30.9922 9.15575 30.5378 9.04076C30.0835 8.92577 29.605 8.94703 29.1628 9.10184C28.7206 9.25665 28.3347 9.53807 28.0537 9.91049C27.7728 10.2829 27.6095 10.7296 27.5845 11.1941C27.5654 11.5032 27.6085 11.8129 27.7111 12.1052C27.8138 12.3976 27.974 12.6668 28.1825 12.8972C28.3909 13.1276 28.6435 13.3146 28.9254 13.4474C29.2074 13.5801 29.5131 13.6559 29.8249 13.6704V13.668Z" fill="white"/>
<path d="M16.9594 37.7294C17.3786 37.5202 17.7258 37.1924 17.9571 36.7874C18.1884 36.3824 18.2934 35.9184 18.2589 35.4542C18.2243 34.99 18.0518 34.5464 17.7631 34.1795C17.4743 33.8126 17.0824 33.5389 16.6368 33.393C16.1912 33.2471 15.712 33.2356 15.2599 33.3599C14.8077 33.4842 14.4029 33.7388 14.0966 34.0914C13.7903 34.444 13.5963 34.8789 13.5391 35.3409C13.482 35.8029 13.5643 36.2713 13.7756 36.6869C14.0589 37.2436 14.5532 37.666 15.1502 37.8614C15.7471 38.0568 16.3978 38.0094 16.9594 37.7294Z" fill="white"/>
<path d="M31.3602 17.1125C30.8675 17.8581 30.6396 18.7454 30.7126 19.6339C30.7855 20.5225 31.1552 21.3615 31.763 22.0182C32.3708 22.6748 33.1821 23.1115 34.0684 23.2592C34.9546 23.4069 35.8652 23.2571 36.6559 22.8335C37.4467 22.4099 38.0724 21.7367 38.434 20.9206C38.7956 20.1044 38.8724 19.1919 38.6523 18.3276C38.4322 17.4632 37.9278 16.6964 37.2188 16.1486C36.5099 15.6007 35.637 15.3031 34.7383 15.3029C34.0679 15.3017 33.4078 15.4666 32.8179 15.7826C32.228 16.0987 31.7269 16.5558 31.3602 17.1125Z" fill="white"/>
<path d="M38.3836 33.8732C38.0244 33.1652 37.4617 32.5788 36.7665 32.1882C36.0713 31.7975 35.275 31.6201 34.4782 31.6785C33.6814 31.7368 32.9199 32.0283 32.2901 32.516C31.6603 33.0037 31.1904 33.6658 30.94 34.4184C30.6895 35.1711 30.6696 35.9805 30.8829 36.7444C31.0962 37.5082 31.5331 38.1921 32.1382 38.7096C32.7434 39.2272 33.4896 39.555 34.2826 39.6518C35.0756 39.7485 35.8797 39.6097 36.5932 39.2531C37.0661 39.0198 37.4881 38.6964 37.8349 38.3013C38.1818 37.9062 38.4468 37.4473 38.6149 36.9506C38.7829 36.4539 38.8507 35.9292 38.8144 35.4065C38.778 34.8839 38.6382 34.3734 38.4029 33.9044C38.4029 33.8888 38.4029 33.8888 38.3836 33.8732Z" fill="white"/>
<path d="M45.4411 33.5871C45.0488 33.3328 44.5892 33.1996 44.1206 33.2043C43.6519 33.2091 43.1952 33.3517 42.8082 33.6139C42.4213 33.8762 42.1214 34.2464 41.9465 34.6778C41.7716 35.1091 41.7296 35.5823 41.8258 36.0373C41.922 36.4923 42.1521 36.9088 42.4869 37.2342C42.8218 37.5595 43.2463 37.779 43.7069 37.8649C44.1675 37.9509 44.6434 37.8994 45.0745 37.717C45.5056 37.5346 45.8725 37.2294 46.1288 36.8402C46.3008 36.5823 46.4195 36.2932 46.4781 35.9896C46.5366 35.6859 46.5338 35.3737 46.4699 35.0711C46.4059 34.7686 46.282 34.4816 46.1054 34.2268C45.9288 33.9721 45.703 33.7546 45.4411 33.5871Z" fill="white"/>
<path d="M53.1826 27.5718C53.2049 27.1761 53.1084 26.7827 52.9053 26.4415C52.7022 26.1002 52.4017 25.8263 52.0417 25.6545C51.6817 25.4827 51.2784 25.4206 50.8829 25.4762C50.4874 25.5318 50.1173 25.7025 49.8196 25.9667C49.5218 26.2309 49.3098 26.5768 49.2102 26.9606C49.1107 27.3444 49.1281 27.7489 49.2602 28.1229C49.3924 28.4968 49.6334 28.8235 49.9528 29.0616C50.2721 29.2997 50.6555 29.4385 51.0544 29.4604C51.5882 29.4866 52.111 29.3031 52.5093 28.9495C52.9077 28.596 53.1496 28.101 53.1826 27.5718Z" fill="white"/>
<path d="M58.7661 26.1428C58.5081 26.1285 58.2516 26.1904 58.029 26.3208C57.8064 26.4512 57.6279 26.6441 57.5158 26.8751C57.4038 27.1062 57.3634 27.365 57.3997 27.6189C57.4359 27.8727 57.5473 28.1102 57.7196 28.3013C57.892 28.4923 58.1176 28.6284 58.3679 28.6923C58.6182 28.7561 58.882 28.7449 59.1259 28.66C59.3697 28.5752 59.5828 28.4204 59.738 28.2154C59.8932 28.0104 59.9837 27.7644 59.9979 27.5084C60.0145 27.1659 59.8945 26.8307 59.6641 26.5752C59.4336 26.3197 59.1111 26.1644 58.7661 26.1428Z" fill="white"/>
<path d="M53.5028 38.9994C53.2274 38.821 52.9048 38.7276 52.5758 38.731C52.2469 38.7345 51.9264 38.8346 51.6547 39.0187C51.3831 39.2028 51.1727 39.4627 51.0499 39.7655C50.9271 40.0682 50.8976 40.4003 50.965 40.7197C51.0324 41.0391 51.1938 41.3315 51.4287 41.56C51.6636 41.7884 51.9615 41.9427 52.2848 42.0032C52.608 42.0638 52.9421 42.0279 53.2448 41.9001C53.5475 41.7723 53.8052 41.5584 53.9854 41.2853C54.225 40.9182 54.3088 40.4719 54.2184 40.0438C54.128 39.6157 53.8708 39.2403 53.5028 38.9994Z" fill="white"/>
<path d="M16.4166 51.0934C16.2018 50.9513 15.9493 50.8755 15.6911 50.8757C15.4328 50.8759 15.1805 50.9521 14.9659 51.0946C14.7513 51.2371 14.5842 51.4396 14.4856 51.6763C14.387 51.9131 14.3614 52.1735 14.4121 52.4247C14.4627 52.6759 14.5873 52.9065 14.7701 53.0874C14.9529 53.2684 15.1857 53.3915 15.439 53.4411C15.6923 53.4908 15.9548 53.4648 16.1932 53.3665C16.4316 53.2682 16.6353 53.1019 16.7785 52.8887C16.8761 52.7481 16.9442 52.5895 16.9788 52.4222C17.0135 52.255 17.0139 52.0826 16.9802 51.9152C16.9464 51.7477 16.8792 51.5888 16.7824 51.4476C16.6855 51.3065 16.5611 51.186 16.4166 51.0934Z" fill="white"/>
<path d="M43.8073 50.9665C43.6539 51.0436 43.5174 51.1499 43.4054 51.2794C43.2935 51.4088 43.2083 51.5589 43.1548 51.721C43.1013 51.8831 43.0805 52.054 43.0937 52.2241C43.1068 52.3942 43.1535 52.56 43.2312 52.7121C43.3089 52.8643 43.4161 52.9998 43.5466 53.1108C43.6771 53.2219 43.8283 53.3064 43.9917 53.3594C44.1551 53.4125 44.3275 53.4331 44.4989 53.4201C44.6703 53.4071 44.8375 53.3607 44.9908 53.2836C45.3006 53.1279 45.5353 52.8566 45.6433 52.5292C45.7514 52.2018 45.7239 51.8453 45.5669 51.538C45.41 51.2308 45.1364 50.9979 44.8064 50.8908C44.4764 50.7836 44.117 50.8108 43.8073 50.9665Z" fill="white"/>
<path d="M28.64 37.8838C29.0785 37.2199 29.3086 36.4418 29.3013 35.6481C29.294 34.8543 29.0496 34.0806 28.599 33.4246C28.1484 32.7687 27.5118 32.2601 26.7697 31.9631C26.0277 31.6661 25.2135 31.5941 24.4302 31.7562C23.647 31.9182 22.9297 32.3071 22.3692 32.8736C21.8087 33.4401 21.4302 34.1588 21.2814 34.9387C21.1327 35.7187 21.2205 36.5248 21.5336 37.2553C21.8468 37.9857 22.3713 38.6077 23.0408 39.0424C23.9393 39.6213 25.0321 39.8244 26.081 39.6074C27.1298 39.3904 28.0497 38.7708 28.64 37.8838Z" fill="white"/>
<path d="M20.5598 44.0309C20.226 43.8128 19.8345 43.6979 19.4348 43.7006C19.0351 43.7033 18.6452 43.8235 18.3144 44.0461C17.9836 44.2686 17.7267 44.5834 17.5763 44.9508C17.4259 45.3181 17.3887 45.7215 17.4693 46.1098C17.55 46.4982 17.7449 46.8541 18.0294 47.1325C18.314 47.411 18.6754 47.5994 19.0679 47.6741C19.4605 47.7488 19.8665 47.7063 20.2347 47.5521C20.6029 47.3978 20.9167 47.1387 21.1365 46.8076C21.2851 46.5885 21.3882 46.3423 21.4397 46.0833C21.4911 45.8242 21.49 45.5576 21.4363 45.299C21.3826 45.0404 21.2774 44.7951 21.1269 44.5773C20.9764 44.3595 20.7836 44.1738 20.5598 44.0309Z" fill="white"/>
<path d="M29.9847 51.6967C29.6564 51.6783 29.3301 51.7567 29.0467 51.9219C28.7632 52.0871 28.5354 52.3318 28.3918 52.6252C28.2483 52.9186 28.1954 53.2475 28.2399 53.5707C28.2844 53.8938 28.4243 54.1966 28.6419 54.4411C28.8595 54.6855 29.1452 54.8606 29.4629 54.9444C29.7806 55.0281 30.1162 55.0167 30.4274 54.9117C30.7386 54.8067 31.0116 54.6126 31.2119 54.354C31.4122 54.0955 31.5309 53.7839 31.5531 53.4585C31.577 53.0194 31.4259 52.5886 31.1325 52.259C30.8391 51.9294 30.4268 51.7275 29.9847 51.6967Z" fill="white"/>
<path d="M30 41.3319C29.5315 41.3068 29.0661 41.42 28.6625 41.6573C28.2589 41.8946 27.9354 42.2453 27.7327 42.6651C27.5301 43.0848 27.4574 43.5547 27.524 44.0154C27.5906 44.4761 27.7934 44.9068 28.1067 45.2532C28.4201 45.5995 28.8299 45.8459 29.2845 45.9612C29.739 46.0765 30.2177 46.0554 30.6602 45.9008C31.1027 45.7461 31.489 45.4647 31.7702 45.0922C32.0515 44.7198 32.2151 44.2729 32.2404 43.8082C32.2593 43.4992 32.2161 43.1896 32.1134 42.8973C32.0107 42.605 31.8504 42.3358 31.642 42.1055C31.4336 41.8751 31.1811 41.6881 30.8992 41.5553C30.6173 41.4225 30.3117 41.3466 30 41.3319Z" fill="white"/>
<path d="M39.7112 43.8681C39.3567 44.0492 39.0642 44.3303 38.8703 44.6759C38.6765 45.0216 38.5899 45.4164 38.6216 45.8107C38.6533 46.205 38.8018 46.5812 39.0485 46.892C39.2951 47.2028 39.6289 47.4343 40.0078 47.5574C40.3867 47.6806 40.7938 47.6899 41.178 47.5841C41.5622 47.4783 41.9063 47.2622 42.1671 46.9629C42.4278 46.6637 42.5935 46.2946 42.6434 45.9022C42.6933 45.5097 42.6251 45.1114 42.4474 44.7573C42.2022 44.2807 41.7768 43.9196 41.2641 43.753C40.7515 43.5864 40.1932 43.6278 39.7112 43.8681Z" fill="white"/>
</g>
<defs>
<clipPath id="clip0_483_2485">
<rect width="60" height="55" fill="white"/>
</clipPath>
</defs>
</svg>
