<svg width="25" height="15" viewBox="0 0 25 15" fill="none" xmlns="http://www.w3.org/2000/svg">
<path d="M4 14V0.5M4 14L1 10.6346M4 14L7 10.6346" stroke="white" stroke-linecap="round" stroke-linejoin="round"/>
<path d="M8 9.28571C8 9.09627 8.07463 8.91459 8.20747 8.78064C8.3403 8.64668 8.52047 8.57143 8.70833 8.57143H12.9583C13.1462 8.57143 13.3264 8.64668 13.4592 8.78064C13.592 8.91459 13.6667 9.09627 13.6667 9.28571C13.6667 9.47515 13.592 9.65684 13.4592 9.79079C13.3264 9.92475 13.1462 10 12.9583 10H8.70833C8.52047 10 8.3403 9.92475 8.20747 9.79079C8.07463 9.65684 8 9.47515 8 9.28571ZM8 5C8 4.81056 8.07463 4.62888 8.20747 4.49492C8.3403 4.36097 8.52047 4.28571 8.70833 4.28571H18.625C18.8129 4.28571 18.993 4.36097 19.1259 4.49492C19.2587 4.62888 19.3333 4.81056 19.3333 5C19.3333 5.18944 19.2587 5.37112 19.1259 5.50508C18.993 5.63903 18.8129 5.71429 18.625 5.71429H8.70833C8.52047 5.71429 8.3403 5.63903 8.20747 5.50508C8.07463 5.37112 8 5.18944 8 5ZM8 0.714286C8 0.524845 8.07463 0.343164 8.20747 0.20921C8.3403 0.075255 8.52047 0 8.70833 0H24.2917C24.4795 0 24.6597 0.075255 24.7925 0.20921C24.9254 0.343164 25 0.524845 25 0.714286C25 0.903726 24.9254 1.08541 24.7925 1.21936C24.6597 1.35332 24.4795 1.42857 24.2917 1.42857H8.70833C8.52047 1.42857 8.3403 1.35332 8.20747 1.21936C8.07463 1.08541 8 0.903726 8 0.714286Z" fill="white"/>
</svg>
