<svg width="12" height="12" viewBox="0 0 12 12" fill="none" xmlns="http://www.w3.org/2000/svg">
<g clip-path="url(#clip0_58_772)">
<path d="M8.59499 8.59649C7.36874 9.82499 5.73749 10.5 4.00049 10.5C3.27674 10.5 2.56049 10.377 1.86524 10.1325C1.62224 9.44024 1.49999 8.72249 1.49999 8.00024C1.49999 4.41449 4.41374 1.49999 7.99874 1.49999C8.72099 1.49999 9.43874 1.62224 10.1325 1.86524C10.3762 2.55974 10.5 3.27674 10.5 3.99899C10.5 5.73524 9.82349 7.36799 8.59499 8.59649ZM10.9897 1.29674C10.9395 1.16474 10.836 1.05974 10.7047 1.01024C9.82949 0.671244 8.91974 0.500244 8.00024 0.500244C3.86399 0.500244 0.500244 3.86324 0.500244 8.00024C0.500244 8.91899 0.671244 9.82874 1.01024 10.7032C1.06124 10.8345 1.16474 10.938 1.29524 10.9882C2.17049 11.3272 3.08024 11.4997 4.00049 11.4997C6.00299 11.4997 7.88699 10.7197 9.30299 9.30224C10.719 7.88474 11.5005 6.00224 11.5005 3.99974C11.5005 3.08174 11.328 2.17124 10.9905 1.29599L10.9897 1.29674ZM7.39724 3.18899C7.20074 2.99399 6.88424 2.99399 6.68924 3.18899C6.49274 3.38399 6.49274 3.70049 6.68924 3.89624L7.04174 4.25024L5.99999 5.29349L5.46749 4.76249C5.27249 4.56749 4.95524 4.56749 4.76024 4.76249C4.56524 4.95749 4.56374 5.27474 4.76024 5.47049L5.28974 6.00149L4.24724 7.04399L3.89324 6.69149C3.69824 6.49499 3.38099 6.49499 3.18599 6.69149C2.99099 6.88649 2.99099 7.20149 3.18599 7.39799L4.60049 8.81174C4.79549 9.00674 5.11199 9.00524 5.30774 8.81174C5.50274 8.61524 5.50274 8.29874 5.30774 8.10374L4.95374 7.75124L5.99624 6.70724L6.52724 7.23674C6.75524 7.46399 7.07474 7.39724 7.23449 7.23674C7.42949 7.04174 7.42949 6.72524 7.23449 6.52949L6.70499 5.99999L7.74749 4.95749L8.10149 5.30999C8.33399 5.54474 8.65649 5.46224 8.80874 5.30999C9.00374 5.11499 9.00374 4.79849 8.80874 4.60349L7.39649 3.18974L7.39724 3.18899Z" fill="#878C91"/>
</g>
<defs>
<clipPath id="clip0_58_772">
<rect width="12" height="12" fill="white"/>
</clipPath>
</defs>
</svg>
