<svg width="66" height="68" viewBox="0 0 66 68" fill="none" xmlns="http://www.w3.org/2000/svg">
<g clip-path="url(#clip0_157_1518)">
<path d="M10.0282 7.09444L8.43174 5.4511C8.3751 6.18301 8.07325 6.87424 7.5752 7.41259C7.07716 7.95095 6.41215 8.30481 5.68813 8.41673L7.33077 9.94307L66 64.7542L10.0282 7.09444ZM13.9013 22.981V55.7036C14.4591 55.1152 15.2174 54.7586 16.0255 54.7046C16.8336 54.6507 17.6324 54.9034 18.2631 55.4124V33.4573L53.6232 68.0001H59.7145L13.9013 22.981ZM55.0839 15.42C54.2416 15.4232 53.4313 15.0972 52.825 14.5112V36.6582L18.1179 2.11816H11.4034L57.1909 47.0407V14.6377C56.6051 15.1435 55.8572 15.4212 55.0839 15.42Z" fill="#349EA3"/>
<path d="M5.19526 1.60063e-06C4.1682 -0.000805478 3.16396 0.303617 2.30956 0.874769C1.45516 1.44592 0.788977 2.25815 0.395256 3.20872C0.00153363 4.1593 -0.102037 5.20553 0.0976412 6.2151C0.29732 7.22466 0.791279 8.15222 1.51705 8.88045C2.24281 9.60868 3.16779 10.1049 4.17499 10.3063C5.1822 10.5077 6.22638 10.4053 7.1755 10.012C8.12461 9.6187 8.93602 8.95218 9.5071 8.09675C10.0782 7.24131 10.3833 6.23538 10.3838 5.20618C10.3835 3.8267 9.83691 2.50373 8.86414 1.52766C7.89137 0.551581 6.57186 0.00216374 5.19526 1.60063e-06ZM5.68805 8.40716C5.52512 8.43347 5.36029 8.44622 5.19526 8.44525C4.55236 8.44605 3.92367 8.25577 3.3887 7.89846C2.85374 7.54116 2.43655 7.03289 2.1899 6.43794C1.94326 5.843 1.87824 5.18812 2.00307 4.55614C2.1279 3.92416 2.43697 3.34348 2.89119 2.88755C3.34541 2.43162 3.92436 2.12094 4.55482 1.99479C5.18527 1.86864 5.8389 1.9327 6.43302 2.17887C7.02713 2.42504 7.53504 2.84225 7.8925 3.37773C8.24995 3.91321 8.44089 4.54289 8.44116 5.18713V5.44153C8.38384 6.17474 8.08055 6.86692 7.58065 7.40541C7.08076 7.94389 6.4137 8.29696 5.68805 8.40716Z" fill="#349EA3"/>
<path d="M55.0839 6.96509C53.728 6.99617 52.4381 7.55775 51.4901 8.52969C50.5422 9.50163 50.0114 10.8067 50.0114 12.1658C50.0114 13.5249 50.5422 14.83 51.4901 15.802C52.4381 16.7739 53.728 17.3355 55.0839 17.3666C55.8101 17.3689 56.5285 17.2159 57.1909 16.9176C58.2785 16.4344 59.1674 15.5913 59.7086 14.5295C60.2498 13.4677 60.4104 12.2518 60.1635 11.0855C59.9166 9.91918 59.2772 8.87334 58.3524 8.12319C57.4277 7.37305 56.2737 6.96418 55.0839 6.96509ZM57.1909 14.6376C56.6279 15.119 55.9178 15.3931 55.1781 15.4146C54.4384 15.4361 53.7136 15.2037 53.1237 14.7559C52.5339 14.3081 52.1145 13.6717 51.935 12.9523C51.7555 12.2329 51.8267 11.4737 52.1367 10.8004C52.4468 10.1271 52.9772 9.58014 53.6399 9.25025C54.3027 8.92036 55.058 8.82729 55.7808 8.98649C56.5035 9.14568 57.1503 9.54757 57.6139 10.1256C58.0775 10.7035 58.3301 11.4229 58.3298 12.1645C58.3297 12.6347 58.2278 13.0993 58.0311 13.5263C57.8345 13.9532 57.5478 14.3324 57.1909 14.6376Z" fill="#349EA3"/>
<path d="M18.2699 53.165C17.2423 52.7291 16.1018 52.6366 15.0176 52.9011C13.9333 53.1656 12.963 53.7731 12.2502 54.6335C11.5375 55.494 11.1204 56.5616 11.0606 57.6782C11.0009 58.7949 11.3017 59.9011 11.9185 60.833C12.5353 61.7649 13.4353 62.4729 14.4851 62.8521C15.5349 63.2312 16.6786 63.2614 17.7469 62.9382C18.8152 62.6149 19.7511 61.9554 20.416 61.0573C21.0809 60.1593 21.4394 59.0704 21.4384 57.9522C21.4385 56.93 21.138 55.9304 20.5745 55.0782C20.011 54.2261 19.2094 53.5593 18.2699 53.1609V53.165ZM16.2336 61.209C15.5921 61.2076 14.9653 61.0158 14.4325 60.6578C13.8997 60.2997 13.4847 59.7915 13.24 59.1973C12.9952 58.603 12.9317 57.9495 13.0574 57.3191C13.183 56.6887 13.4923 56.1097 13.9461 55.6553C14.3999 55.201 14.9779 54.8915 15.6071 54.7661C16.2363 54.6407 16.8885 54.7049 17.4813 54.9507C18.074 55.1965 18.5809 55.6127 18.9377 56.1469C19.2946 56.6812 19.4855 57.3094 19.4863 57.9522C19.4864 58.3797 19.4025 58.8031 19.2392 59.1981C19.0759 59.5931 18.8364 59.9519 18.5345 60.254C18.2326 60.5562 17.8743 60.7957 17.4799 60.9588C17.0855 61.122 16.6629 61.2056 16.2363 61.2049L16.2336 61.209Z" fill="#349EA3"/>
</g>
<defs>
<clipPath id="clip0_157_1518">
<rect width="66" height="68" fill="white"/>
</clipPath>
</defs>
</svg>
