<svg width="71" height="44" viewBox="0 0 71 44" fill="none" xmlns="http://www.w3.org/2000/svg">
<path d="M14.527 8.49183C26.0887 -2.83061 44.8298 -2.83061 56.4065 8.49183L57.7975 9.85291C58.3808 10.4213 58.3808 11.3337 57.7975 11.902L53.0412 16.5686C52.757 16.8528 52.2784 16.8528 51.9942 16.5686L50.0797 14.699C42.0179 6.80169 28.9305 6.80169 20.8687 14.699L18.8196 16.7032C18.5354 16.9874 18.0568 16.9874 17.7726 16.7032L13.0014 12.0366C12.418 11.4683 12.418 10.5559 13.0014 9.98752L14.527 8.49183ZM66.2482 18.1241L70.481 22.2672C71.0644 22.8356 71.0644 23.7479 70.481 24.3163L51.381 43.0275C50.7977 43.5959 49.8703 43.5959 49.287 43.0275L35.721 29.7457C35.5714 29.6111 35.3471 29.6111 35.1975 29.7457L21.6465 43.0275C21.0632 43.5959 20.1358 43.5959 19.5525 43.0275L0.437492 24.3313C-0.145831 23.7629 -0.145831 22.8505 0.437492 22.2822L4.67032 18.1391C5.25364 17.5707 6.18097 17.5707 6.7643 18.1391L20.3303 31.4209C20.4798 31.5555 20.7042 31.5555 20.8538 31.4209L34.4048 18.1391C34.9881 17.5707 35.9155 17.5707 36.4988 18.1391L50.0648 31.4209C50.2143 31.5555 50.4387 31.5555 50.5883 31.4209L64.1542 18.1391C64.7226 17.5558 65.6649 17.5558 66.2482 18.1241Z" fill="#3A99FB"/>
</svg>
