<svg width="1917" height="2214" viewBox="0 0 1917 2214" fill="none" xmlns="http://www.w3.org/2000/svg">
<g opacity="0.05">
<mask id="mask0_879_2934" style="mask-type:luminance" maskUnits="userSpaceOnUse" x="0" y="0" width="1917" height="2214">
<path d="M1917 0H0V2213.9H1917V0Z" fill="white"/>
</mask>
<g mask="url(#mask0_879_2934)">
<path d="M185.521 400.17L211.259 201.379L474.495 150.912L185.521 400.17Z" fill="#A90849"/>
<path d="M185.521 400.17L511.596 403.102L474.495 150.912L185.521 400.17Z" fill="#E40850"/>
<path d="M737.079 465.179L698.426 189.042L474.495 150.912L737.079 465.179Z" fill="#C80849"/>
<path d="M737.079 465.179L511.595 403.102L474.495 150.912L737.079 465.179Z" fill="#A90849"/>
<path d="M737.081 465.178L698.428 189.041L947.593 207.707L737.081 465.178Z" fill="#A90849"/>
<path d="M737.08 465.178L937.809 432.056L947.592 207.707L737.08 465.178Z" fill="#8F083D"/>
<path d="M1125.12 445.72L1163.33 138.131L947.593 207.707L1125.12 445.72Z" fill="#A90849"/>
<path d="M1125.12 445.72L937.809 432.056L947.592 207.707L1125.12 445.72Z" fill="#E40850"/>
<path d="M1125.12 445.72L1163.32 138.131L1365.38 210.869L1125.12 445.72Z" fill="#BA0846"/>
<path d="M1125.12 445.72L1437.65 379.939L1365.38 210.869L1125.12 445.72Z" fill="#A90849"/>
<path d="M1634.22 445.721L1607.66 156.318L1365.38 210.87L1634.22 445.721Z" fill="#E40850"/>
<path d="M1634.22 445.72L1437.65 379.939L1365.38 210.869L1634.22 445.72Z" fill="#C80849"/>
<path d="M1634.22 445.721L1607.66 156.318L1821.92 198.218L1634.22 445.721Z" fill="#A90849"/>
<path d="M1634.22 445.719L1835.24 380.92L1821.92 198.217L1634.22 445.719Z" fill="#BA0846"/>
<path d="M185.521 400.17L230.525 602.402L355.328 559.684L185.521 400.17Z" fill="#8F083D"/>
<path d="M185.521 400.17L511.596 403.102L355.328 559.684L185.521 400.17Z" fill="#A90849"/>
<path d="M733.61 468.471L632.731 619.647L349.858 556.404L733.61 468.471Z" fill="#8F083D"/>
<path d="M737.08 465.179L511.596 403.103L355.328 559.685L737.08 465.179Z" fill="#9E0841"/>
<path d="M737.08 465.179L937.809 432.057L874.465 669.017L737.08 465.179Z" fill="#A90849"/>
<path d="M1125.12 445.721L1121.71 641.22L874.465 669.017L1125.12 445.721Z" fill="#E40850"/>
<path d="M1125.12 445.721L937.809 432.057L874.465 669.017L1125.12 445.721Z" fill="#9E0841"/>
<path d="M1125.12 445.72L1437.65 379.938L1391.51 627.406L1125.12 445.72Z" fill="#D6084C"/>
<path d="M1634.22 445.72L1437.65 379.938L1391.51 627.406L1634.22 445.72Z" fill="#A90849"/>
<path d="M1634.22 445.72L1835.24 380.921L1868.17 602.402L1634.22 445.72Z" fill="#9E0841"/>
<path d="M345.417 572.157L355.584 568.232L240.692 898.397L230.525 902.322L345.417 572.157Z" fill="#700731"/>
<path d="M229.395 602.138L239.561 598.213L355.584 568.232L345.418 572.157L229.395 602.138Z" fill="#5B0527"/>
<path d="M345.418 572.157L230.526 902.322L229.395 602.138L345.418 572.157Z" fill="#7A0734"/>
<path d="M364.772 577.796L374.588 576.24L449.172 823.429L439.363 824.985L364.772 577.796Z" fill="#C40844"/>
<path d="M439.363 824.985L449.172 823.429L240.851 896.511L231.036 898.072L439.363 824.985Z" fill="#720528"/>
<path d="M364.772 577.796L439.363 824.984L231.036 898.072L364.772 577.796Z" fill="#AA0D3F"/>
<path d="M361.526 566.766L371.693 562.842L636.149 622.544L625.983 626.469L361.526 566.766Z" fill="#73062E"/>
<path d="M625.982 626.469L636.149 622.544L698.477 893.619L688.311 897.544L625.982 626.469Z" fill="#870737"/>
<path d="M361.526 566.767L625.983 626.469L688.311 897.545L361.526 566.767Z" fill="#72062D"/>
<path d="M338.702 609.977L348.824 601.609L700.223 895.998L690.101 904.366L338.702 609.977Z" fill="#B30843"/>
<path d="M338.702 609.978L690.101 904.367L480.675 832.197L338.702 609.978Z" fill="#7C062E"/>
<path d="M860.433 675.554L874.018 673.475L919.885 816.642L906.3 818.722L860.433 675.554Z" fill="#C80849"/>
<path d="M906.3 818.722L919.886 816.643L709.559 882.23L695.974 884.309L906.3 818.722Z" fill="#6B0527"/>
<path d="M860.433 675.554L906.3 818.721L695.974 884.309L860.433 675.554Z" fill="#930635"/>
<path d="M915.91 660.008L906.147 667.937L1153.77 853.646L1163.54 845.718L915.91 660.008Z" fill="#600424"/>
<path d="M916.045 659.995L1115.87 646.406L1163.48 845.866L916.045 659.995Z" fill="#B80846"/>
<path d="M877.622 678.373L887.744 670.01L1173.21 869.978L1163.09 878.346L877.622 678.373Z" fill="#A20847"/>
<path d="M877.622 678.373L1163.09 878.346L952.193 809.482L877.622 678.373Z" fill="#720732"/>
<path d="M1375.81 631.326L1385.98 627.406L1209.69 891.365L1199.52 895.29L1375.81 631.326Z" fill="#7A0836"/>
<path d="M1133.29 663.646L1143.46 659.721L1385.98 627.406L1375.81 631.326L1133.29 663.646Z" fill="#770836"/>
<path d="M1375.81 631.326L1199.52 895.29L1133.29 663.646L1375.81 631.326Z" fill="#970842"/>
<path d="M1375.15 659.198L1385.27 650.83L1421.75 801.139L1411.64 809.507L1375.15 659.198Z" fill="#790733"/>
<path d="M1223.32 868.492L1375.15 659.198L1411.64 809.507L1223.32 868.492Z" fill="#600529"/>
<path d="M1573.59 612.66L1583.72 604.297L1727.89 841.023L1717.77 849.391L1573.59 612.66Z" fill="#94083C"/>
<path d="M1381.04 628.393L1391.17 620.025L1583.72 604.297L1573.59 612.66L1381.04 628.393Z" fill="#670529"/>
<path d="M1573.59 612.66L1717.77 849.391L1381.04 628.394L1573.59 612.66Z" fill="#69052A"/>
<path d="M1449.76 818.279L1432.55 813.207L1433.17 683.35L1450.38 688.421L1449.76 818.279Z" fill="#82052D"/>
<path d="M1450.38 688.421L1637.67 803.253L1449.76 818.279L1450.38 688.421Z" fill="#C60845"/>
<path d="M1844.77 614.042L1854.93 610.117L1734.67 830.412L1724.51 834.331L1844.77 614.042Z" fill="#860739"/>
<path d="M1602.96 583.981L1613.12 580.057L1854.93 610.117L1844.77 614.042L1602.96 583.981Z" fill="#95083F"/>
<path d="M1844.77 614.042L1724.51 834.332L1602.96 583.981L1844.77 614.042Z" fill="#9E0843"/>
<path d="M1832.5 620.534L1842.62 612.166L1892.91 803.861L1882.79 812.229L1832.5 620.534Z" fill="#91083E"/>
<path d="M1832.5 620.534L1882.79 812.229L1775.74 844.948L1832.5 620.534Z" fill="#720732"/>
<path d="M270.916 928.852L288.099 932.911L374.198 1064.98L357.008 1060.93L270.916 928.852Z" fill="#990841"/>
<path d="M270.917 928.852L357.009 1060.93L258.923 1008.69L270.917 928.852Z" fill="#700731"/>
<path d="M426.487 992.64L416.723 1000.57L262.2 873.993L271.958 866.063L426.487 992.64Z" fill="#520422"/>
<path d="M429.381 790.068L426.486 992.639L271.957 866.063L429.381 790.068Z" fill="#9C083F"/>
<path d="M535.405 1112.05L525.328 1113.53L642.335 926.134L652.419 924.643L535.405 1112.05Z" fill="#77052B"/>
<path d="M652.419 924.643L759.688 1048.89L535.405 1112.05L652.419 924.643Z" fill="#D8084C"/>
<path d="M483.722 873.158L500.904 877.213L626.877 935.838L609.694 931.784L483.722 873.158Z" fill="#9C0844"/>
<path d="M609.695 931.784L626.877 935.838L443.702 1093.49L432.96 1090.96L609.695 931.784Z" fill="#95083F"/>
<path d="M483.722 873.158L609.695 931.784L432.96 1090.96L483.722 873.158Z" fill="#C10B56"/>
<path d="M797.485 1071.31L780.276 1066.24L740.492 935.061L757.707 940.132L797.485 1071.31Z" fill="#600424"/>
<path d="M757.706 940.132L915.443 1044.74L797.484 1071.31L757.706 940.132Z" fill="#A2073A"/>
<path d="M945.841 1050.09L934.141 1044.46L747.661 877.892L759.368 883.517L945.841 1050.09Z" fill="#560525"/>
<path d="M759.368 883.517L747.661 877.891L935.451 822.951L947.157 828.576L759.368 883.517Z" fill="#770733"/>
<path d="M947.157 828.576L945.841 1050.09L759.368 883.516L947.157 828.576Z" fill="#94083F"/>
<path d="M1225.66 1070.19L1215.07 1071.76L1038.12 1081.84L1048.71 1080.28L1225.66 1070.19Z" fill="#720528"/>
<path d="M1048.71 1080.28L1038.12 1081.84L1150.81 935.529L1161.4 933.963L1048.71 1080.28Z" fill="#792B44"/>
<path d="M1161.4 933.963L1225.66 1070.19L1048.71 1080.28L1161.4 933.963Z" fill="#D8084C"/>
<path d="M1120.39 875.303L950.818 833.812L1014.4 1039.4L1120.39 875.303Z" fill="#8F083D"/>
<path d="M1231.73 933.963L1220.03 928.338L1429.77 1011.38L1441.47 1017L1231.73 933.963Z" fill="#640528"/>
<path d="M1271.63 1085.76L1259.92 1080.13L1220.03 928.338L1231.73 933.963L1271.63 1085.76Z" fill="#4F0420"/>
<path d="M1231.73 933.963L1441.47 1017L1271.63 1085.76L1231.73 933.963Z" fill="#8A0737"/>
<path d="M1447.46 929.774L1437.69 937.703L1183.04 894.377L1192.8 886.448L1447.46 929.774Z" fill="#660425"/>
<path d="M1366.98 814.488L1447.46 929.774L1192.8 886.449L1366.98 814.488Z" fill="#C50848"/>
<path d="M1697.99 866.093L1708.11 857.725L1651.92 997.052L1641.79 1005.42L1697.99 866.093Z" fill="#82062F"/>
<path d="M1502.79 960.02L1512.91 951.652L1708.11 857.725L1697.99 866.093L1502.79 960.02Z" fill="#700528"/>
<path d="M1697.99 866.093L1641.79 1005.42L1502.79 960.02L1697.99 866.093Z" fill="#B80843"/>
<path d="M1419.55 836.434L1429.72 832.51L1697.04 840.828L1686.87 844.747L1419.55 836.434Z" fill="#6C062D"/>
<path d="M1686.87 844.748L1697.04 840.828L1496.19 955.521L1486.03 959.446L1686.87 844.748Z" fill="#560525"/>
<path d="M1419.55 836.435L1686.87 844.748L1486.03 959.445L1419.55 836.435Z" fill="#7A0734"/>
<path d="M1694.86 880.884L1704.98 872.516L1835.67 912.161L1825.55 920.529L1694.86 880.884Z" fill="#8F083D"/>
<path d="M1825.55 920.529L1835.67 912.161L1734.02 1014.69L1723.9 1023.05L1825.55 920.529Z" fill="#560526"/>
<path d="M1694.86 880.884L1825.55 920.529L1723.9 1023.05L1694.86 880.884Z" fill="#720732"/>
<path d="M1847.28 827.764L1860.87 825.689L1858.01 947.892L1844.42 949.972L1847.28 827.764Z" fill="#AB073F"/>
<path d="M1847.28 827.764L1844.42 949.972L1759.82 842.719L1847.28 827.764Z" fill="#8A0632"/>
<path d="M291.186 1219.06L279.505 1220.79L246.303 1052.18L257.984 1050.45L291.186 1219.06Z" fill="#650426"/>
<path d="M257.983 1050.45L373.802 1075.39L291.186 1219.06L257.983 1050.45Z" fill="#BE0847"/>
<path d="M405.995 1127.46L419.58 1125.38L443.594 1213.68L430.015 1215.75L405.995 1127.46Z" fill="#9E0843"/>
<path d="M430.015 1215.75L443.594 1213.67L320.682 1239.66L307.097 1241.73L430.015 1215.75Z" fill="#560525"/>
<path d="M405.995 1127.46L430.015 1215.75L307.097 1241.73L405.995 1127.46Z" fill="#750732"/>
<path d="M479.052 1113.04L489.212 1109.12L738.671 1153.92L728.505 1157.84L479.052 1113.04Z" fill="#8C0632"/>
<path d="M728.505 1157.84L738.672 1153.92L675.66 1243.4L669.327 1245.85L728.505 1157.84Z" fill="#74052A"/>
<path d="M479.052 1113.04L728.505 1157.84L669.327 1245.85L479.052 1113.04Z" fill="#900635"/>
<path d="M545.061 1264.66L535.744 1259.23L539.393 1158.92L556.607 1164L545.061 1264.66Z" fill="#6F0629"/>
<path d="M556.607 1164L655.339 1296.46L545.061 1264.66L556.607 1164Z" fill="#A2073A"/>
<path d="M861.295 1089.37L871.417 1081L803.805 1228.99L793.683 1237.36L861.295 1089.37Z" fill="#6E062A"/>
<path d="M769.439 1153.48L779.555 1145.12L871.418 1081L861.296 1089.37L769.439 1153.48Z" fill="#5D0424"/>
<path d="M861.296 1089.37L793.683 1237.36L769.439 1153.48L861.296 1089.37Z" fill="#7C062E"/>
<path d="M841.838 1228.12L979.625 1178.13L939.496 1090.37L841.838 1228.12Z" fill="#A90849"/>
<path d="M1222.97 1064.79L1238.56 1068.47L1214.18 1208.66L1198.59 1204.98L1222.97 1064.79Z" fill="#AA0841"/>
<path d="M1103.87 1096.07L1222.98 1064.79L1198.59 1204.98L1103.87 1096.07Z" fill="#79062E"/>
<path d="M464.565 1374.45L473.364 1373.1L517.283 1480.42L508.484 1481.77L464.565 1374.45Z" fill="#CA0848"/>
<path d="M464.565 1374.45L508.484 1481.77L432.359 1433.22L464.565 1374.45Z" fill="#930635"/>
<path d="M1241.87 1296.93L1224.66 1291.85L1259.63 1126.36L1276.85 1131.43L1241.87 1296.93Z" fill="#68052C"/>
<path d="M1276.85 1131.43L1259.64 1126.36L1378.85 1039.46L1396.06 1044.53L1276.85 1131.43Z" fill="#800736"/>
<path d="M1396.06 1044.53L1241.87 1296.93L1276.85 1131.43L1396.06 1044.53Z" fill="#94083F"/>
<path d="M1410 1030.01L1420.11 1021.64L1465.74 1176.03L1455.63 1184.39L1410 1030.01Z" fill="#B90842"/>
<path d="M1410 1030.01L1455.63 1184.39L1319.84 1233.25L1410 1030.01Z" fill="#8F0634"/>
<path d="M1496.53 1014L1479.32 1008.93L1580.96 1015.54L1598.18 1020.61L1496.53 1014Z" fill="#6F0730"/>
<path d="M1653.19 1165.76L1635.98 1160.68L1479.32 1008.93L1496.53 1014L1653.19 1165.76Z" fill="#560525"/>
<path d="M1496.53 1014L1598.18 1020.61L1653.19 1165.76L1496.53 1014Z" fill="#94083F"/>
<path d="M1625.17 1191.11L1613.33 1190.74L1483.54 1150.47L1495.37 1150.85L1625.17 1191.11Z" fill="#4F0420"/>
<path d="M1495.37 1150.85L1483.54 1150.47L1521.11 988.645L1532.95 989.019L1495.37 1150.85Z" fill="#500421"/>
<path d="M1532.95 989.019L1625.17 1191.11L1495.38 1150.85L1532.95 989.019Z" fill="#C10A52"/>
<path d="M1202.09 1672.37L1196.28 1672.19L1132.52 1652.41L1138.34 1652.59L1202.09 1672.37Z" fill="#4F0420"/>
<path d="M1138.34 1652.59L1132.52 1652.41L1150.98 1572.92L1156.79 1573.1L1138.34 1652.59Z" fill="#500421"/>
<path d="M1156.79 1573.1L1202.09 1672.37L1138.34 1652.6L1156.79 1573.1Z" fill="#C10A52"/>
<path d="M1780.01 1076.19L1768.31 1070.57L1873.31 1058.26L1885 1063.88L1780.01 1076.19Z" fill="#660529"/>
<path d="M1758.97 1259.29L1747.27 1253.67L1768.31 1070.57L1780.01 1076.19L1758.97 1259.29Z" fill="#4A0420"/>
<path d="M1780.01 1076.19L1885 1063.88L1758.97 1259.29L1780.01 1076.19Z" fill="#7D0734"/>
<path d="M295.403 1393.49L283.722 1395.21L273.491 1343.24L285.172 1341.52L295.403 1393.49Z" fill="#6C0527"/>
<path d="M285.172 1341.52L371.622 1381.69L295.402 1393.49L285.172 1341.52Z" fill="#CA0848"/>
<path d="M428.143 1259.14L438.264 1250.77L491.979 1349.54L481.857 1357.91L428.143 1259.14Z" fill="#92083D"/>
<path d="M340.702 1319.2L350.824 1310.83L438.265 1250.77L428.143 1259.14L340.702 1319.2Z" fill="#4F0420"/>
<path d="M428.143 1259.14L481.857 1357.91L340.702 1319.2L428.143 1259.14Z" fill="#69052A"/>
<path d="M604.52 1486.57L598.622 1487.45L683.366 1318.98L695.047 1317.25L604.52 1486.57Z" fill="#780734"/>
<path d="M695.047 1317.25L745.949 1425.14L604.52 1486.57L695.047 1317.25Z" fill="#DB0B5E"/>
<path d="M482.502 1342.49L496.087 1340.41L590.774 1348.42L577.189 1350.5L482.502 1342.49Z" fill="#B40840"/>
<path d="M577.189 1350.5L590.774 1348.42L493.793 1438.28L480.208 1440.36L577.189 1350.5Z" fill="#930533"/>
<path d="M482.502 1342.49L577.189 1350.5L480.208 1440.36L482.502 1342.49Z" fill="#B20740"/>
<path d="M949.215 1550.82L946.838 1552.23L799.51 1473.36L804.647 1468.17L949.215 1550.82Z" fill="#4F0421"/>
<path d="M804.648 1468.17L799.51 1473.36L793.612 1334.26L798.75 1329.08L804.648 1468.17Z" fill="#49041F"/>
<path d="M798.749 1329.08L949.214 1550.82L804.647 1468.17L798.749 1329.08Z" fill="#8F083C"/>
<path d="M888.439 1262.96L905.622 1267.02L889.098 1405.48L883.053 1404.05L888.439 1262.96Z" fill="#CB0849"/>
<path d="M767.528 1239.99L888.44 1262.96L883.053 1404.05L767.528 1239.99Z" fill="#8C0632"/>
<path d="M1091.39 1455.83L1078.79 1456.01L1141.62 1354.9L1154.23 1354.73L1091.39 1455.83Z" fill="#75062C"/>
<path d="M1154.23 1354.73L1147.38 1420.96L1091.39 1455.83L1154.23 1354.73Z" fill="#B00843"/>
<path d="M1147.81 1979.37L1143.31 1979.44L1165.78 1943.27L1170.29 1943.21L1147.81 1979.37Z" fill="#75062C"/>
<path d="M1170.29 1943.21L1167.84 1966.9L1147.81 1979.37L1170.29 1943.21Z" fill="#B00843"/>
<path d="M1714.88 1608.8L1710.37 1608.86L1732.85 1572.7L1737.36 1572.63L1714.88 1608.8Z" fill="#75062C"/>
<path d="M1737.36 1572.63L1734.91 1596.33L1714.88 1608.8L1737.36 1572.63Z" fill="#B00843"/>
<path d="M1012.09 1261.62L985.363 1253.21L1124.06 1213.42L1150.79 1221.83L1012.09 1261.62Z" fill="#AC0849"/>
<path d="M1051.51 1406.23L1024.78 1397.82L985.363 1253.21L1012.09 1261.62L1051.51 1406.23Z" fill="#780734"/>
<path d="M1012.09 1261.62L1150.79 1221.83L1051.51 1406.23L1012.09 1261.62Z" fill="#C50B56"/>
<path d="M1312.86 1506.43L1295.64 1501.36L1201.4 1443.5L1218.6 1448.58L1312.86 1506.43Z" fill="#4F0420"/>
<path d="M1218.6 1448.58L1201.4 1443.5L1237.97 1343.36L1255.18 1348.44L1218.6 1448.58Z" fill="#67052B"/>
<path d="M1255.18 1348.44L1312.86 1506.43L1218.6 1448.58L1255.18 1348.44Z" fill="#890737"/>
<path d="M1316.85 1274.38L1326.97 1266.01L1469.43 1290.71L1459.31 1299.08L1316.85 1274.38Z" fill="#B60A50"/>
<path d="M1459.31 1299.08L1469.43 1290.71L1328.9 1432.88L1318.77 1441.25L1459.31 1299.08Z" fill="#760733"/>
<path d="M1316.85 1274.38L1459.31 1299.08L1318.77 1441.25L1316.85 1274.38Z" fill="#9B0846"/>
<path d="M1564.37 1453.92L1581.55 1457.98L1441.12 1511.29L1431.31 1508.98L1564.37 1453.92Z" fill="#670426"/>
<path d="M1614.29 1338.34L1622.38 1340.25L1581.55 1457.98L1564.37 1453.92L1614.29 1338.34Z" fill="#A6073D"/>
<path d="M1614.29 1338.34L1564.37 1453.92L1431.31 1508.98L1614.29 1338.34Z" fill="#840630"/>
<path d="M1600.44 1203.15L1614.02 1201.07L1536.12 1470.62L1530.33 1471.51L1600.44 1203.15Z" fill="#B0073E"/>
<path d="M1481.93 1262.04L1600.44 1203.15L1530.33 1471.51L1481.93 1262.04Z" fill="#9D0637"/>
<path d="M1796.04 1361.81L1790.78 1366.08L1634.28 1363.24L1644.04 1355.31L1796.04 1361.81Z" fill="#6E0527"/>
<path d="M1644.04 1355.31L1634.28 1363.24L1694.29 1253.21L1704.06 1245.28L1644.04 1355.31Z" fill="#6B0527"/>
<path d="M1704.06 1245.28L1796.04 1361.81L1644.04 1355.31L1704.06 1245.28Z" fill="#D4084C"/>
<path d="M1842.1 1245.52L1859.28 1249.58L1843.48 1354.74L1826.3 1350.68L1842.1 1245.52Z" fill="#9D0842"/>
<path d="M1842.1 1245.52L1826.3 1350.68L1763.31 1253.76L1842.1 1245.52Z" fill="#700731"/>
<path d="M386.25 1439.91L396.416 1435.99L357.073 1484.74L346.906 1488.67L386.25 1439.91Z" fill="#5E0527"/>
<path d="M335.359 1450.2L345.526 1446.28L396.416 1435.99L386.249 1439.91L335.359 1450.2Z" fill="#5D0529"/>
<path d="M386.249 1439.92L346.906 1488.67L335.359 1450.2L386.249 1439.92Z" fill="#7A0734"/>
<path d="M515.149 1683.53L503.442 1677.91L596.749 1669.02L608.449 1674.64L515.149 1683.53Z" fill="#840630"/>
<path d="M580.787 1727.93L569.087 1722.31L503.442 1677.91L515.149 1683.53L580.787 1727.93Z" fill="#5D0424"/>
<path d="M515.149 1683.53L608.45 1674.64L580.787 1727.93L515.149 1683.53Z" fill="#A3073B"/>
<path d="M678.419 1770.75L665.914 1774.81L600.435 1785.7L612.941 1781.64L678.419 1770.75Z" fill="#A90948"/>
<path d="M612.941 1781.64L600.436 1785.7L577.017 1700.97L589.522 1696.91L612.941 1781.64Z" fill="#B3094C"/>
<path d="M589.521 1696.91L678.419 1770.75L612.941 1781.64L589.521 1696.91Z" fill="#DE0B5F"/>
<path d="M828.24 1557.08L833.262 1561.05L791.171 1721.52L786.143 1717.55L828.24 1557.08Z" fill="#7F0735"/>
<path d="M828.24 1557.08L786.142 1717.55L737.105 1640.99L828.24 1557.08Z" fill="#A00845"/>
<path d="M823.569 1699.67L837.154 1697.59L811.843 1747.89L803.875 1749.11L823.569 1699.67Z" fill="#A8073B"/>
<path d="M731.719 1726.08L823.569 1699.67L803.875 1749.1L731.719 1726.08Z" fill="#8D0531"/>
<path d="M1077.71 1575.94L1067.94 1583.86L1003.46 1485.5L1013.22 1477.58L1077.71 1575.94Z" fill="#49041F"/>
<path d="M1013.22 1477.57L1088.73 1444.17L1077.7 1575.94L1013.22 1477.57Z" fill="#8E083B"/>
<path d="M954.704 1635.54L971.887 1639.59L1007.73 1684.42L990.552 1680.36L954.704 1635.54Z" fill="#A2073A"/>
<path d="M990.552 1680.36L1007.73 1684.42L937.08 1680.05L919.897 1675.99L990.552 1680.36Z" fill="#5D0424"/>
<path d="M954.704 1635.54L990.552 1680.36L919.897 1675.99L954.704 1635.54Z" fill="#79062E"/>
<path d="M1181.69 1537.84L1191.86 1533.92L1249.85 1574.2L1239.69 1578.12L1181.69 1537.84Z" fill="#BA0841"/>
<path d="M1239.69 1578.12L1249.85 1574.2L1155.64 1614.03L1145.47 1617.96L1239.69 1578.12Z" fill="#6B0527"/>
<path d="M1181.69 1537.84L1239.69 1578.12L1145.47 1617.96L1181.69 1537.84Z" fill="#9A0637"/>
<path d="M965.688 1033.22L975.854 1029.29L1033.85 1069.57L1023.68 1073.5L965.688 1033.22Z" fill="#BA0841"/>
<path d="M1023.68 1073.5L1033.85 1069.58L939.636 1109.41L929.476 1113.33L1023.68 1073.5Z" fill="#6B0527"/>
<path d="M965.688 1033.22L1023.68 1073.5L929.476 1113.33L965.688 1033.22Z" fill="#9A0637"/>
<path d="M1534.42 1600.05L1544.58 1596.12L1602.58 1636.41L1592.41 1640.33L1534.42 1600.05Z" fill="#BA0841"/>
<path d="M1592.41 1640.33L1602.58 1636.41L1508.36 1676.24L1498.2 1680.16L1592.41 1640.33Z" fill="#6B0527"/>
<path d="M1534.42 1600.05L1592.41 1640.33L1498.2 1680.16L1534.42 1600.05Z" fill="#9A0637"/>
<path d="M767.215 1060.64L784.398 1064.7L827.862 1097.48L810.68 1093.42L767.215 1060.64Z" fill="#A5073B"/>
<path d="M810.68 1093.42L827.862 1097.48L747.917 1149.5L730.734 1145.44L810.68 1093.42Z" fill="#79052A"/>
<path d="M767.215 1060.64L810.68 1093.42L730.734 1145.44L767.215 1060.64Z" fill="#8C0632"/>
<path d="M627.716 1332.42L637.838 1324.05L704.76 1350.78L694.645 1359.15L627.716 1332.42Z" fill="#BD0843"/>
<path d="M627.716 1332.42L694.645 1359.15L619.837 1414.41L627.716 1332.42Z" fill="#8F0634"/>
<path d="M1365.06 1622.64L1355.29 1630.57L1245.89 1655.81L1255.65 1647.88L1365.06 1622.64Z" fill="#560526"/>
<path d="M1338.88 1583.3L1365.06 1622.64L1255.65 1647.88L1338.88 1583.3Z" fill="#A80847"/>
<path d="M1555.8 1548.31L1550.39 1545.72L1604.26 1479.81L1615.96 1485.43L1555.8 1548.31Z" fill="#6C062D"/>
<path d="M1615.96 1485.43L1627.47 1529L1555.8 1548.31L1615.96 1485.43Z" fill="#94083F"/>
<path d="M1020.48 1795.09L1029.05 1797.55L1054.94 1841.63L1037.76 1837.57L1020.48 1795.09Z" fill="#A10846"/>
<path d="M1037.76 1837.57L1054.94 1841.63L1020.97 1840.9L1012.76 1838.96L1037.76 1837.57Z" fill="#560525"/>
<path d="M1020.48 1795.09L1037.76 1837.57L1012.76 1838.96L1020.48 1795.09Z" fill="#700731"/>
<path d="M1413.65 942.053L1438.79 947.987L1464.06 1010.14L1438.93 1004.2L1413.65 942.053Z" fill="#A10846"/>
<path d="M1438.92 1004.2L1464.06 1010.14L1427.5 1012.17L1402.36 1006.23L1438.92 1004.2Z" fill="#560525"/>
<path d="M1413.65 942.053L1438.92 1004.2L1402.36 1006.23L1413.65 942.053Z" fill="#700731"/>
<path d="M1435.31 1556.04L1448.89 1553.96L1528.58 1581.99L1515 1584.06L1435.31 1556.04Z" fill="#940636"/>
<path d="M1515 1584.06L1528.58 1581.99L1461.83 1597.44L1448.25 1599.52L1515 1584.06Z" fill="#650426"/>
<path d="M1435.31 1556.04L1515 1584.06L1448.25 1599.52L1435.31 1556.04Z" fill="#8A0632"/>
<path d="M1714 1409.16L1702.3 1407.51L1862.29 1397.06L1873.99 1398.7L1714 1409.16Z" fill="#730529"/>
<path d="M1677.09 1514.56L1671.49 1513.77L1702.3 1407.51L1714 1409.16L1677.09 1514.56Z" fill="#6C0527"/>
<path d="M1873.99 1398.7L1677.09 1514.56L1714 1409.16L1873.99 1398.7Z" fill="#CA0848"/>
<path d="M1583.06 1606.24L1578.06 1606.97L1561.03 1512.57L1569.69 1511.29L1583.06 1606.24Z" fill="#730529"/>
<path d="M1569.69 1511.29L1639.85 1555.35L1583.06 1606.24L1569.69 1511.29Z" fill="#D8084C"/>
<path d="M441.607 1638.14L434.853 1639.14L411.874 1511.77L423.555 1510.05L441.607 1638.14Z" fill="#730529"/>
<path d="M423.555 1510.05L518.216 1569.5L441.606 1638.14L423.555 1510.05Z" fill="#D8084C"/>
<path d="M573.202 1555.36L561.521 1557.09L674.695 1489.4L686.376 1487.67L573.202 1555.36Z" fill="#730529"/>
<path d="M673.04 1593.32L666.694 1593.83L561.521 1557.09L573.202 1555.36L673.04 1593.32Z" fill="#6C0527"/>
<path d="M573.202 1555.36L686.375 1487.67L673.04 1593.32L573.202 1555.36Z" fill="#CB0849"/>
<path d="M1284.59 1736.9L1272.91 1738.62L1202.36 1715.47L1214.04 1713.75L1284.59 1736.9Z" fill="#6B0527"/>
<path d="M1214.04 1713.75L1202.36 1715.47L1274.64 1693.35L1286.32 1691.63L1214.04 1713.75Z" fill="#730529"/>
<path d="M1286.32 1691.63L1284.59 1736.9L1214.04 1713.75L1286.32 1691.63Z" fill="#CA0848"/>
<path d="M1388.25 1525.44L1376.57 1527.17L1306.01 1504.02L1317.69 1502.29L1388.25 1525.44Z" fill="#6B0527"/>
<path d="M1317.69 1502.29L1306.01 1504.02L1378.3 1481.9L1389.98 1480.17L1317.69 1502.29Z" fill="#730529"/>
<path d="M1389.98 1480.17L1388.25 1525.44L1317.69 1502.29L1389.98 1480.17Z" fill="#CA0848"/>
<path d="M894.07 1467.41L882.709 1464.45L830.707 1416.38L842.068 1419.33L894.07 1467.41Z" fill="#6B0527"/>
<path d="M842.068 1419.33L830.707 1416.38L906.665 1424.4L918.026 1427.36L842.068 1419.33Z" fill="#730529"/>
<path d="M918.026 1427.36L894.07 1467.41L842.068 1419.33L918.026 1427.36Z" fill="#CA0848"/>
<path d="M1624.47 1787.93L1613.11 1784.97L1561.11 1736.9L1572.47 1739.86L1624.47 1787.93Z" fill="#6B0527"/>
<path d="M1572.47 1739.86L1561.11 1736.9L1637.07 1744.92L1648.43 1747.88L1572.47 1739.86Z" fill="#730529"/>
<path d="M1648.43 1747.88L1624.47 1787.93L1572.47 1739.86L1648.43 1747.88Z" fill="#CA0848"/>
<path d="M287.012 1572.85L275.328 1574.58L292.654 1646L304.339 1644.27L287.012 1572.85Z" fill="#6B0527"/>
<path d="M286.968 1572.89L334.088 1580.5L304.272 1644.32L286.968 1572.89Z" fill="#CA0848"/>
<path d="M834.099 1912.91L836.316 1919.83L805.638 1912.9L804.711 1910.02L834.099 1912.91Z" fill="#A5073C"/>
<path d="M826.609 1877.04L828.826 1883.97L836.316 1919.83L834.098 1912.91L826.609 1877.04Z" fill="#77052B"/>
<path d="M834.099 1912.91L804.711 1910.02L826.609 1877.04L834.099 1912.91Z" fill="#930635"/>
<path d="M1348.1 1817.61L1354.38 1815.19L1384.65 1839.08L1378.38 1841.5L1348.1 1817.61Z" fill="#C1094E"/>
<path d="M1378.38 1841.5L1384.65 1839.08L1351.73 1875.95L1345.45 1878.37L1378.38 1841.5Z" fill="#AB0846"/>
<path d="M1348.1 1817.62L1378.38 1841.5L1345.45 1878.38L1348.1 1817.62Z" fill="#A70844"/>
<path d="M1450.13 1657.07L1440.37 1665L1478.77 1607.01L1488.54 1599.08L1450.13 1657.07Z" fill="#560525"/>
<path d="M1491.12 1720.87L1485.72 1725.26L1440.37 1665L1450.13 1657.07L1491.12 1720.87Z" fill="#700631"/>
<path d="M1450.13 1657.07L1488.54 1599.08L1491.12 1720.87L1450.13 1657.07Z" fill="#A80847"/>
<path d="M1614.49 597.784L1607.66 596.282L1632.64 448.826L1639.47 450.327L1614.49 597.784Z" fill="#720528"/>
<path d="M1639.47 450.327L1868.68 598.257L1614.49 597.783L1639.47 450.327Z" fill="#CF0847"/>
<path d="M876.95 678.172L877.992 682.361L633.862 622.005L632.82 617.816L876.95 678.172Z" fill="#6B0527"/>
<path d="M743.176 463.01L876.95 678.173L632.82 617.817L743.176 463.01Z" fill="#BF0842"/>
<path d="M1122.15 637.245L1116.88 636.008L1130.66 441.047L1135.93 442.289L1122.15 637.245Z" fill="#4F0420"/>
<path d="M1135.93 442.289L1386.63 632.218L1122.15 637.245L1135.93 442.289Z" fill="#8D0738"/>
<path d="M1735.13 973.854L1743.46 964.064L1790.35 1198.74L1782.02 1208.53L1735.13 973.854Z" fill="#B00843"/>
<path d="M1735.13 973.854L1782.02 1208.53L1672.98 1103.88L1735.13 973.854Z" fill="#7C062E"/>
<path d="M1049.04 1085.94L1061.23 1091.63L993.255 1256.2L987.97 1253.74L1049.04 1085.94Z" fill="#CA0848"/>
<path d="M1049.04 1085.94L987.97 1253.74L946.857 1130.88L1049.04 1085.94Z" fill="#930635"/>
<path d="M680.917 620.4L665.096 617.463L811.114 629.147L826.935 632.079L680.917 620.4Z" fill="#6B062A"/>
<path d="M716.714 842.874L700.892 839.941L665.096 617.463L680.917 620.4L716.714 842.874Z" fill="#600426"/>
<path d="M680.917 620.4L826.935 632.08L716.714 842.874L680.917 620.4Z" fill="#95073A"/>
<path d="M1408.68 635.121L1396.98 629.501L1627.05 443.172L1638.75 448.797L1408.68 635.121Z" fill="#710731"/>
<path d="M1638.75 448.797L1600.61 592.164L1408.68 635.121L1638.75 448.797Z" fill="#94083F"/>
<path d="M548.544 1566.04L536.863 1567.76L490.759 1570.7L502.44 1568.97L548.544 1566.04Z" fill="#650426"/>
<path d="M502.44 1568.97L490.759 1570.7L523.143 1536.36L534.831 1534.63L502.44 1568.97Z" fill="#6A0426"/>
<path d="M534.83 1534.63L548.543 1566.04L502.439 1568.97L534.83 1534.63Z" fill="#BE0847"/>
<path d="M397.445 1784.12L385.764 1785.85L339.66 1788.79L351.341 1787.06L397.445 1784.12Z" fill="#650426"/>
<path d="M351.341 1787.06L339.66 1788.79L372.045 1754.45L383.726 1752.72L351.341 1787.06Z" fill="#6A0426"/>
<path d="M383.725 1752.72L397.445 1784.12L351.341 1787.06L383.725 1752.72Z" fill="#BE0847"/>
<path d="M1835.18 380.92L1821.85 198.216L2081.2 123.902L1835.18 380.92Z" fill="#A90849"/>
<path d="M1835.17 380.92L2149.17 403.101L2081.2 123.902L1835.17 380.92Z" fill="#E40850"/>
<path d="M1835.17 380.92L1868.1 602.401L1992.91 559.684L1835.17 380.92Z" fill="#8F083D"/>
<path d="M1835.17 380.92L2149.17 403.101L1992.91 559.684L1835.17 380.92Z" fill="#A90849"/>
<path d="M1982.99 572.156L1993.16 568.231L1878.27 898.396L1868.1 902.321L1982.99 572.156Z" fill="#700731"/>
<path d="M1866.97 602.137L1877.14 598.212L1993.16 568.231L1982.99 572.156L1866.97 602.137Z" fill="#5B0527"/>
<path d="M1982.99 572.156L1868.1 902.321L1866.97 602.137L1982.99 572.156Z" fill="#7A0734"/>
<path d="M2076.94 824.985L2086.75 823.429L1878.43 896.511L1868.61 898.072L2076.94 824.985Z" fill="#720528"/>
<path d="M2002.35 577.796L2076.94 824.984L1868.61 898.072L2002.35 577.796Z" fill="#AA0D3F"/>
<path d="M1908.49 928.851L1925.68 932.91L2011.77 1064.98L1994.59 1060.93L1908.49 928.851Z" fill="#990841"/>
<path d="M1908.49 928.851L1994.59 1060.93L1896.5 1008.69L1908.49 928.851Z" fill="#700731"/>
<path d="M2064.07 992.638L2054.3 1000.57L1899.78 873.991L1909.54 866.062L2064.07 992.638Z" fill="#520422"/>
<path d="M2066.96 790.066L2064.06 992.637L1909.54 866.061L2066.96 790.066Z" fill="#9C083F"/>
<path d="M1928.76 1219.06L1917.08 1220.79L1883.88 1052.18L1895.56 1050.45L1928.76 1219.06Z" fill="#650426"/>
<path d="M1895.56 1050.45L2011.38 1075.39L1928.76 1219.06L1895.56 1050.45Z" fill="#BE0847"/>
<path d="M1932.98 1393.49L1921.3 1395.21L1911.07 1343.24L1922.75 1341.52L1932.98 1393.49Z" fill="#6C0527"/>
<path d="M1924.58 1572.81L1912.9 1574.53L1930.22 1645.96L1941.91 1644.23L1924.58 1572.81Z" fill="#6B0527"/>
<path d="M-3.57175 445.72L1.67441 150.912L-221.464 213.238L-3.57175 445.72Z" fill="#E40850"/>
<path d="M-3.57129 445.72L1.67488 150.912L211.107 201.379L-3.57129 445.72Z" fill="#A90849"/>
<path d="M-3.57129 445.72L185.368 400.17L211.107 201.379L-3.57129 445.72Z" fill="#BA0846"/>
<path d="M-3.57129 445.72L185.368 400.17L230.379 602.402L-3.57129 445.72Z" fill="#9E0841"/>
<path d="M-64.2002 612.66L-54.0785 604.297L90.0991 841.023L79.9837 849.391L-64.2002 612.66Z" fill="#94083C"/>
<path d="M-64.1996 612.66L79.9843 849.391L-256.743 628.394L-64.1996 612.66Z" fill="#69052A"/>
<path d="M206.979 614.042L217.139 610.117L96.8793 830.412L86.7129 834.331L206.979 614.042Z" fill="#860739"/>
<path d="M-34.8311 583.981L-24.671 580.057L217.139 610.117L206.979 614.042L-34.8311 583.981Z" fill="#95083F"/>
<path d="M206.979 614.042L86.7131 834.332L-34.8311 583.981L206.979 614.042Z" fill="#9E0843"/>
<path d="M194.703 620.534L204.825 612.166L255.121 803.861L244.999 812.229L194.703 620.534Z" fill="#91083E"/>
<path d="M194.703 620.534L244.999 812.229L137.94 844.948L194.703 620.534Z" fill="#720732"/>
<path d="M60.1946 866.093L70.3164 857.725L14.1226 997.052L4.00732 1005.42L60.1946 866.093Z" fill="#82062F"/>
<path d="M-135.007 960.02L-124.886 951.652L70.3162 857.725L60.1944 866.093L-135.007 960.02Z" fill="#700528"/>
<path d="M60.1944 866.093L4.00716 1005.42L-135.007 960.02L60.1944 866.093Z" fill="#B80843"/>
<path d="M-218.244 836.434L-208.078 832.51L59.2416 840.828L49.0814 844.747L-218.244 836.434Z" fill="#6C062D"/>
<path d="M49.0814 844.748L59.2415 840.828L-141.596 955.521L-151.763 959.446L49.0814 844.748Z" fill="#560525"/>
<path d="M-218.244 836.435L49.0814 844.748L-151.763 959.445L-218.244 836.435Z" fill="#7A0734"/>
<path d="M57.0625 880.884L67.1843 872.516L197.879 912.161L187.757 920.529L57.0625 880.884Z" fill="#8F083D"/>
<path d="M187.757 920.529L197.879 912.161L96.2271 1014.69L86.1055 1023.05L187.757 920.529Z" fill="#560526"/>
<path d="M57.0625 880.884L187.757 920.529L86.1052 1023.05L57.0625 880.884Z" fill="#720732"/>
<path d="M209.489 827.762L223.074 825.688L220.211 947.89L206.626 949.97L209.489 827.762Z" fill="#AB073F"/>
<path d="M209.489 827.762L206.626 949.97L122.029 842.717L209.489 827.762Z" fill="#8A0632"/>
<path d="M15.3998 1165.76L-1.81486 1160.68L-158.479 1008.93L-141.264 1014L15.3998 1165.76Z" fill="#560525"/>
<path d="M-141.265 1014L-39.6189 1020.61L15.3989 1165.76L-141.265 1014Z" fill="#94083F"/>
<path d="M142.222 1076.19L130.516 1070.57L235.51 1058.26L247.217 1063.88L142.222 1076.19Z" fill="#660529"/>
<path d="M121.187 1259.29L109.48 1253.67L130.516 1070.57L142.222 1076.19L121.187 1259.29Z" fill="#4A0420"/>
<path d="M142.223 1076.19L247.217 1063.88L121.187 1259.29L142.223 1076.19Z" fill="#7D0734"/>
<path d="M77.089 1608.8L72.5776 1608.86L95.0578 1572.7L99.5626 1572.63L77.089 1608.8Z" fill="#75062C"/>
<path d="M99.5629 1572.63L97.1157 1596.33L77.0894 1608.8L99.5629 1572.63Z" fill="#B00843"/>
<path d="M158.249 1361.81L152.99 1366.08L-3.51367 1363.24L6.25027 1355.31L158.249 1361.81Z" fill="#6E0527"/>
<path d="M6.25027 1355.31L-3.51367 1363.24L56.5012 1253.21L66.2651 1245.28L6.25027 1355.31Z" fill="#6B0527"/>
<path d="M66.2648 1245.28L158.249 1361.81L6.25 1355.31L66.2648 1245.28Z" fill="#D4084C"/>
<path d="M204.314 1245.52L221.497 1249.58L205.694 1354.74L188.512 1350.68L204.314 1245.52Z" fill="#9D0842"/>
<path d="M204.314 1245.52L188.511 1350.68L125.519 1253.76L204.314 1245.52Z" fill="#700731"/>
<path d="M76.2055 1409.16L64.5054 1407.51L224.498 1397.06L236.192 1398.7L76.2055 1409.16Z" fill="#730529"/>
<path d="M39.2979 1514.56L33.6938 1513.77L64.5064 1407.51L76.2065 1409.16L39.2979 1514.56Z" fill="#6C0527"/>
<path d="M236.192 1398.7L39.2974 1514.56L76.206 1409.16L236.192 1398.7Z" fill="#CA0848"/>
<path d="M-68.1055 1511.29L2.05676 1555.35L-54.7248 1606.24L-68.1055 1511.29Z" fill="#D8084C"/>
<path d="M-65.3246 1739.86L-76.686 1736.9L-0.721797 1744.92L10.6332 1747.88L-65.3246 1739.86Z" fill="#730529"/>
<path d="M10.6331 1747.88L-13.323 1787.93L-65.3247 1739.86L10.6331 1747.88Z" fill="#CA0848"/>
<path d="M-23.3043 597.784L-30.1289 596.282L-5.15034 448.826L1.67414 450.327L-23.3043 597.784Z" fill="#720528"/>
<path d="M1.6747 450.327L230.89 598.257L-23.3037 597.783L1.6747 450.327Z" fill="#CF0847"/>
<path d="M97.3389 973.854L105.665 964.064L152.555 1198.74L144.229 1208.53L97.3389 973.854Z" fill="#B00843"/>
<path d="M97.3382 973.854L144.228 1208.53L35.1826 1103.88L97.3382 973.854Z" fill="#7C062E"/>
<path d="M-229.113 635.121L-240.819 629.501L-10.741 443.172L0.959168 448.797L-229.113 635.121Z" fill="#710731"/>
<path d="M0.959676 448.797L-37.1824 592.164L-229.112 635.121L0.959676 448.797Z" fill="#94083F"/>
<path d="M185.521 -22.0869L211.259 201.379L474.495 150.912L185.521 -22.0869Z" fill="#C80849"/>
<path d="M185.521 -22.0873L511.596 -25.0195L474.495 150.912L185.521 -22.0873Z" fill="#A90849"/>
<path d="M737.079 -87.0957L698.426 189.041L474.495 150.912L737.079 -87.0957Z" fill="#9E0841"/>
<path d="M737.079 -87.0957L511.595 -25.0193L474.495 150.912L737.079 -87.0957Z" fill="#C80849"/>
<path d="M737.081 -87.0957L698.428 189.041L947.593 207.707L737.081 -87.0957Z" fill="#E40850"/>
<path d="M737.08 -87.0957L937.809 -53.973L947.592 207.707L737.08 -87.0957Z" fill="#C80849"/>
<path d="M1125.12 -67.6367L1163.33 138.131L947.593 207.708L1125.12 -67.6367Z" fill="#C80849"/>
<path d="M1125.12 -67.6367L937.809 -53.9727L947.592 207.708L1125.12 -67.6367Z" fill="#9E0841"/>
<path d="M1125.12 -67.6367L1163.32 138.131L1365.38 210.869L1125.12 -67.6367Z" fill="#E40850"/>
<path d="M1125.12 -67.6367L1437.65 -1.85511L1365.38 210.869L1125.12 -67.6367Z" fill="#A90849"/>
<path d="M1634.22 -67.6367L1607.66 156.318L1365.38 210.869L1634.22 -67.6367Z" fill="#C80849"/>
<path d="M1634.22 -67.6367L1437.65 -1.85511L1365.38 210.869L1634.22 -67.6367Z" fill="#E40850"/>
<path d="M1634.22 -67.6367L1607.66 156.318L1821.92 198.218L1634.22 -67.6367Z" fill="#9E0841"/>
<path d="M1634.22 -67.6367L1835.24 -2.83752L1821.92 198.218L1634.22 -67.6367Z" fill="#C80849"/>
<path d="M1835.18 -2.83789L1821.85 198.217L2081.2 123.903L1835.18 -2.83789Z" fill="#E40850"/>
<path d="M1835.17 -2.838L2149.17 -25.0195L2081.2 123.903L1835.17 -2.838Z" fill="#9E0841"/>
<path d="M-3.57175 -67.6367L1.67441 150.912L-221.464 213.238L-3.57175 -67.6367Z" fill="#C80849"/>
<path d="M-3.57129 -67.6367L1.67488 150.912L211.107 201.379L-3.57129 -67.6367Z" fill="#9E0841"/>
<path d="M-3.57129 -67.6367L185.368 -22.0868L211.107 201.379L-3.57129 -67.6367Z" fill="#C80849"/>
</g>
</g>
</svg>
