<svg width="767" height="338" viewBox="0 0 767 338" fill="none" xmlns="http://www.w3.org/2000/svg">
<rect x="-12.75" y="-30.75" width="31.5" height="31.5" stroke="white" stroke-opacity="0.06" stroke-width="0.5"/>
<rect x="-12.75" y="0.25" width="31.5" height="31.5" stroke="white" stroke-opacity="0.06" stroke-width="0.5"/>
<rect x="-12.75" y="31.25" width="31.5" height="31.5" stroke="white" stroke-opacity="0.06" stroke-width="0.5"/>
<rect x="-12.75" y="62.25" width="31.5" height="31.5" stroke="white" stroke-opacity="0.06" stroke-width="0.5"/>
<rect x="-12.75" y="93.25" width="31.5" height="31.5" stroke="white" stroke-opacity="0.06" stroke-width="0.5"/>
<rect x="-12.75" y="217.25" width="31.5" height="31.5" stroke="white" stroke-opacity="0.06" stroke-width="0.5"/>
<rect x="-12.75" y="124.25" width="31.5" height="31.5" stroke="white" stroke-opacity="0.06" stroke-width="0.5"/>
<rect x="-12.75" y="248.25" width="31.5" height="31.5" stroke="white" stroke-opacity="0.06" stroke-width="0.5"/>
<rect x="-12.75" y="155.25" width="31.5" height="31.5" stroke="white" stroke-opacity="0.06" stroke-width="0.5"/>
<rect x="-12.75" y="186.25" width="31.5" height="31.5" stroke="white" stroke-opacity="0.06" stroke-width="0.5"/>
<rect x="18.25" y="-30.75" width="31.5" height="31.5" stroke="white" stroke-opacity="0.06" stroke-width="0.5"/>
<rect x="18.25" y="0.25" width="31.5" height="31.5" stroke="white" stroke-opacity="0.06" stroke-width="0.5"/>
<rect x="18.25" y="31.25" width="31.5" height="31.5" stroke="white" stroke-opacity="0.06" stroke-width="0.5"/>
<rect x="18.25" y="62.25" width="31.5" height="31.5" stroke="white" stroke-opacity="0.06" stroke-width="0.5"/>
<rect x="18.25" y="93.25" width="31.5" height="31.5" stroke="white" stroke-opacity="0.06" stroke-width="0.5"/>
<rect x="18.25" y="217.25" width="31.5" height="31.5" stroke="white" stroke-opacity="0.06" stroke-width="0.5"/>
<rect x="18.25" y="124.25" width="31.5" height="31.5" stroke="white" stroke-opacity="0.06" stroke-width="0.5"/>
<rect x="18.25" y="248.25" width="31.5" height="31.5" stroke="white" stroke-opacity="0.06" stroke-width="0.5"/>
<rect x="18.25" y="155.25" width="31.5" height="31.5" stroke="white" stroke-opacity="0.06" stroke-width="0.5"/>
<rect x="18.25" y="186.25" width="31.5" height="31.5" stroke="white" stroke-opacity="0.06" stroke-width="0.5"/>
<rect x="49" y="-31" width="32" height="32" fill="#5C6EF7" fill-opacity="0.04"/>
<rect x="49.25" y="-30.75" width="31.5" height="31.5" stroke="white" stroke-opacity="0.06" stroke-width="0.5"/>
<rect x="49.25" y="0.25" width="31.5" height="31.5" stroke="white" stroke-opacity="0.06" stroke-width="0.5"/>
<rect x="49.25" y="31.25" width="31.5" height="31.5" stroke="white" stroke-opacity="0.06" stroke-width="0.5"/>
<rect x="49.25" y="62.25" width="31.5" height="31.5" stroke="white" stroke-opacity="0.06" stroke-width="0.5"/>
<rect x="49.25" y="93.25" width="31.5" height="31.5" stroke="white" stroke-opacity="0.06" stroke-width="0.5"/>
<rect x="49.25" y="217.25" width="31.5" height="31.5" stroke="white" stroke-opacity="0.06" stroke-width="0.5"/>
<rect x="49.25" y="124.25" width="31.5" height="31.5" stroke="white" stroke-opacity="0.06" stroke-width="0.5"/>
<rect x="49.25" y="248.25" width="31.5" height="31.5" stroke="white" stroke-opacity="0.06" stroke-width="0.5"/>
<rect x="49.25" y="155.25" width="31.5" height="31.5" stroke="white" stroke-opacity="0.06" stroke-width="0.5"/>
<rect x="49.25" y="186.25" width="31.5" height="31.5" stroke="white" stroke-opacity="0.06" stroke-width="0.5"/>
<rect x="80.25" y="-30.75" width="31.5" height="31.5" stroke="white" stroke-opacity="0.06" stroke-width="0.5"/>
<rect x="80.25" y="0.25" width="31.5" height="31.5" stroke="white" stroke-opacity="0.06" stroke-width="0.5"/>
<rect x="80.25" y="31.25" width="31.5" height="31.5" stroke="white" stroke-opacity="0.06" stroke-width="0.5"/>
<rect x="80.25" y="62.25" width="31.5" height="31.5" stroke="white" stroke-opacity="0.06" stroke-width="0.5"/>
<rect x="80.25" y="93.25" width="31.5" height="31.5" stroke="white" stroke-opacity="0.06" stroke-width="0.5"/>
<rect x="80.25" y="217.25" width="31.5" height="31.5" stroke="white" stroke-opacity="0.06" stroke-width="0.5"/>
<rect x="80.25" y="124.25" width="31.5" height="31.5" stroke="white" stroke-opacity="0.06" stroke-width="0.5"/>
<rect x="80.25" y="248.25" width="31.5" height="31.5" stroke="white" stroke-opacity="0.06" stroke-width="0.5"/>
<rect x="80.25" y="155.25" width="31.5" height="31.5" stroke="white" stroke-opacity="0.06" stroke-width="0.5"/>
<rect x="80.25" y="186.25" width="31.5" height="31.5" stroke="white" stroke-opacity="0.06" stroke-width="0.5"/>
<rect x="111.25" y="-30.75" width="31.5" height="31.5" stroke="white" stroke-opacity="0.06" stroke-width="0.5"/>
<rect x="111.25" y="0.25" width="31.5" height="31.5" stroke="white" stroke-opacity="0.06" stroke-width="0.5"/>
<rect x="111.25" y="31.25" width="31.5" height="31.5" stroke="white" stroke-opacity="0.06" stroke-width="0.5"/>
<rect x="111.25" y="62.25" width="31.5" height="31.5" stroke="white" stroke-opacity="0.06" stroke-width="0.5"/>
<rect x="111.25" y="93.25" width="31.5" height="31.5" stroke="white" stroke-opacity="0.06" stroke-width="0.5"/>
<rect x="111.25" y="217.25" width="31.5" height="31.5" stroke="white" stroke-opacity="0.06" stroke-width="0.5"/>
<rect x="111.25" y="124.25" width="31.5" height="31.5" stroke="white" stroke-opacity="0.06" stroke-width="0.5"/>
<rect x="111.25" y="248.25" width="31.5" height="31.5" stroke="white" stroke-opacity="0.06" stroke-width="0.5"/>
<rect x="111.25" y="155.25" width="31.5" height="31.5" stroke="white" stroke-opacity="0.06" stroke-width="0.5"/>
<rect x="111.25" y="186.25" width="31.5" height="31.5" stroke="white" stroke-opacity="0.06" stroke-width="0.5"/>
<rect x="142.25" y="-30.75" width="31.5" height="31.5" stroke="white" stroke-opacity="0.06" stroke-width="0.5"/>
<rect x="142.25" y="0.25" width="31.5" height="31.5" stroke="white" stroke-opacity="0.06" stroke-width="0.5"/>
<rect x="142.25" y="31.25" width="31.5" height="31.5" stroke="white" stroke-opacity="0.06" stroke-width="0.5"/>
<rect x="142.25" y="62.25" width="31.5" height="31.5" stroke="white" stroke-opacity="0.06" stroke-width="0.5"/>
<rect x="142.25" y="93.25" width="31.5" height="31.5" stroke="white" stroke-opacity="0.06" stroke-width="0.5"/>
<rect x="142.25" y="217.25" width="31.5" height="31.5" stroke="white" stroke-opacity="0.06" stroke-width="0.5"/>
<rect x="142.25" y="124.25" width="31.5" height="31.5" stroke="white" stroke-opacity="0.06" stroke-width="0.5"/>
<rect x="142.25" y="248.25" width="31.5" height="31.5" stroke="white" stroke-opacity="0.06" stroke-width="0.5"/>
<rect x="142.25" y="155.25" width="31.5" height="31.5" stroke="white" stroke-opacity="0.06" stroke-width="0.5"/>
<rect x="142.25" y="186.25" width="31.5" height="31.5" stroke="white" stroke-opacity="0.06" stroke-width="0.5"/>
<rect x="173.25" y="-30.75" width="31.5" height="31.5" stroke="white" stroke-opacity="0.06" stroke-width="0.5"/>
<rect x="173.25" y="0.25" width="31.5" height="31.5" stroke="white" stroke-opacity="0.06" stroke-width="0.5"/>
<rect x="173.25" y="31.25" width="31.5" height="31.5" stroke="white" stroke-opacity="0.06" stroke-width="0.5"/>
<rect x="173.25" y="62.25" width="31.5" height="31.5" stroke="white" stroke-opacity="0.06" stroke-width="0.5"/>
<rect x="173.25" y="93.25" width="31.5" height="31.5" stroke="white" stroke-opacity="0.06" stroke-width="0.5"/>
<rect x="173.25" y="217.25" width="31.5" height="31.5" stroke="white" stroke-opacity="0.06" stroke-width="0.5"/>
<rect x="173.25" y="124.25" width="31.5" height="31.5" stroke="white" stroke-opacity="0.06" stroke-width="0.5"/>
<rect x="173.25" y="248.25" width="31.5" height="31.5" stroke="white" stroke-opacity="0.06" stroke-width="0.5"/>
<rect x="173.25" y="155.25" width="31.5" height="31.5" stroke="white" stroke-opacity="0.06" stroke-width="0.5"/>
<rect x="173.25" y="186.25" width="31.5" height="31.5" stroke="white" stroke-opacity="0.06" stroke-width="0.5"/>
<rect x="204.25" y="-30.75" width="31.5" height="31.5" stroke="white" stroke-opacity="0.06" stroke-width="0.5"/>
<rect x="204.25" y="0.25" width="31.5" height="31.5" stroke="white" stroke-opacity="0.06" stroke-width="0.5"/>
<rect x="204.25" y="31.25" width="31.5" height="31.5" stroke="white" stroke-opacity="0.06" stroke-width="0.5"/>
<rect x="204.25" y="62.25" width="31.5" height="31.5" stroke="white" stroke-opacity="0.06" stroke-width="0.5"/>
<rect x="204.25" y="93.25" width="31.5" height="31.5" stroke="white" stroke-opacity="0.06" stroke-width="0.5"/>
<rect x="204.25" y="217.25" width="31.5" height="31.5" stroke="white" stroke-opacity="0.06" stroke-width="0.5"/>
<rect x="204.25" y="124.25" width="31.5" height="31.5" stroke="white" stroke-opacity="0.06" stroke-width="0.5"/>
<rect x="204.25" y="248.25" width="31.5" height="31.5" stroke="white" stroke-opacity="0.06" stroke-width="0.5"/>
<rect x="204.25" y="155.25" width="31.5" height="31.5" stroke="white" stroke-opacity="0.06" stroke-width="0.5"/>
<rect x="204.25" y="186.25" width="31.5" height="31.5" stroke="white" stroke-opacity="0.06" stroke-width="0.5"/>
<rect x="235.25" y="-30.75" width="31.5" height="31.5" stroke="white" stroke-opacity="0.06" stroke-width="0.5"/>
<rect x="235.25" y="0.25" width="31.5" height="31.5" stroke="white" stroke-opacity="0.06" stroke-width="0.5"/>
<rect x="235.25" y="31.25" width="31.5" height="31.5" stroke="white" stroke-opacity="0.06" stroke-width="0.5"/>
<rect x="235.25" y="62.25" width="31.5" height="31.5" stroke="white" stroke-opacity="0.06" stroke-width="0.5"/>
<rect x="235.25" y="93.25" width="31.5" height="31.5" stroke="white" stroke-opacity="0.06" stroke-width="0.5"/>
<rect x="235.25" y="217.25" width="31.5" height="31.5" stroke="white" stroke-opacity="0.06" stroke-width="0.5"/>
<rect x="235.25" y="124.25" width="31.5" height="31.5" stroke="white" stroke-opacity="0.06" stroke-width="0.5"/>
<rect x="235.25" y="248.25" width="31.5" height="31.5" stroke="white" stroke-opacity="0.06" stroke-width="0.5"/>
<rect x="235.25" y="155.25" width="31.5" height="31.5" stroke="white" stroke-opacity="0.06" stroke-width="0.5"/>
<rect x="235.25" y="186.25" width="31.5" height="31.5" stroke="white" stroke-opacity="0.06" stroke-width="0.5"/>
<rect x="266.25" y="-30.75" width="31.5" height="31.5" stroke="white" stroke-opacity="0.06" stroke-width="0.5"/>
<rect x="266.25" y="0.25" width="31.5" height="31.5" stroke="white" stroke-opacity="0.06" stroke-width="0.5"/>
<rect x="266.25" y="31.25" width="31.5" height="31.5" stroke="white" stroke-opacity="0.06" stroke-width="0.5"/>
<rect x="266.25" y="62.25" width="31.5" height="31.5" stroke="white" stroke-opacity="0.06" stroke-width="0.5"/>
<rect x="266.25" y="93.25" width="31.5" height="31.5" stroke="white" stroke-opacity="0.06" stroke-width="0.5"/>
<rect x="266.25" y="217.25" width="31.5" height="31.5" stroke="white" stroke-opacity="0.06" stroke-width="0.5"/>
<rect x="266.25" y="124.25" width="31.5" height="31.5" stroke="white" stroke-opacity="0.06" stroke-width="0.5"/>
<rect x="266.25" y="248.25" width="31.5" height="31.5" stroke="white" stroke-opacity="0.06" stroke-width="0.5"/>
<rect x="266.25" y="155.25" width="31.5" height="31.5" stroke="white" stroke-opacity="0.06" stroke-width="0.5"/>
<rect x="266.25" y="186.25" width="31.5" height="31.5" stroke="white" stroke-opacity="0.06" stroke-width="0.5"/>
<rect x="297.25" y="-30.75" width="31.5" height="31.5" stroke="white" stroke-opacity="0.06" stroke-width="0.5"/>
<rect x="297.25" y="0.25" width="31.5" height="31.5" stroke="white" stroke-opacity="0.06" stroke-width="0.5"/>
<rect x="297" y="31" width="32" height="32" fill="white" fill-opacity="0.08"/>
<rect x="297.25" y="31.25" width="31.5" height="31.5" stroke="url(#paint0_linear_201_3102)" stroke-opacity="0.32" stroke-width="0.5"/>
<rect x="297.25" y="62.25" width="31.5" height="31.5" stroke="white" stroke-opacity="0.06" stroke-width="0.5"/>
<rect x="297.25" y="93.25" width="31.5" height="31.5" stroke="white" stroke-opacity="0.06" stroke-width="0.5"/>
<rect x="297.25" y="217.25" width="31.5" height="31.5" stroke="white" stroke-opacity="0.06" stroke-width="0.5"/>
<rect x="297.25" y="124.25" width="31.5" height="31.5" stroke="white" stroke-opacity="0.06" stroke-width="0.5"/>
<rect x="297.25" y="248.25" width="31.5" height="31.5" stroke="white" stroke-opacity="0.06" stroke-width="0.5"/>
<rect x="297.25" y="155.25" width="31.5" height="31.5" stroke="white" stroke-opacity="0.06" stroke-width="0.5"/>
<rect x="297.25" y="186.25" width="31.5" height="31.5" stroke="white" stroke-opacity="0.06" stroke-width="0.5"/>
<rect x="328.25" y="-30.75" width="31.5" height="31.5" stroke="white" stroke-opacity="0.06" stroke-width="0.5"/>
<rect x="328.25" y="0.25" width="31.5" height="31.5" stroke="white" stroke-opacity="0.06" stroke-width="0.5"/>
<rect x="328.25" y="31.25" width="31.5" height="31.5" stroke="white" stroke-opacity="0.06" stroke-width="0.5"/>
<rect x="328.25" y="62.25" width="31.5" height="31.5" stroke="white" stroke-opacity="0.06" stroke-width="0.5"/>
<rect x="328.25" y="93.25" width="31.5" height="31.5" stroke="white" stroke-opacity="0.06" stroke-width="0.5"/>
<rect x="328.25" y="217.25" width="31.5" height="31.5" stroke="white" stroke-opacity="0.06" stroke-width="0.5"/>
<rect x="328.25" y="124.25" width="31.5" height="31.5" stroke="white" stroke-opacity="0.06" stroke-width="0.5"/>
<rect x="328.25" y="248.25" width="31.5" height="31.5" stroke="white" stroke-opacity="0.06" stroke-width="0.5"/>
<rect x="328.25" y="155.25" width="31.5" height="31.5" stroke="white" stroke-opacity="0.06" stroke-width="0.5"/>
<rect x="328.25" y="186.25" width="31.5" height="31.5" stroke="white" stroke-opacity="0.06" stroke-width="0.5"/>
<rect x="359.25" y="-30.75" width="31.5" height="31.5" stroke="white" stroke-opacity="0.06" stroke-width="0.5"/>
<rect x="359.25" y="0.25" width="31.5" height="31.5" stroke="white" stroke-opacity="0.06" stroke-width="0.5"/>
<rect x="359.25" y="31.25" width="31.5" height="31.5" stroke="white" stroke-opacity="0.06" stroke-width="0.5"/>
<rect x="359.25" y="62.25" width="31.5" height="31.5" stroke="white" stroke-opacity="0.06" stroke-width="0.5"/>
<rect x="359.25" y="93.25" width="31.5" height="31.5" stroke="white" stroke-opacity="0.06" stroke-width="0.5"/>
<rect x="359.25" y="217.25" width="31.5" height="31.5" stroke="white" stroke-opacity="0.06" stroke-width="0.5"/>
<rect x="359.25" y="124.25" width="31.5" height="31.5" stroke="white" stroke-opacity="0.06" stroke-width="0.5"/>
<rect x="359.25" y="248.25" width="31.5" height="31.5" stroke="white" stroke-opacity="0.06" stroke-width="0.5"/>
<rect x="359.25" y="155.25" width="31.5" height="31.5" stroke="white" stroke-opacity="0.06" stroke-width="0.5"/>
<rect x="359.25" y="186.25" width="31.5" height="31.5" stroke="white" stroke-opacity="0.06" stroke-width="0.5"/>
<rect x="390.25" y="-30.75" width="31.5" height="31.5" stroke="white" stroke-opacity="0.06" stroke-width="0.5"/>
<rect x="-0.25" y="0.25" width="31.5" height="31.5" transform="matrix(-1 0 0 1 452.5 -31)" stroke="white" stroke-opacity="0.06" stroke-width="0.5"/>
<rect x="390.25" y="0.25" width="31.5" height="31.5" stroke="white" stroke-opacity="0.06" stroke-width="0.5"/>
<rect x="-0.25" y="0.25" width="31.5" height="31.5" transform="matrix(-1 0 0 1 452.5 0)" stroke="white" stroke-opacity="0.06" stroke-width="0.5"/>
<rect x="390.25" y="31.25" width="31.5" height="31.5" stroke="white" stroke-opacity="0.06" stroke-width="0.5"/>
<rect x="-0.25" y="0.25" width="31.5" height="31.5" transform="matrix(-1 0 0 1 452.5 31)" stroke="url(#paint1_radial_201_3102)" stroke-opacity="0.24" stroke-width="0.5"/>
<rect x="390.25" y="62.25" width="31.5" height="31.5" stroke="white" stroke-opacity="0.06" stroke-width="0.5"/>
<rect x="-0.25" y="0.25" width="31.5" height="31.5" transform="matrix(-1 0 0 1 452.5 62)" stroke="white" stroke-opacity="0.06" stroke-width="0.5"/>
<rect x="390.25" y="93.25" width="31.5" height="31.5" stroke="white" stroke-opacity="0.06" stroke-width="0.5"/>
<rect x="-0.25" y="0.25" width="31.5" height="31.5" transform="matrix(-1 0 0 1 452.5 93)" stroke="white" stroke-opacity="0.06" stroke-width="0.5"/>
<rect x="390.25" y="217.25" width="31.5" height="31.5" stroke="white" stroke-opacity="0.06" stroke-width="0.5"/>
<rect x="-0.25" y="0.25" width="31.5" height="31.5" transform="matrix(-1 0 0 1 452.5 217)" stroke="white" stroke-opacity="0.06" stroke-width="0.5"/>
<rect x="390.25" y="124.25" width="31.5" height="31.5" stroke="white" stroke-opacity="0.06" stroke-width="0.5"/>
<rect x="-0.25" y="0.25" width="31.5" height="31.5" transform="matrix(-1 0 0 1 452.5 124)" stroke="white" stroke-opacity="0.06" stroke-width="0.5"/>
<rect x="390.25" y="248.25" width="31.5" height="31.5" stroke="white" stroke-opacity="0.06" stroke-width="0.5"/>
<rect x="390.25" y="155.25" width="31.5" height="31.5" stroke="white" stroke-opacity="0.06" stroke-width="0.5"/>
<rect x="-0.25" y="0.25" width="31.5" height="31.5" transform="matrix(-1 0 0 1 452.5 155)" stroke="white" stroke-opacity="0.06" stroke-width="0.5"/>
<rect x="-0.25" y="0.25" width="31.5" height="31.5" transform="matrix(-1 0 0 1 452.5 248)" stroke="white" stroke-opacity="0.06" stroke-width="0.5"/>
<rect x="390.25" y="186.25" width="31.5" height="31.5" stroke="white" stroke-opacity="0.06" stroke-width="0.5"/>
<rect x="-0.25" y="0.25" width="31.5" height="31.5" transform="matrix(-1 0 0 1 452.5 186)" stroke="white" stroke-opacity="0.06" stroke-width="0.5"/>
<defs>
<linearGradient id="paint0_linear_201_3102" x1="313" y1="31" x2="313" y2="63" gradientUnits="userSpaceOnUse">
<stop stop-color="white"/>
<stop offset="1" stop-color="#EBEDFF"/>
</linearGradient>
<radialGradient id="paint1_radial_201_3102" cx="0" cy="0" r="1" gradientUnits="userSpaceOnUse" gradientTransform="translate(16 16) rotate(90) scale(16)">
<stop stop-color="white"/>
<stop offset="1" stop-color="white"/>
</radialGradient>
</defs>
</svg>
