<svg width="16" height="16" viewBox="0 0 16 16" fill="none" xmlns="http://www.w3.org/2000/svg">
<rect width="16" height="16" rx="4" fill="#1E1E1E"/>
<path d="M10.2395 4C10.3972 4.00198 10.5513 3.99305 10.7055 4.02481C10.9628 4.07692 11.2203 4.12712 11.478 4.17542C11.7503 4.22653 11.988 4.36151 12.2115 4.52278C12.3621 4.63121 12.416 4.8106 12.4548 4.98899C12.5353 5.35968 12.4977 5.72764 12.4245 6.0946C12.2023 7.21113 11.827 8.26339 11.2547 9.23526C10.5052 10.5069 9.43663 11.3137 8.06848 11.6931C7.08179 11.966 6.08003 12.0469 5.06486 11.9752C4.81025 11.9571 4.56222 11.9211 4.31513 11.84C3.83744 11.6827 3.58776 11.3438 3.52117 10.8316C3.46587 10.4066 3.52799 9.99177 3.60329 9.57717C3.63131 9.42643 3.67454 9.27929 3.73225 9.13825L4.6867 10.4781C4.91379 10.2972 5.13899 10.1153 5.36748 9.93793C5.42914 9.89029 5.38207 9.8635 5.35925 9.83223C4.98713 9.31119 4.6147 8.79014 4.24195 8.2691C4.22336 8.2428 4.19489 8.21947 4.18853 8.1892C4.17747 8.13735 4.18218 8.08326 4.25913 8.10584C4.33898 8.12537 4.41758 8.15024 4.49445 8.18027C4.55704 8.20806 4.57399 8.18176 4.59611 8.12767C4.70576 7.85921 4.70906 7.85474 4.45491 7.75029C4.36079 7.71158 4.34879 7.67362 4.39655 7.58479C4.47186 7.4451 4.53775 7.3002 4.60552 7.15555C4.62905 7.10593 4.64905 7.10096 4.69165 7.13074C4.75706 7.17614 4.82884 7.21088 4.89331 7.25728C4.94603 7.29499 4.96979 7.27936 5.00203 7.2275C5.14864 6.9908 5.15264 6.98782 4.92555 6.83895C4.8446 6.78586 4.83143 6.75286 4.89449 6.66998C4.99921 6.53178 5.08957 6.38118 5.207 6.24992L5.48679 6.50027C5.49597 6.49134 5.50491 6.4839 5.51244 6.47546C5.57927 6.39482 5.68987 6.31964 5.7007 6.23156C5.70987 6.15043 5.58139 6.08493 5.51244 6.01372C5.47173 5.97104 5.45785 5.94449 5.50844 5.89859C5.62445 5.79388 5.73741 5.68546 5.84895 5.57604C5.88589 5.53981 5.90966 5.53634 5.94143 5.58199C5.98849 5.65196 6.04473 5.71697 6.09344 5.78694C6.12286 5.82887 6.14427 5.83061 6.18757 5.80034C6.42689 5.63087 6.43042 5.63087 6.26264 5.37854C6.21699 5.30981 6.21157 5.27358 6.28805 5.22967C6.41489 5.15672 6.53749 5.07484 6.65986 4.99346C6.70198 4.96517 6.72881 4.96344 6.7474 5.01827C6.75382 5.03732 6.76193 5.05568 6.77163 5.07311C6.81329 5.14754 6.86082 5.28549 6.89635 5.28227C6.99048 5.27334 7.08037 5.20262 7.17285 5.15821C7.21992 5.13588 7.19403 5.10685 7.18203 5.07931C7.13967 4.9818 7.09638 4.88478 7.0519 4.78405C7.22251 4.69646 7.39923 4.62997 7.57502 4.56074C7.62467 4.54139 7.64773 4.55256 7.65879 4.60392C7.66232 4.62004 7.66703 4.63592 7.67173 4.65155C7.75856 4.93193 7.7861 4.94309 8.04495 4.82499C8.09201 4.80315 8.0753 4.78157 8.0673 4.75055C8.04095 4.64734 8.01718 4.54362 7.9913 4.43619C8.16496 4.39202 8.3398 4.35332 8.51676 4.32206C8.60524 4.30667 8.61536 4.34265 8.62101 4.41287C8.62689 4.4873 8.64101 4.56174 8.64454 4.63443C8.6476 4.69001 8.66972 4.69969 8.71867 4.6977C9.00529 4.68555 9.00905 4.68679 8.99776 4.39401C8.99423 4.29973 9.0147 4.27516 9.10742 4.26673C9.23331 4.25506 9.30344 4.30369 9.37545 4.40691C9.70772 4.88206 10.0492 5.34976 10.385 5.82267C10.4245 5.87849 10.4457 5.8971 10.508 5.84475C10.6935 5.6862 10.8845 5.5346 11.0777 5.38672C11.1429 5.3371 11.1483 5.3041 11.0989 5.23463C10.8285 4.85923 10.5629 4.4811 10.2946 4.10545C10.2744 4.07568 10.2447 4.05235 10.2395 4Z" fill="#D80F29"/>
</svg>
