<svg width="180" height="180" viewBox="0 0 180 180" fill="none" xmlns="http://www.w3.org/2000/svg">
<rect width="180" height="180" rx="45" fill="#1E1E1E"/>
<path d="M115.195 45C116.969 45.0223 118.703 44.9218 120.437 45.2791C123.331 45.8653 126.228 46.4301 129.128 46.9735C132.191 47.5485 134.865 49.0669 137.38 50.8813C139.074 52.1011 139.68 54.1192 140.117 56.1262C141.022 60.2964 140.599 64.4359 139.775 68.5643C137.276 81.1252 133.054 92.9631 126.615 103.897C118.184 118.202 106.162 127.28 90.7704 131.547C79.6701 134.618 68.4003 135.528 56.9797 134.721C54.1153 134.517 51.325 134.113 48.5453 133.2C43.1712 131.43 40.3623 127.617 39.6131 121.856C38.991 117.075 39.6899 112.407 40.537 107.743C40.8522 106.047 41.3386 104.392 41.9878 102.805L52.7254 117.878C55.2801 115.844 57.8136 113.798 60.3842 111.802C61.0778 111.266 60.5483 110.964 60.2915 110.613C56.1052 104.751 51.9153 98.8891 47.7219 93.0273C47.5128 92.7315 47.1925 92.4691 47.121 92.1285C46.9966 91.5452 47.0495 90.9367 47.9152 91.1907C48.8136 91.4105 49.6978 91.6901 50.5625 92.0281C51.2667 92.3407 51.4573 92.0448 51.7062 91.4363C52.9399 88.4161 52.9769 88.3658 50.1178 87.1907C49.0588 86.7553 48.9238 86.3282 49.4612 85.3289C50.3084 83.7574 51.0496 82.1273 51.8121 80.4999C52.0768 79.9417 52.3018 79.8858 52.781 80.2208C53.517 80.7316 54.3244 81.1224 55.0498 81.6444C55.6428 82.0686 55.9102 81.8928 56.2729 81.3094C57.9222 78.6465 57.9672 78.613 55.4125 76.9382C54.5018 76.3409 54.3535 75.9696 55.063 75.0373C56.2411 73.4826 57.2577 71.7882 58.5787 70.3116L61.7264 73.1281C61.8296 73.0276 61.9302 72.9438 62.0149 72.8489C62.7668 71.9418 64.011 71.096 64.1328 70.1051C64.2361 69.1923 62.7906 68.4554 62.0149 67.6543C61.557 67.1742 61.4008 66.8755 61.9699 66.3591C63.2751 65.1812 64.5458 63.9614 65.8007 62.7304C66.2163 62.3229 66.4837 62.2838 66.8411 62.7974C67.3705 63.5846 68.0032 64.3159 68.5512 65.103C68.8822 65.5748 69.1231 65.5943 69.6102 65.2538C72.3025 63.3473 72.3422 63.3473 70.4547 60.5085C69.9411 59.7353 69.8802 59.3278 70.7406 58.8338C72.1675 58.0131 73.5468 57.092 74.9234 56.1764C75.3973 55.8582 75.6991 55.8387 75.9082 56.4556C75.9804 56.6698 76.0717 56.8763 76.1809 57.0724C76.6495 57.9098 77.1842 59.4618 77.584 59.4255C78.6429 59.325 79.6542 58.5295 80.6946 58.0299C81.2241 57.7786 80.9329 57.4521 80.7979 57.1422C80.3213 56.0452 79.8342 54.9538 79.3339 53.8206C81.2532 52.8352 83.2414 52.0871 85.2189 51.3084C85.7775 51.0906 86.037 51.2163 86.1614 51.7941C86.2011 51.9755 86.254 52.1541 86.307 52.33C87.2839 55.4842 87.5936 55.6098 90.5057 54.2811C91.0351 54.0355 90.8472 53.7926 90.7572 53.4437C90.4607 52.2825 90.1933 51.1158 89.9021 49.9071C91.8558 49.4103 93.8228 48.9748 95.8136 48.6231C96.809 48.4501 96.9228 48.8548 96.9864 49.6447C97.0526 50.4821 97.2114 51.3195 97.2511 52.1374C97.2855 52.7626 97.5344 52.8715 98.085 52.8492C101.309 52.7124 101.352 52.7264 101.225 49.4326C101.185 48.3719 101.415 48.0956 102.458 48.0007C103.875 47.8695 104.664 48.4166 105.474 49.5778C109.212 54.9231 113.053 60.1847 116.831 65.505C117.276 66.133 117.514 66.3424 118.215 65.7534C120.302 63.9698 122.451 62.2643 124.625 60.6007C125.358 60.0424 125.419 59.6711 124.863 58.8896C121.821 54.6663 118.832 50.4124 115.814 46.1863C115.587 45.8514 115.253 45.589 115.195 45Z" fill="#D80F29"/>
</svg>
