<svg width="32" height="32" viewBox="0 0 32 32" fill="none" xmlns="http://www.w3.org/2000/svg">
<rect width="32" height="32" rx="8" fill="#1E1E1E"/>
<path d="M20.4791 8C20.7944 8.00397 21.1027 7.98611 21.4109 8.04962C21.9255 8.15383 22.4405 8.25424 22.9561 8.35084C23.5006 8.45306 23.9759 8.72301 24.423 9.04556C24.7242 9.26242 24.832 9.6212 24.9097 9.97799C25.0706 10.7194 24.9953 11.4553 24.849 12.1892C24.4047 14.4223 23.654 16.5268 22.5094 18.4705C21.0104 21.0137 18.8733 22.6275 16.137 23.3862C14.1636 23.9321 12.1601 24.0938 10.1297 23.9504C9.62049 23.9142 9.12444 23.8423 8.63027 23.68C7.67487 23.3654 7.17552 22.6875 7.04233 21.6633C6.93173 20.8132 7.05598 19.9835 7.20659 19.1543C7.26262 18.8529 7.34908 18.5586 7.4645 18.2765L9.37341 20.9562C9.82757 20.5944 10.278 20.2307 10.735 19.8759C10.8583 19.7806 10.7641 19.727 10.7185 19.6645C9.97426 18.6224 9.22939 17.5803 8.4839 16.5382C8.44672 16.4856 8.38977 16.4389 8.37707 16.3784C8.35494 16.2747 8.36436 16.1665 8.51826 16.2117C8.67797 16.2507 8.83516 16.3005 8.9889 16.3605C9.11409 16.4161 9.14797 16.3635 9.19221 16.2553C9.41153 15.7184 9.41812 15.7095 8.90983 15.5006C8.72157 15.4232 8.69757 15.3472 8.79311 15.1696C8.94371 14.8902 9.07549 14.6004 9.21104 14.3111C9.2581 14.2119 9.29811 14.2019 9.38329 14.2615C9.51413 14.3523 9.65767 14.4218 9.78663 14.5146C9.89205 14.59 9.93959 14.5587 10.0041 14.455C10.2973 13.9816 10.3053 13.9756 9.85111 13.6779C9.68921 13.5717 9.66285 13.5057 9.78898 13.34C9.99842 13.0636 10.1791 12.7624 10.414 12.4998L10.9736 13.0005C10.9919 12.9827 11.0098 12.9678 11.0249 12.9509C11.1585 12.7896 11.3797 12.6393 11.4014 12.4631C11.4197 12.3009 11.1628 12.1699 11.0249 12.0274C10.9435 11.9421 10.9157 11.889 11.0169 11.7972C11.2489 11.5878 11.4748 11.3709 11.6979 11.1521C11.7718 11.0796 11.8193 11.0727 11.8829 11.164C11.977 11.3039 12.0895 11.4339 12.1869 11.5739C12.2457 11.6577 12.2885 11.6612 12.3751 11.6007C12.8538 11.2617 12.8608 11.2617 12.5253 10.7571C12.434 10.6196 12.4231 10.5472 12.5761 10.4593C12.8298 10.3134 13.075 10.1497 13.3197 9.98692C13.404 9.93035 13.4576 9.92688 13.4948 10.0365C13.5076 10.0746 13.5239 10.1114 13.5433 10.1462C13.6266 10.2951 13.7216 10.571 13.7927 10.5645C13.981 10.5467 14.1607 10.4052 14.3457 10.3164C14.4398 10.2718 14.3881 10.2137 14.3641 10.1586C14.2793 9.9636 14.1928 9.76957 14.1038 9.5681C14.445 9.39293 14.7985 9.25994 15.15 9.12149C15.2493 9.08278 15.2955 9.10511 15.3176 9.20783C15.3246 9.24009 15.3341 9.27185 15.3435 9.30311C15.5171 9.86385 15.5722 9.88618 16.0899 9.64998C16.184 9.60631 16.1506 9.56314 16.1346 9.50111C16.0819 9.29467 16.0344 9.08725 15.9826 8.87238C16.3299 8.78405 16.6796 8.70664 17.0335 8.64411C17.2105 8.61334 17.2307 8.6853 17.242 8.82573C17.2538 8.9746 17.282 9.12347 17.2891 9.26887C17.2952 9.38003 17.3394 9.39938 17.4373 9.39541C18.0106 9.37109 18.0181 9.37357 17.9955 8.78802C17.9885 8.59945 18.0294 8.55032 18.2148 8.53345C18.4666 8.51013 18.6069 8.60739 18.7509 8.81382C19.4154 9.76411 20.0983 10.6995 20.7699 11.6453C20.849 11.757 20.8914 11.7942 21.0161 11.6895C21.3869 11.3724 21.7691 11.0692 22.1555 10.7734C22.2859 10.6742 22.2967 10.6082 22.1979 10.4693C21.6571 9.71846 21.1257 8.9622 20.5892 8.2109C20.5487 8.15135 20.4894 8.10471 20.4791 8Z" fill="#D80F29"/>
</svg>
