<svg width="107" height="59" viewBox="0 0 107 59" fill="none" xmlns="http://www.w3.org/2000/svg">
<path d="M57.2796 23.7129C57.2796 16.0383 57.2754 8.36374 57.267 0.68914C57.267 0.153148 57.3712 -0.00124767 57.9386 7.57749e-06C73.2752 0.0184179 88.6115 0.0184179 103.947 7.57749e-06C104.492 7.57749e-06 104.633 0.125533 104.631 0.677843C104.614 16.0488 104.614 31.4189 104.631 46.7882C104.631 47.3066 104.517 47.4359 103.99 47.4346C88.6332 47.4196 73.2773 47.4196 57.9223 47.4346C57.4126 47.4346 57.2695 47.3317 57.2708 46.7982C57.2875 39.1036 57.2905 31.4085 57.2796 23.7129Z" fill="white"/>
<path d="M38.3178 3.4834C39.1588 3.49344 39.981 3.44825 40.8032 3.60892C42.1756 3.87253 43.5492 4.1265 44.9242 4.37086C46.3765 4.62944 47.6443 5.3123 48.8368 6.12821C49.6401 6.67675 49.9276 7.5843 50.1347 8.48682C50.564 10.3622 50.3632 12.2237 49.9728 14.0802C48.7878 19.7288 46.7857 25.0524 43.7329 29.9692C39.735 36.4023 34.0349 40.4844 26.7368 42.4037C21.4736 43.7844 16.13 44.1937 10.7148 43.8309C9.35666 43.7393 8.03362 43.5572 6.71561 43.1468C4.16746 42.351 2.83563 40.6363 2.4804 38.0454C2.18542 35.8952 2.5168 33.7964 2.91848 31.6989C3.06792 30.9363 3.29853 30.1919 3.60636 29.4784L8.69765 36.2567C9.90897 35.3416 11.1102 34.4215 12.3291 33.524C12.658 33.283 12.4069 33.1475 12.2852 32.9893C10.3002 30.3533 8.31355 27.7172 6.32523 25.0812C6.22606 24.9482 6.07418 24.8302 6.04029 24.677C5.98129 24.4147 6.0064 24.141 6.41686 24.2553C6.84282 24.3541 7.26208 24.4799 7.67211 24.6318C8.00601 24.7724 8.09639 24.6394 8.21438 24.3657C8.79933 23.0076 8.8169 22.985 7.46123 22.4565C6.95913 22.2607 6.89511 22.0686 7.14993 21.6192C7.55161 20.9125 7.90308 20.1795 8.26459 19.4477C8.39012 19.1966 8.49681 19.1715 8.72401 19.3221C9.07297 19.5518 9.45582 19.7276 9.79976 19.9623C10.0809 20.1531 10.2077 20.074 10.3797 19.8117C11.1617 18.6142 11.183 18.5991 9.97173 17.846C9.53992 17.5773 9.46963 17.4104 9.80604 16.9911C10.3646 16.292 10.8466 15.53 11.473 14.866L12.9655 16.1325C13.0145 16.0874 13.0622 16.0497 13.1023 16.007C13.4588 15.5991 14.0488 15.2187 14.1065 14.7731C14.1555 14.3626 13.4701 14.0313 13.1023 13.671C12.8852 13.4551 12.8111 13.3208 13.081 13.0886C13.6998 12.5589 14.3023 12.0103 14.8973 11.4567C15.0944 11.2735 15.2212 11.2559 15.3906 11.4869C15.6417 11.8409 15.9417 12.1697 16.2015 12.5237C16.3584 12.7358 16.4727 12.7446 16.7036 12.5915C17.9802 11.7342 17.9991 11.7342 17.1041 10.4576C16.8605 10.1099 16.8317 9.92659 17.2396 9.70442C17.9162 9.33537 18.5702 8.92114 19.2229 8.50942C19.4476 8.36632 19.5907 8.35753 19.6899 8.63494C19.7241 8.73129 19.7674 8.82417 19.8192 8.91235C20.0413 9.28893 20.2949 9.98685 20.4844 9.97053C20.9865 9.92534 21.4661 9.56759 21.9594 9.3429C22.2104 9.22993 22.0723 9.08307 22.0083 8.94373C21.7824 8.45042 21.5514 7.95962 21.3142 7.44999C22.2242 7.00688 23.1669 6.67048 24.1046 6.32026C24.3694 6.22235 24.4925 6.27884 24.5515 6.53868C24.5703 6.62027 24.5954 6.7006 24.6205 6.77968C25.0837 8.19812 25.2305 8.2546 26.6113 7.6571C26.8624 7.54664 26.7732 7.43743 26.7306 7.28053C26.59 6.75834 26.4632 6.23365 26.3251 5.69013C27.2515 5.46669 28.1842 5.27087 29.1281 5.11271C29.6001 5.03489 29.654 5.2169 29.6842 5.57213C29.7156 5.94871 29.7909 6.32528 29.8097 6.69307C29.826 6.97425 29.944 7.0232 30.2051 7.01316C31.734 6.95165 31.7541 6.95793 31.6938 5.47674C31.675 4.99974 31.7842 4.87547 32.2788 4.83279C32.9503 4.7738 33.3244 5.01982 33.7085 5.54201C35.4809 7.94581 37.3023 10.312 39.0935 12.7045C39.3044 12.9869 39.4174 13.081 39.75 12.8162C40.7392 12.0141 41.7584 11.2471 42.789 10.499C43.1367 10.2479 43.1656 10.081 42.902 9.72952C41.4597 7.83033 40.0425 5.91733 38.6115 4.01688C38.5036 3.86625 38.3454 3.74826 38.3178 3.4834Z" fill="white"/>
<path d="M83.1817 23.6879C83.1817 19.5055 83.1904 15.323 83.1691 11.1354C83.1691 10.6911 83.3084 10.6221 83.6938 10.6233C89.3148 10.6317 94.9358 10.6317 100.557 10.6233C101.02 10.6233 101.108 10.7965 101.104 11.2095C101.087 12.8815 101.08 14.5548 101.104 16.2305C101.112 16.7326 100.952 16.8757 100.46 16.8732C97.4099 16.8544 94.3584 16.8632 91.3081 16.8632C90.2211 16.8632 90.3931 16.8079 90.3868 17.8171C90.3868 18.7372 90.4144 19.6586 90.3742 20.5787C90.3516 21.0971 90.5073 21.2641 91.0358 21.259C93.5463 21.2352 96.0568 21.259 98.5572 21.2377C98.9627 21.2377 99.1007 21.3105 99.0945 21.7398C99.0702 23.3298 99.0702 24.9198 99.0945 26.5097C99.0945 26.9328 98.9614 27.0118 98.561 27.0118C96.0505 26.9918 93.54 27.0118 91.0395 26.9905C90.5086 26.9905 90.3705 27.1549 90.3742 27.6709C90.3981 30.4726 90.3742 33.2755 90.3943 36.081C90.3943 36.5919 90.2688 36.7702 89.7253 36.7614C87.7407 36.73 85.7549 36.735 83.7704 36.7614C83.3185 36.7676 83.1641 36.681 83.1666 36.184C83.1917 32.009 83.1817 27.8491 83.1817 23.6879Z" fill="#D80F29"/>
<path d="M62.5002 23.6514C62.5002 19.4677 62.509 15.2852 62.4864 11.0989C62.4864 10.6784 62.6232 10.6257 62.9747 10.627C68.6174 10.6328 74.2598 10.6328 79.9017 10.627C80.2695 10.627 80.4214 10.7211 80.4176 11.1178C80.4 12.8525 80.395 14.5898 80.4176 16.3246C80.4251 16.8668 80.1276 16.8656 79.7385 16.8643C76.6255 16.858 73.5112 16.8731 70.3982 16.8492C69.8622 16.8492 69.6601 16.9635 69.6865 17.5384C69.7354 18.5614 69.7279 19.5895 69.6865 20.6125C69.6676 21.1146 69.8308 21.2577 70.3229 21.2539C72.8334 21.2338 75.3439 21.2539 77.8469 21.2326C78.2799 21.2326 78.418 21.3242 78.4105 21.7723C78.3841 23.3414 78.3803 24.9105 78.4105 26.4783C78.4193 26.949 78.2473 27.0067 77.8368 27.0042C75.3703 26.9841 72.9049 27.0155 70.4396 26.9804C69.812 26.9716 69.6777 27.1724 69.6865 27.7624C69.7166 30.5239 69.6865 33.2855 69.7128 36.047C69.7128 36.6081 69.5459 36.7575 69.0011 36.75C67.0166 36.7211 65.0308 36.7274 63.045 36.75C62.6244 36.75 62.4813 36.6772 62.4839 36.2027C62.5115 32.0177 62.5002 27.8339 62.5002 23.6514Z" fill="#D80F29"/>
<path d="M1.18496 55.8184V56.4209H2.65109V57.3147H1.18496V58.4444H0V54.9297H2.85695V55.8234L1.18496 55.8184Z" fill="white"/>
<path d="M7.02942 57.8267H5.69383L5.45785 58.4393H4.25281L5.78923 54.9246H6.9541L8.48927 58.4393H7.26541L7.02942 57.8267ZM6.70306 56.9731L6.36163 56.0945L6.0202 56.9731H6.70306Z" fill="white"/>
<path d="M13.6722 54.9246V58.4393H12.6981L11.3625 56.8426V58.4393H10.2077V54.9246H11.1818L12.5174 56.5212V54.9246H13.6722Z" fill="white"/>
<path d="M16.5342 55.8434H15.5049V54.9246H18.7484V55.8434H17.7191V58.4393H16.5342V55.8434Z" fill="white"/>
<path d="M22.8004 57.8267H21.4648L21.2288 58.4393H20.0238L21.5602 54.9246H22.7201L24.2552 58.4393H23.0314L22.8004 57.8267ZM22.474 56.9731L22.1326 56.0945L21.7912 56.9731H22.474Z" fill="white"/>
<path d="M25.7578 58.1581L26.1343 57.2945C26.4876 57.4979 26.8866 57.6085 27.2942 57.6159C27.6306 57.6159 27.7511 57.5456 27.7511 57.4251C27.7511 56.9832 25.808 57.3397 25.808 56.0292C25.808 55.3765 26.3553 54.8443 27.4398 54.8443C27.9001 54.8354 28.3555 54.9406 28.7653 55.1505L28.4088 56.0091C28.1077 55.846 27.7722 55.7565 27.4297 55.748C27.0833 55.748 26.9728 55.8485 26.9728 55.969C26.9728 56.3907 28.916 56.0393 28.916 57.3347C28.916 57.9774 28.3687 58.5196 27.2841 58.5196C26.7017 58.5196 26.1092 58.369 25.7578 58.1581Z" fill="white"/>
<path d="M32.8173 57.1639V58.4393H31.6323V57.1489L30.3068 54.9246H31.562L32.28 56.1396L33.003 54.9246H34.1428L32.8173 57.1639Z" fill="white"/>
<path d="M39.568 55.8987V56.5012H41.0341V57.395H39.568V58.5247H38.3831V55.01H41.24V55.9037L39.568 55.8987Z" fill="white"/>
<path d="M43.2433 56.9382V55.0051H44.4283V56.9031C44.4283 57.4403 44.6342 57.6412 44.9656 57.6412C45.2969 57.6412 45.5028 57.4403 45.5028 56.9031V55.0051H46.6677V56.9382C46.6677 57.9926 46.04 58.6002 44.9555 58.6002C43.871 58.6002 43.2433 57.9926 43.2433 56.9382Z" fill="white"/>
<path d="M52.3314 55.0051V58.5198H51.3574L50.0218 56.9231V58.5198H48.8669V55.0051H49.841L51.1766 56.6018V55.0051H52.3314Z" fill="white"/>
<path d="M54.5607 55.0051H56.2929C57.4678 55.0051 58.2762 55.6729 58.2762 56.7625C58.2762 57.852 57.4678 58.5198 56.2929 58.5198H54.5607V55.0051ZM56.2427 57.596C56.7448 57.596 57.0812 57.2997 57.0812 56.7625C57.0812 56.2252 56.7398 55.929 56.2427 55.929H55.7406V57.596H56.2427Z" fill="white"/>
<path d="M60.3349 56.9382V55.0051H61.5199V56.9031C61.5199 57.4403 61.7257 57.6412 62.0571 57.6412C62.3885 57.6412 62.5943 57.4403 62.5943 56.9031V55.0051H63.7592V56.9382C63.7592 57.9926 63.1316 58.6002 62.0471 58.6002C60.9625 58.6002 60.3349 57.9926 60.3349 56.9382Z" fill="white"/>
<path d="M69.4229 55.0051V58.5198H68.2379V57.2244H67.1433V58.5198H65.9584V55.0051H67.1433V56.2503H68.2379V55.0051H69.4229Z" fill="white"/>
<path d="M74.7903 58.5198L74.7803 56.9181L74.0171 58.2035H73.4949L72.7317 56.9734V58.5198H71.6522V55.0051H72.6263L73.7711 56.878L74.8857 55.0051H75.8586L75.8699 58.5198H74.7903Z" fill="white"/>
<path d="M81.0213 57.6261V58.5198H78.0991V55.0051H80.9561V55.8989H79.264V56.3106H80.7502V57.1642H79.264V57.6261H81.0213Z" fill="white"/>
<path d="M86.5997 55.0051V58.5198H85.6256L84.29 56.9231V58.5198H83.1352V55.0051H84.1093L85.4449 56.6018V55.0051H86.5997Z" fill="white"/>
<path d="M89.5922 55.924H88.5629V55.0051H91.8065V55.924H90.7772V58.5198H89.5922V55.924Z" fill="white"/>
<path d="M95.989 57.9073H94.6534L94.4174 58.5198H93.2123L94.7488 55.0051H95.9136L97.4488 58.5198H96.2249L95.989 57.9073ZM95.6626 57.0537L95.3212 56.175L94.9797 57.0537H95.6626Z" fill="white"/>
<path d="M99.2978 55.0051H100.483V57.601H102.069V58.5198H99.2978V55.0051Z" fill="white"/>
<path d="M103.832 58.2435L104.208 57.3799C104.562 57.5834 104.961 57.6939 105.368 57.7013C105.705 57.7013 105.825 57.631 105.825 57.5105C105.825 57.0686 103.882 57.4251 103.882 56.1146C103.882 55.4619 104.429 54.9297 105.514 54.9297C105.977 54.9175 106.435 55.021 106.848 55.2309L106.493 56.0895C106.192 55.9264 105.856 55.8369 105.514 55.8284C105.167 55.8284 105.057 55.9289 105.057 56.0494C105.057 56.4711 107 56.1197 107 57.4151C107 58.0578 106.453 58.6 105.368 58.6C104.776 58.6 104.186 58.4544 103.832 58.2435Z" fill="white"/>
</svg>
